<?xml version="1.0" encoding="UTF-8" standalone="no"?>
<!DOCTYPE svg PUBLIC "-//W3C//DTD SVG 1.1//EN"
 "http://www.w3.org/Graphics/SVG/1.1/DTD/svg11.dtd">
<!-- Generated by graphviz version 14.0.2 (20251019.1705)
 -->
<!-- Pages: 1 -->
<svg width="544pt" height="196pt"
 viewBox="0.00 0.00 544.00 196.00" xmlns="http://www.w3.org/2000/svg" xmlns:xlink="http://www.w3.org/1999/xlink">
<g id="graph0" class="graph" transform="scale(1 1) rotate(0) translate(4 191.73)">
<polygon fill="white" stroke="none" points="-4,4 -4,-191.73 539.72,-191.73 539.72,4 -4,4"/>
<!-- x -->
<g id="node1" class="node">
<title>x</title>
<polygon fill="lightgray" stroke="black" points="278.11,-121.62 257.61,-121.62 257.61,-103.12 278.11,-103.12 278.11,-121.62"/>
<text xml:space="preserve" text-anchor="middle" x="267.86" y="-109.07" font-family="Times New Roman,serif" font-size="9.00">x</text>
</g>
<!-- results -->
<g id="node9" class="node">
<title>results</title>
<ellipse fill="lightblue" stroke="black" cx="149.86" cy="-27.75" rx="27.75" ry="27.75"/>
<text xml:space="preserve" text-anchor="middle" x="149.86" y="-24.45" font-family="Times New Roman,serif" font-size="9.00">results</text>
</g>
<!-- x&#45;&gt;results -->
<g id="edge1" class="edge">
<title>x&#45;&gt;results</title>
<path fill="none" stroke="red" stroke-width="0.76" d="M260.51,-102.8C257.15,-99.12 252.99,-94.89 248.86,-91.51 228.52,-74.85 203.5,-59.03 183.7,-47.43"/>
<polygon fill="red" stroke="red" stroke-width="0.76" points="185.57,-44.47 175.16,-42.51 182.07,-50.53 185.57,-44.47"/>
</g>
<!-- 1 -->
<g id="node10" class="node">
<title>1</title>
<ellipse fill="lightblue" stroke="black" cx="349.86" cy="-27.75" rx="14.5" ry="14.5"/>
<text xml:space="preserve" text-anchor="middle" x="349.86" y="-24.45" font-family="Times New Roman,serif" font-size="9.00">1</text>
</g>
<!-- x&#45;&gt;1 -->
<g id="edge2" class="edge">
<title>x&#45;&gt;1</title>
<path fill="none" stroke="green" stroke-width="0.34" stroke-dasharray="1,5" d="M275.88,-102.75C279.23,-99.22 283.18,-95.12 286.86,-91.51 303.69,-74.98 309.3,-72.31 325.86,-55.51 328.48,-52.85 331.19,-49.97 333.79,-47.13"/>
<polygon fill="green" stroke="green" stroke-width="0.34" points="336.32,-49.55 340.39,-39.77 331.11,-44.88 336.32,-49.55"/>
</g>
<!-- 2 -->
<g id="node11" class="node">
<title>2</title>
<ellipse fill="lightblue" stroke="black" cx="227.86" cy="-27.75" rx="14.5" ry="14.5"/>
<text xml:space="preserve" text-anchor="middle" x="227.86" y="-24.45" font-family="Times New Roman,serif" font-size="9.00">2</text>
</g>
<!-- x&#45;&gt;2 -->
<g id="edge3" class="edge">
<title>x&#45;&gt;2</title>
<path fill="none" stroke="green" stroke-width="0.35" stroke-dasharray="1,5" d="M263.73,-102.84C257.82,-90.64 246.76,-67.79 238.48,-50.68"/>
<polygon fill="green" stroke="green" stroke-width="0.35" points="241.72,-49.35 234.21,-41.87 235.42,-52.4 241.72,-49.35"/>
</g>
<!-- 3 -->
<g id="node12" class="node">
<title>3</title>
<ellipse fill="lightblue" stroke="black" cx="302.86" cy="-27.75" rx="14.5" ry="14.5"/>
<text xml:space="preserve" text-anchor="middle" x="302.86" y="-24.45" font-family="Times New Roman,serif" font-size="9.00">3</text>
</g>
<!-- x&#45;&gt;3 -->
<g id="edge4" class="edge">
<title>x&#45;&gt;3</title>
<path fill="none" stroke="green" stroke-width="0.25" d="M271.47,-102.84C276.61,-90.71 286.21,-68.05 293.45,-50.97"/>
<polygon fill="green" stroke="green" stroke-width="0.25" points="296.56,-52.6 297.24,-42.03 290.11,-49.87 296.56,-52.6"/>
</g>
<!-- y -->
<g id="node2" class="node">
<title>y</title>
<polygon fill="lightgray" stroke="black" points="160.11,-121.62 139.61,-121.62 139.61,-103.12 160.11,-103.12 160.11,-121.62"/>
<text xml:space="preserve" text-anchor="middle" x="149.86" y="-109.07" font-family="Times New Roman,serif" font-size="9.00">y</text>
</g>
<!-- y&#45;&gt;results -->
<g id="edge5" class="edge">
<title>y&#45;&gt;results</title>
<path fill="none" stroke="green" stroke-width="0.29" stroke-dasharray="1,5" d="M149.86,-102.84C149.86,-94.03 149.86,-79.68 149.86,-65.95"/>
<polygon fill="green" stroke="green" stroke-width="0.29" points="153.36,-66.1 149.86,-56.1 146.36,-66.1 153.36,-66.1"/>
</g>
<!-- y&#45;&gt;2 -->
<g id="edge6" class="edge">
<title>y&#45;&gt;2</title>
<path fill="none" stroke="red" stroke-width="0.1" d="M157.91,-102.84C170.47,-89.54 194.97,-63.59 211.38,-46.21"/>
<polygon fill="red" stroke="red" stroke-width="0.1" points="213.85,-48.69 218.17,-39.01 208.76,-43.88 213.85,-48.69"/>
</g>
<!-- &#45;3 -->
<g id="node3" class="node">
<title>&#45;3</title>
<polygon fill="lightgray" stroke="black" points="458.61,-187.73 435.11,-187.73 435.11,-169.23 458.61,-169.23 458.61,-187.73"/>
<text xml:space="preserve" text-anchor="middle" x="446.86" y="-175.18" font-family="Times New Roman,serif" font-size="9.00">&#45;3</text>
</g>
<!-- &#45;3&#45;&gt;1 -->
<g id="edge7" class="edge">
<title>&#45;3&#45;&gt;1</title>
<path fill="none" stroke="red" stroke-width="0.14" stroke-dasharray="1,5" d="M448.73,-168.73C451.74,-152.36 456,-116.49 441.86,-91.51 426.66,-64.66 394.67,-46.9 372.72,-37.33"/>
<polygon fill="red" stroke="red" stroke-width="0.14" points="374.21,-34.16 363.63,-33.59 371.55,-40.63 374.21,-34.16"/>
</g>
<!-- &#45;3&#45;&gt;2 -->
<g id="edge8" class="edge">
<title>&#45;3&#45;&gt;2</title>
<path fill="none" stroke="red" stroke-width="0.64" d="M434.83,-177.2C390.37,-175.89 236.47,-168.8 206.86,-133.23 187.17,-109.57 201.94,-72.53 214.7,-49.5"/>
<polygon fill="red" stroke="red" stroke-width="0.64" points="217.57,-51.52 219.62,-41.13 211.54,-47.98 217.57,-51.52"/>
</g>
<!-- &#45;3&#45;&gt;3 -->
<g id="edge9" class="edge">
<title>&#45;3&#45;&gt;3</title>
<path fill="none" stroke="red" stroke-width="1.46" d="M444.6,-168.77C439.79,-151.82 427.05,-114.1 403.86,-91.51 376.8,-65.15 357.2,-78.02 326.86,-55.51 324.18,-53.52 321.57,-51.19 319.13,-48.76"/>
<polygon fill="red" stroke="red" stroke-width="1.46" points="321.89,-46.6 312.59,-41.51 316.69,-51.28 321.89,-46.6"/>
</g>
<!-- 558 -->
<g id="node14" class="node">
<title>558</title>
<ellipse fill="white" stroke="black" cx="514.86" cy="-112.37" rx="20.86" ry="20.86"/>
<text xml:space="preserve" text-anchor="middle" x="514.86" y="-109.07" font-family="Times New Roman,serif" font-size="9.00">558</text>
</g>
<!-- &#45;3&#45;&gt;558 -->
<g id="edge26" class="edge">
<title>&#45;3&#45;&gt;558</title>
<path fill="none" stroke="green" stroke-width="0.55" d="M456.03,-168.83C465.25,-160.14 479.82,-146.4 492.16,-134.77"/>
<polygon fill="green" stroke="green" stroke-width="0.55" points="494.39,-137.48 499.26,-128.07 489.58,-132.39 494.39,-137.48"/>
</g>
<!-- &#45;4 -->
<g id="node4" class="node">
<title>&#45;4</title>
<polygon fill="lightgray" stroke="black" points="361.61,-121.62 338.11,-121.62 338.11,-103.12 361.61,-103.12 361.61,-121.62"/>
<text xml:space="preserve" text-anchor="middle" x="349.86" y="-109.07" font-family="Times New Roman,serif" font-size="9.00">&#45;4</text>
</g>
<!-- &#45;4&#45;&gt;1 -->
<g id="edge10" class="edge">
<title>&#45;4&#45;&gt;1</title>
<path fill="none" stroke="green" stroke-width="0.31" d="M349.86,-102.84C349.86,-91.14 349.86,-69.64 349.86,-52.81"/>
<polygon fill="green" stroke="green" stroke-width="0.31" points="353.36,-53.03 349.86,-43.03 346.36,-53.03 353.36,-53.03"/>
</g>
<!-- &#45;4&#45;&gt;2 -->
<g id="edge11" class="edge">
<title>&#45;4&#45;&gt;2</title>
<path fill="none" stroke="red" stroke-width="1.02" d="M341.63,-102.84C337.89,-99.17 333.31,-94.94 328.86,-91.51 303.38,-71.87 271.5,-52.88 250.44,-41.04"/>
<polygon fill="red" stroke="red" stroke-width="1.02" points="252.31,-38.07 241.86,-36.27 248.91,-44.19 252.31,-38.07"/>
</g>
<!-- &#45;5 -->
<g id="node5" class="node">
<title>&#45;5</title>
<polygon fill="lightgray" stroke="black" points="319.61,-121.62 296.11,-121.62 296.11,-103.12 319.61,-103.12 319.61,-121.62"/>
<text xml:space="preserve" text-anchor="middle" x="307.86" y="-109.07" font-family="Times New Roman,serif" font-size="9.00">&#45;5</text>
</g>
<!-- &#45;5&#45;&gt;results -->
<g id="edge12" class="edge">
<title>&#45;5&#45;&gt;results</title>
<path fill="none" stroke="red" stroke-width="0.56" d="M300.24,-102.93C296.48,-99.1 291.71,-94.73 286.86,-91.51 253.69,-69.51 240.98,-72.22 204.86,-55.51 198.19,-52.42 191.11,-49.05 184.32,-45.77"/>
<polygon fill="red" stroke="red" stroke-width="0.56" points="185.97,-42.68 175.44,-41.45 182.91,-48.98 185.97,-42.68"/>
</g>
<!-- &#45;5&#45;&gt;1 -->
<g id="edge13" class="edge">
<title>&#45;5&#45;&gt;1</title>
<path fill="none" stroke="red" stroke-width="1.03" d="M312.2,-102.84C318.32,-90.8 329.71,-68.39 338.37,-51.36"/>
<polygon fill="red" stroke="red" stroke-width="1.03" points="341.46,-53 342.87,-42.5 335.22,-49.83 341.46,-53"/>
</g>
<!-- &#45;5&#45;&gt;2 -->
<g id="edge14" class="edge">
<title>&#45;5&#45;&gt;2</title>
<path fill="none" stroke="green" stroke-width="0.52" d="M299.6,-102.84C286.72,-89.54 261.59,-63.59 244.76,-46.21"/>
<polygon fill="green" stroke="green" stroke-width="0.52" points="247.7,-44.21 238.23,-39.47 242.67,-49.08 247.7,-44.21"/>
</g>
<!-- &#45;5&#45;&gt;3 -->
<g id="edge15" class="edge">
<title>&#45;5&#45;&gt;3</title>
<path fill="none" stroke="green" stroke-width="0.63" d="M307.34,-102.84C306.64,-91.25 305.36,-70.05 304.34,-53.29"/>
<polygon fill="green" stroke="green" stroke-width="0.63" points="307.85,-53.29 303.75,-43.52 300.86,-53.71 307.85,-53.29"/>
</g>
<!-- &#45;6 -->
<g id="node6" class="node">
<title>&#45;6</title>
<polygon fill="lightgray" stroke="black" points="81.61,-187.73 58.11,-187.73 58.11,-169.23 81.61,-169.23 81.61,-187.73"/>
<text xml:space="preserve" text-anchor="middle" x="69.86" y="-175.18" font-family="Times New Roman,serif" font-size="9.00">&#45;6</text>
</g>
<!-- &#45;6&#45;&gt;results -->
<g id="edge16" class="edge">
<title>&#45;6&#45;&gt;results</title>
<path fill="none" stroke="red" stroke-width="0.26" d="M70.22,-168.89C71.21,-152.78 74.93,-117.34 88.86,-91.51 96.78,-76.81 109.15,-63.16 120.68,-52.37"/>
<polygon fill="red" stroke="red" stroke-width="0.26" points="122.7,-55.27 127.79,-45.98 118.02,-50.06 122.7,-55.27"/>
</g>
<!-- &#45;6&#45;&gt;3 -->
<g id="edge17" class="edge">
<title>&#45;6&#45;&gt;3</title>
<path fill="none" stroke="red" stroke-width="0.17" d="M82,-177.69C133.43,-178.29 332.45,-177.7 370.86,-133.23 382.98,-119.19 378.8,-108.26 370.86,-91.51 360.04,-68.67 345.13,-72.96 326.86,-55.51 324.08,-52.85 321.25,-49.92 318.55,-47.01"/>
<polygon fill="red" stroke="red" stroke-width="0.17" points="321.29,-44.83 312.02,-39.71 316.08,-49.5 321.29,-44.83"/>
</g>
<!-- 390 -->
<g id="node13" class="node">
<title>390</title>
<ellipse fill="white" stroke="black" cx="20.86" cy="-112.37" rx="20.86" ry="20.86"/>
<text xml:space="preserve" text-anchor="middle" x="20.86" y="-109.07" font-family="Times New Roman,serif" font-size="9.00">390</text>
</g>
<!-- &#45;6&#45;&gt;390 -->
<g id="edge24" class="edge">
<title>&#45;6&#45;&gt;390</title>
<path fill="none" stroke="red" stroke-width="0.21" d="M63.25,-168.83C57.13,-160.82 47.74,-148.53 39.34,-137.55"/>
<polygon fill="red" stroke="red" stroke-width="0.21" points="42.24,-135.58 33.39,-129.76 36.68,-139.83 42.24,-135.58"/>
</g>
<!-- &#45;7 -->
<g id="node7" class="node">
<title>&#45;7</title>
<polygon fill="lightgray" stroke="black" points="239.61,-121.62 216.11,-121.62 216.11,-103.12 239.61,-103.12 239.61,-121.62"/>
<text xml:space="preserve" text-anchor="middle" x="227.86" y="-109.07" font-family="Times New Roman,serif" font-size="9.00">&#45;7</text>
</g>
<!-- &#45;7&#45;&gt;results -->
<g id="edge18" class="edge">
<title>&#45;7&#45;&gt;results</title>
<path fill="none" stroke="red" stroke-width="0.23" stroke-dasharray="1,5" d="M219.81,-102.84C209.41,-91.83 190.83,-72.14 175.42,-55.83"/>
<polygon fill="red" stroke="red" stroke-width="0.23" points="178.26,-53.74 168.85,-48.87 173.17,-58.54 178.26,-53.74"/>
</g>
<!-- &#45;7&#45;&gt;1 -->
<g id="edge19" class="edge">
<title>&#45;7&#45;&gt;1</title>
<path fill="none" stroke="green" stroke-width="0.15" d="M235.51,-102.98C239.28,-99.17 244.05,-94.78 248.86,-91.51 280.09,-70.26 295.52,-78.02 325.86,-55.51 329,-53.18 332.04,-50.38 334.85,-47.49"/>
<polygon fill="green" stroke="green" stroke-width="0.15" points="337.44,-49.85 341.46,-40.04 332.2,-45.2 337.44,-49.85"/>
</g>
<!-- &#45;7&#45;&gt;2 -->
<g id="edge20" class="edge">
<title>&#45;7&#45;&gt;2</title>
<path fill="none" stroke="green" stroke-width="0.13" d="M227.86,-102.84C227.86,-91.03 227.86,-69.23 227.86,-52.33"/>
<polygon fill="green" stroke="green" stroke-width="0.13" points="231.36,-52.77 227.86,-42.77 224.36,-52.77 231.36,-52.77"/>
</g>
<!-- &#45;7&#45;&gt;3 -->
<g id="edge21" class="edge">
<title>&#45;7&#45;&gt;3</title>
<path fill="none" stroke="red" stroke-width="0.36" stroke-dasharray="1,5" d="M235.6,-102.84C247.5,-89.73 270.56,-64.33 286.33,-46.96"/>
<polygon fill="red" stroke="red" stroke-width="0.36" points="288.91,-49.33 293.04,-39.57 283.72,-44.63 288.91,-49.33"/>
</g>
<!-- &#45;8 -->
<g id="node8" class="node">
<title>&#45;8</title>
<polygon fill="lightgray" stroke="black" points="121.61,-121.62 98.11,-121.62 98.11,-103.12 121.61,-103.12 121.61,-121.62"/>
<text xml:space="preserve" text-anchor="middle" x="109.86" y="-109.07" font-family="Times New Roman,serif" font-size="9.00">&#45;8</text>
</g>
<!-- &#45;8&#45;&gt;results -->
<g id="edge22" class="edge">
<title>&#45;8&#45;&gt;results</title>
<path fill="none" stroke="red" stroke-width="0.21" stroke-dasharray="1,5" d="M113.99,-102.84C118.65,-93.21 126.52,-76.95 133.71,-62.12"/>
<polygon fill="red" stroke="red" stroke-width="0.21" points="136.71,-63.95 137.92,-53.42 130.41,-60.9 136.71,-63.95"/>
</g>
<!-- &#45;8&#45;&gt;2 -->
<g id="edge23" class="edge">
<title>&#45;8&#45;&gt;2</title>
<path fill="none" stroke="red" stroke-width="0.13" d="M118.12,-102.87C121.86,-99.21 126.44,-94.97 130.86,-91.51 154.15,-73.26 162.03,-71.59 186.86,-55.51 193.63,-51.12 201.01,-46.32 207.62,-42"/>
<polygon fill="red" stroke="red" stroke-width="0.13" points="209.4,-45.01 215.86,-36.61 205.58,-39.16 209.4,-45.01"/>
</g>
<!-- 390&#45;&gt;results -->
<g id="edge25" class="edge">
<title>390&#45;&gt;results</title>
<path fill="none" stroke="red" stroke-width="0.85" d="M38.26,-100.23C58.41,-87.32 92.07,-65.77 117.16,-49.7"/>
<polygon fill="red" stroke="red" stroke-width="0.85" points="119.03,-52.66 125.56,-44.32 115.25,-46.76 119.03,-52.66"/>
</g>
<!-- 558&#45;&gt;1 -->
<g id="edge27" class="edge">
<title>558&#45;&gt;1</title>
<path fill="none" stroke="red" stroke-width="0.23" d="M497.18,-101.03C491.67,-97.9 485.55,-94.49 479.86,-91.51 442.63,-71.99 398.38,-51.11 372.29,-39.03"/>
<polygon fill="red" stroke="red" stroke-width="0.23" points="373.78,-35.86 363.24,-34.85 370.85,-42.22 373.78,-35.86"/>
</g>
</g>
</svg>
