<?xml version="1.0" encoding="UTF-8" standalone="no"?>
<!DOCTYPE svg PUBLIC "-//W3C//DTD SVG 1.1//EN"
 "http://www.w3.org/Graphics/SVG/1.1/DTD/svg11.dtd">
<!-- Generated by graphviz version 14.0.2 (20251019.1705)
 -->
<!-- Pages: 1 -->
<svg width="1747pt" height="279pt"
 viewBox="0.00 0.00 1747.00 279.00" xmlns="http://www.w3.org/2000/svg" xmlns:xlink="http://www.w3.org/1999/xlink">
<g id="graph0" class="graph" transform="scale(1 1) rotate(0) translate(4 274.75)">
<polygon fill="white" stroke="none" points="-4,4 -4,-274.75 1742.95,-274.75 1742.95,4 -4,4"/>
<!-- &#45;1 -->
<g id="node1" class="node">
<title>&#45;1</title>
<polygon fill="lightgray" stroke="black" points="812.66,-201.46 789.16,-201.46 789.16,-182.96 812.66,-182.96 812.66,-201.46"/>
<text xml:space="preserve" text-anchor="middle" x="800.91" y="-188.91" font-family="Times New Roman,serif" font-size="9.00">&#45;1</text>
</g>
<!-- 0 -->
<g id="node25" class="node">
<title>0</title>
<ellipse fill="lightblue" stroke="black" cx="928.91" cy="-108.12" rx="14.5" ry="14.5"/>
<text xml:space="preserve" text-anchor="middle" x="928.91" y="-104.82" font-family="Times New Roman,serif" font-size="9.00">0</text>
</g>
<!-- &#45;1&#45;&gt;0 -->
<g id="edge1" class="edge">
<title>&#45;1&#45;&gt;0</title>
<path fill="none" stroke="green" stroke-width="0.39" d="M807.7,-182.46C811.55,-177.86 816.64,-172.32 821.91,-168.17 848.49,-147.2 883.5,-129.43 906.11,-119.02"/>
<polygon fill="green" stroke="green" stroke-width="0.39" points="907.34,-122.31 915.02,-115.01 904.46,-115.93 907.34,-122.31"/>
</g>
<!-- 1 -->
<g id="node26" class="node">
<title>1</title>
<ellipse fill="lightblue" stroke="black" cx="1204.91" cy="-108.12" rx="14.5" ry="14.5"/>
<text xml:space="preserve" text-anchor="middle" x="1204.91" y="-104.82" font-family="Times New Roman,serif" font-size="9.00">1</text>
</g>
<!-- &#45;1&#45;&gt;1 -->
<g id="edge2" class="edge">
<title>&#45;1&#45;&gt;1</title>
<path fill="none" stroke="green" stroke-width="0.21" stroke-dasharray="1,5" d="M806.49,-182.6C810.23,-177.56 815.61,-171.54 821.91,-168.17 884.78,-134.45 1106.32,-116.08 1180.5,-110.77"/>
<polygon fill="green" stroke="green" stroke-width="0.21" points="1180.3,-114.29 1190.03,-110.1 1179.81,-107.31 1180.3,-114.29"/>
</g>
<!-- 2 -->
<g id="node27" class="node">
<title>2</title>
<ellipse fill="lightblue" stroke="black" cx="439.91" cy="-108.12" rx="14.5" ry="14.5"/>
<text xml:space="preserve" text-anchor="middle" x="439.91" y="-104.82" font-family="Times New Roman,serif" font-size="9.00">2</text>
</g>
<!-- &#45;1&#45;&gt;2 -->
<g id="edge3" class="edge">
<title>&#45;1&#45;&gt;2</title>
<path fill="none" stroke="red" stroke-width="1.16" stroke-dasharray="1,5" d="M795.31,-182.65C791.56,-177.62 786.17,-171.6 779.91,-168.17 752.29,-153.01 540.54,-122.9 465.87,-112.64"/>
<polygon fill="red" stroke="red" stroke-width="1.16" points="466.47,-109.19 456.09,-111.31 465.52,-116.13 466.47,-109.19"/>
</g>
<!-- 3 -->
<g id="node28" class="node">
<title>3</title>
<ellipse fill="lightblue" stroke="black" cx="656.91" cy="-108.12" rx="14.5" ry="14.5"/>
<text xml:space="preserve" text-anchor="middle" x="656.91" y="-104.82" font-family="Times New Roman,serif" font-size="9.00">3</text>
</g>
<!-- &#45;1&#45;&gt;3 -->
<g id="edge4" class="edge">
<title>&#45;1&#45;&gt;3</title>
<path fill="none" stroke="green" stroke-width="0.13" stroke-dasharray="1,5" d="M794.58,-182.79C790.72,-178.06 785.47,-172.3 779.91,-168.17 748.37,-144.7 706.03,-126.85 680.14,-117.19"/>
<polygon fill="green" stroke="green" stroke-width="0.13" points="681.56,-113.98 670.96,-113.85 679.16,-120.56 681.56,-113.98"/>
</g>
<!-- &#45;2 -->
<g id="node2" class="node">
<title>&#45;2</title>
<polygon fill="lightgray" stroke="black" points="1076.66,-201.46 1053.16,-201.46 1053.16,-182.96 1076.66,-182.96 1076.66,-201.46"/>
<text xml:space="preserve" text-anchor="middle" x="1064.91" y="-188.91" font-family="Times New Roman,serif" font-size="9.00">&#45;2</text>
</g>
<!-- &#45;2&#45;&gt;0 -->
<g id="edge5" class="edge">
<title>&#45;2&#45;&gt;0</title>
<path fill="none" stroke="red" stroke-width="2.69" d="M1058.54,-182.84C1054.66,-178.14 1049.41,-172.38 1043.91,-168.17 1016.19,-146.96 979.72,-129.74 955.36,-119.48"/>
<polygon fill="red" stroke="red" stroke-width="2.69" points="956.92,-116.33 946.33,-115.8 954.27,-122.82 956.92,-116.33"/>
</g>
<!-- &#45;2&#45;&gt;1 -->
<g id="edge6" class="edge">
<title>&#45;2&#45;&gt;1</title>
<path fill="none" stroke="red" stroke-width="0.21" stroke-dasharray="1,5" d="M1076.85,-184.21C1100.59,-170.29 1154.03,-138.95 1183.83,-121.48"/>
<polygon fill="red" stroke="red" stroke-width="0.21" points="1185.48,-124.58 1192.33,-116.5 1181.94,-118.54 1185.48,-124.58"/>
</g>
<!-- &#45;2&#45;&gt;3 -->
<g id="edge7" class="edge">
<title>&#45;2&#45;&gt;3</title>
<path fill="none" stroke="green" stroke-width="0.18" stroke-dasharray="1,5" d="M1059.33,-182.6C1055.59,-177.56 1050.21,-171.54 1043.91,-168.17 980.38,-134.15 756.53,-115.98 681.57,-110.74"/>
<polygon fill="green" stroke="green" stroke-width="0.18" points="682.12,-107.27 671.91,-110.08 681.65,-114.25 682.12,-107.27"/>
</g>
<!-- &#45;3 -->
<g id="node3" class="node">
<title>&#45;3</title>
<polygon fill="lightgray" stroke="black" points="1320.66,-201.46 1297.16,-201.46 1297.16,-182.96 1320.66,-182.96 1320.66,-201.46"/>
<text xml:space="preserve" text-anchor="middle" x="1308.91" y="-188.91" font-family="Times New Roman,serif" font-size="9.00">&#45;3</text>
</g>
<!-- &#45;3&#45;&gt;0 -->
<g id="edge8" class="edge">
<title>&#45;3&#45;&gt;0</title>
<path fill="none" stroke="red" stroke-width="0.44" d="M1303.32,-182.63C1299.57,-177.59 1294.19,-171.58 1287.91,-168.17 1229.55,-136.49 1024.9,-117.02 953.61,-111.07"/>
<polygon fill="red" stroke="red" stroke-width="0.44" points="954.28,-107.62 944.03,-110.29 953.71,-114.59 954.28,-107.62"/>
</g>
<!-- &#45;3&#45;&gt;1 -->
<g id="edge9" class="edge">
<title>&#45;3&#45;&gt;1</title>
<path fill="none" stroke="green" stroke-width="1.13" stroke-dasharray="1,5" d="M1301.92,-182.7C1298.02,-178.16 1292.93,-172.62 1287.91,-168.17 1268.51,-150.98 1244.11,-134.12 1226.8,-122.84"/>
<polygon fill="green" stroke="green" stroke-width="1.13" points="1228.8,-119.96 1218.49,-117.51 1225.02,-125.86 1228.8,-119.96"/>
</g>
<!-- &#45;4 -->
<g id="node4" class="node">
<title>&#45;4</title>
<polygon fill="lightgray" stroke="black" points="356.66,-201.46 333.16,-201.46 333.16,-182.96 356.66,-182.96 356.66,-201.46"/>
<text xml:space="preserve" text-anchor="middle" x="344.91" y="-188.91" font-family="Times New Roman,serif" font-size="9.00">&#45;4</text>
</g>
<!-- &#45;4&#45;&gt;0 -->
<g id="edge10" class="edge">
<title>&#45;4&#45;&gt;0</title>
<path fill="none" stroke="green" stroke-width="0.31" d="M356.81,-185.5C368.52,-180.13 387.04,-172.33 403.91,-168.17 452.95,-156.05 806.3,-121.07 903.96,-111.55"/>
<polygon fill="green" stroke="green" stroke-width="0.31" points="904.25,-115.03 913.86,-110.58 903.57,-108.07 904.25,-115.03"/>
</g>
<!-- &#45;4&#45;&gt;2 -->
<g id="edge11" class="edge">
<title>&#45;4&#45;&gt;2</title>
<path fill="none" stroke="green" stroke-width="0.42" d="M354.5,-182.63C359.4,-178.28 365.45,-172.92 370.91,-168.17 387.84,-153.42 407.3,-136.8 421.22,-124.97"/>
<polygon fill="green" stroke="green" stroke-width="0.42" points="423.27,-127.82 428.62,-118.68 418.74,-122.48 423.27,-127.82"/>
</g>
<!-- &#45;5 -->
<g id="node5" class="node">
<title>&#45;5</title>
<polygon fill="lightgray" stroke="black" points="1362.66,-201.46 1339.16,-201.46 1339.16,-182.96 1362.66,-182.96 1362.66,-201.46"/>
<text xml:space="preserve" text-anchor="middle" x="1350.91" y="-188.91" font-family="Times New Roman,serif" font-size="9.00">&#45;5</text>
</g>
<!-- &#45;5&#45;&gt;0 -->
<g id="edge12" class="edge">
<title>&#45;5&#45;&gt;0</title>
<path fill="none" stroke="red" stroke-width="1.25" d="M1345.34,-182.59C1341.6,-177.54 1336.22,-171.52 1329.91,-168.17 1264.29,-133.26 1033.93,-115.76 955.38,-110.71"/>
<polygon fill="red" stroke="red" stroke-width="1.25" points="955.81,-107.23 945.61,-110.1 955.38,-114.21 955.81,-107.23"/>
</g>
<!-- &#45;5&#45;&gt;1 -->
<g id="edge13" class="edge">
<title>&#45;5&#45;&gt;1</title>
<path fill="none" stroke="red" stroke-width="0.28" d="M1344.59,-182.78C1340.73,-178.04 1335.48,-172.28 1329.91,-168.17 1297.71,-144.36 1254.38,-126.51 1228.11,-116.96"/>
<polygon fill="red" stroke="red" stroke-width="0.28" points="1229.62,-113.78 1219.02,-113.74 1227.28,-120.38 1229.62,-113.78"/>
</g>
<!-- &#45;6 -->
<g id="node6" class="node">
<title>&#45;6</title>
<polygon fill="lightgray" stroke="black" points="678.66,-201.46 655.16,-201.46 655.16,-182.96 678.66,-182.96 678.66,-201.46"/>
<text xml:space="preserve" text-anchor="middle" x="666.91" y="-188.91" font-family="Times New Roman,serif" font-size="9.00">&#45;6</text>
</g>
<!-- &#45;6&#45;&gt;0 -->
<g id="edge14" class="edge">
<title>&#45;6&#45;&gt;0</title>
<path fill="none" stroke="red" stroke-width="0.15" stroke-dasharray="1,5" d="M672.59,-182.8C676.38,-177.83 681.77,-171.82 687.91,-168.17 758.74,-126.1 858.23,-113.93 904.04,-110.47"/>
<polygon fill="red" stroke="red" stroke-width="0.15" points="904.27,-113.96 914.01,-109.8 903.79,-106.98 904.27,-113.96"/>
</g>
<!-- &#45;6&#45;&gt;1 -->
<g id="edge15" class="edge">
<title>&#45;6&#45;&gt;1</title>
<path fill="none" stroke="red" stroke-width="0.41" d="M672.44,-182.52C676.16,-177.44 681.55,-171.42 687.91,-168.17 710.13,-156.8 1079.23,-121.06 1179.78,-111.5"/>
<polygon fill="red" stroke="red" stroke-width="0.41" points="1179.93,-115 1189.56,-110.57 1179.27,-108.03 1179.93,-115"/>
</g>
<!-- &#45;6&#45;&gt;2 -->
<g id="edge16" class="edge">
<title>&#45;6&#45;&gt;2</title>
<path fill="none" stroke="red" stroke-width="1.1" d="M654.75,-186.32C642.86,-181.57 624.2,-174.21 607.91,-168.17 557.05,-149.31 496.99,-128.56 464.23,-117.38"/>
<polygon fill="red" stroke="red" stroke-width="1.1" points="465.64,-114.16 455.05,-114.25 463.38,-120.79 465.64,-114.16"/>
</g>
<!-- &#45;6&#45;&gt;3 -->
<g id="edge17" class="edge">
<title>&#45;6&#45;&gt;3</title>
<path fill="none" stroke="green" stroke-width="0.21" stroke-dasharray="1,5" d="M665.88,-182.73C664.46,-171.11 661.86,-149.75 659.82,-133.02"/>
<polygon fill="green" stroke="green" stroke-width="0.21" points="663.3,-132.67 658.62,-123.17 656.36,-133.52 663.3,-132.67"/>
</g>
<!-- &#45;7 -->
<g id="node7" class="node">
<title>&#45;7</title>
<polygon fill="lightgray" stroke="black" points="42.66,-201.46 19.16,-201.46 19.16,-182.96 42.66,-182.96 42.66,-201.46"/>
<text xml:space="preserve" text-anchor="middle" x="30.91" y="-188.91" font-family="Times New Roman,serif" font-size="9.00">&#45;7</text>
</g>
<!-- &#45;7&#45;&gt;2 -->
<g id="edge18" class="edge">
<title>&#45;7&#45;&gt;2</title>
<path fill="none" stroke="red" stroke-width="0.28" stroke-dasharray="1,5" d="M38.23,-182.61C43.02,-177.57 49.7,-171.55 56.91,-168.17 121.35,-137.9 341,-117.33 415.19,-111.1"/>
<polygon fill="red" stroke="red" stroke-width="0.28" points="415.33,-114.6 425.01,-110.29 414.76,-107.63 415.33,-114.6"/>
</g>
<!-- &#45;8 -->
<g id="node8" class="node">
<title>&#45;8</title>
<polygon fill="lightgray" stroke="black" points="1156.66,-201.46 1133.16,-201.46 1133.16,-182.96 1156.66,-182.96 1156.66,-201.46"/>
<text xml:space="preserve" text-anchor="middle" x="1144.91" y="-188.91" font-family="Times New Roman,serif" font-size="9.00">&#45;8</text>
</g>
<!-- &#45;8&#45;&gt;1 -->
<g id="edge19" class="edge">
<title>&#45;8&#45;&gt;1</title>
<path fill="none" stroke="green" stroke-width="0.25" stroke-dasharray="1,5" d="M1151.1,-182.73C1160.33,-170.11 1177.95,-146 1190.52,-128.82"/>
<polygon fill="green" stroke="green" stroke-width="0.25" points="1193.25,-131 1196.33,-120.86 1187.6,-126.87 1193.25,-131"/>
</g>
<!-- &#45;8&#45;&gt;3 -->
<g id="edge20" class="edge">
<title>&#45;8&#45;&gt;3</title>
<path fill="none" stroke="red" stroke-width="0.4" d="M1132.98,-185.59C1121.26,-180.29 1102.72,-172.54 1085.91,-168.17 935.63,-129.06 748.58,-114.63 681.92,-110.51"/>
<polygon fill="red" stroke="red" stroke-width="0.4" points="682.39,-107.03 672.2,-109.93 681.98,-114.02 682.39,-107.03"/>
</g>
<!-- &#45;9 -->
<g id="node9" class="node">
<title>&#45;9</title>
<polygon fill="lightgray" stroke="black" points="134.66,-270.75 111.16,-270.75 111.16,-252.25 134.66,-252.25 134.66,-270.75"/>
<text xml:space="preserve" text-anchor="middle" x="122.91" y="-258.2" font-family="Times New Roman,serif" font-size="9.00">&#45;9</text>
</g>
<!-- &#45;9&#45;&gt;0 -->
<g id="edge21" class="edge">
<title>&#45;9&#45;&gt;0</title>
<path fill="none" stroke="red" stroke-width="0.7" d="M134.95,-260.11C228.41,-257.05 835.41,-236.45 867.91,-216.25 883.78,-206.38 906.4,-160.1 919.16,-131.7"/>
<polygon fill="red" stroke="red" stroke-width="0.7" points="922.26,-133.33 923.1,-122.77 915.86,-130.5 922.26,-133.33"/>
</g>
<!-- &#45;9&#45;&gt;1 -->
<g id="edge22" class="edge">
<title>&#45;9&#45;&gt;1</title>
<path fill="none" stroke="red" stroke-width="0.13" stroke-dasharray="1,5" d="M134.81,-260.13C262.04,-256.23 1366.23,-222.13 1371.91,-216.25 1386.75,-200.87 1384.25,-185.62 1371.91,-168.17 1339.29,-122.04 1267.47,-111.71 1229.53,-109.55"/>
<polygon fill="red" stroke="red" stroke-width="0.13" points="1230.12,-106.08 1219.98,-109.15 1229.82,-113.07 1230.12,-106.08"/>
</g>
<!-- &#45;9&#45;&gt;2 -->
<g id="edge23" class="edge">
<title>&#45;9&#45;&gt;2</title>
<path fill="none" stroke="red" stroke-width="0.19" d="M110.66,-259.94C86.51,-258.1 33.07,-250.19 9.91,-216.25 -2.14,-198.6 -4.14,-184.27 9.91,-168.17 36.8,-137.33 327.62,-116.32 415.14,-110.66"/>
<polygon fill="red" stroke="red" stroke-width="0.19" points="415.17,-114.16 424.93,-110.03 414.73,-107.18 415.17,-114.16"/>
</g>
<!-- &#45;9&#45;&gt;3 -->
<g id="edge24" class="edge">
<title>&#45;9&#45;&gt;3</title>
<path fill="none" stroke="green" stroke-width="0.31" d="M114.87,-252C99.06,-234.29 67.36,-192.99 89.91,-168.17 117.9,-137.34 421.51,-136.62 462.91,-132.17 523.73,-125.62 595.13,-116.86 632.03,-112.26"/>
<polygon fill="green" stroke="green" stroke-width="0.31" points="632.37,-115.74 641.86,-111.03 631.5,-108.8 632.37,-115.74"/>
</g>
<!-- 1984 -->
<g id="node29" class="node">
<title>1984</title>
<ellipse fill="white" stroke="black" cx="122.91" cy="-192.21" rx="24.04" ry="24.04"/>
<text xml:space="preserve" text-anchor="middle" x="122.91" y="-188.91" font-family="Times New Roman,serif" font-size="9.00">1984</text>
</g>
<!-- &#45;9&#45;&gt;1984 -->
<g id="edge69" class="edge">
<title>&#45;9&#45;&gt;1984</title>
<path fill="none" stroke="green" stroke-width="0.39" d="M122.91,-251.98C122.91,-245.55 122.91,-236.29 122.91,-227.01"/>
<polygon fill="green" stroke="green" stroke-width="0.39" points="126.41,-227.28 122.91,-217.28 119.41,-227.28 126.41,-227.28"/>
</g>
<!-- &#45;10 -->
<g id="node10" class="node">
<title>&#45;10</title>
<polygon fill="lightgray" stroke="black" points="427.91,-270.75 399.91,-270.75 399.91,-252.25 427.91,-252.25 427.91,-270.75"/>
<text xml:space="preserve" text-anchor="middle" x="413.91" y="-258.2" font-family="Times New Roman,serif" font-size="9.00">&#45;10</text>
</g>
<!-- &#45;10&#45;&gt;0 -->
<g id="edge25" class="edge">
<title>&#45;10&#45;&gt;0</title>
<path fill="none" stroke="green" stroke-width="1.12" d="M428.33,-260.1C523.9,-257.41 1062.61,-241.13 1085.91,-216.25 1100.52,-200.65 1098.07,-185.74 1085.91,-168.17 1056.25,-125.33 991.37,-113.53 954.98,-110.31"/>
<polygon fill="green" stroke="green" stroke-width="1.12" points="955.32,-106.82 945.1,-109.61 954.83,-113.81 955.32,-106.82"/>
</g>
<!-- &#45;10&#45;&gt;1 -->
<g id="edge26" class="edge">
<title>&#45;10&#45;&gt;1</title>
<path fill="none" stroke="red" stroke-width="0.22" stroke-dasharray="1,5" d="M428.03,-260.14C547.65,-257.05 1387.22,-234.74 1404.91,-216.25 1419.68,-200.81 1417.7,-185.28 1404.91,-168.17 1383.7,-139.79 1278.04,-120.3 1229.44,-112.69"/>
<polygon fill="red" stroke="red" stroke-width="0.22" points="1230.2,-109.26 1219.79,-111.22 1229.14,-116.18 1230.2,-109.26"/>
</g>
<!-- &#45;10&#45;&gt;3 -->
<g id="edge27" class="edge">
<title>&#45;10&#45;&gt;3</title>
<path fill="none" stroke="green" stroke-width="0.6" stroke-dasharray="1,5" d="M409.41,-252.01C400.73,-234.31 384.17,-193.05 403.91,-168.17 432.17,-132.55 572.83,-116.41 631.33,-111.16"/>
<polygon fill="green" stroke="green" stroke-width="0.6" points="631.61,-114.65 641.27,-110.31 631.01,-107.68 631.61,-114.65"/>
</g>
<!-- &#45;10&#45;&gt;1984 -->
<g id="edge80" class="edge">
<title>&#45;10&#45;&gt;1984</title>
<path fill="none" stroke="red" stroke-width="0.13" d="M399.43,-259.84C359.95,-257.64 247.53,-248.77 160.91,-216.25 157.63,-215.02 154.32,-213.5 151.1,-211.84"/>
<polygon fill="red" stroke="red" stroke-width="0.13" points="152.92,-208.84 142.49,-206.97 149.47,-214.94 152.92,-208.84"/>
</g>
<!-- &#45;11 -->
<g id="node11" class="node">
<title>&#45;11</title>
<polygon fill="lightgray" stroke="black" points="598.91,-201.46 570.91,-201.46 570.91,-182.96 598.91,-182.96 598.91,-201.46"/>
<text xml:space="preserve" text-anchor="middle" x="584.91" y="-188.91" font-family="Times New Roman,serif" font-size="9.00">&#45;11</text>
</g>
<!-- &#45;11&#45;&gt;0 -->
<g id="edge28" class="edge">
<title>&#45;11&#45;&gt;0</title>
<path fill="none" stroke="red" stroke-width="0.18" d="M599.24,-185.07C611.47,-180.01 629.61,-172.92 645.91,-168.17 739.76,-140.83 854.62,-120.91 904.19,-112.95"/>
<polygon fill="red" stroke="red" stroke-width="0.18" points="904.68,-116.42 914.01,-111.39 903.58,-109.5 904.68,-116.42"/>
</g>
<!-- &#45;11&#45;&gt;1 -->
<g id="edge29" class="edge">
<title>&#45;11&#45;&gt;1</title>
<path fill="none" stroke="red" stroke-width="0.19" d="M599.13,-184.65C611.28,-179.33 629.39,-172.09 645.91,-168.17 698.47,-155.68 1078.39,-120.62 1179.98,-111.38"/>
<polygon fill="red" stroke="red" stroke-width="0.19" points="1180.27,-114.87 1189.91,-110.48 1179.64,-107.9 1180.27,-114.87"/>
</g>
<!-- &#45;11&#45;&gt;2 -->
<g id="edge30" class="edge">
<title>&#45;11&#45;&gt;2</title>
<path fill="none" stroke="red" stroke-width="0.42" d="M577.83,-182.83C573.55,-178.12 567.8,-172.36 561.91,-168.17 530.37,-145.72 488.99,-127.74 463.44,-117.76"/>
<polygon fill="red" stroke="red" stroke-width="0.42" points="464.71,-114.5 454.12,-114.21 462.22,-121.04 464.71,-114.5"/>
</g>
<!-- &#45;11&#45;&gt;3 -->
<g id="edge31" class="edge">
<title>&#45;11&#45;&gt;3</title>
<path fill="none" stroke="green" stroke-width="0.17" d="M592.34,-182.73C603.81,-169.66 626.07,-144.29 641.21,-127.03"/>
<polygon fill="green" stroke="green" stroke-width="0.17" points="643.46,-129.76 647.43,-119.93 638.2,-125.14 643.46,-129.76"/>
</g>
<!-- 3511 -->
<g id="node33" class="node">
<title>3511</title>
<ellipse fill="white" stroke="black" cx="776.91" cy="-24.04" rx="24.04" ry="24.04"/>
<text xml:space="preserve" text-anchor="middle" x="776.91" y="-20.74" font-family="Times New Roman,serif" font-size="9.00">3511</text>
</g>
<!-- &#45;11&#45;&gt;3511 -->
<g id="edge75" class="edge">
<title>&#45;11&#45;&gt;3511</title>
<path fill="none" stroke="red" stroke-width="0.29" stroke-dasharray="1,5" d="M586.56,-182.75C590.85,-162.87 604.16,-112.74 633.91,-84.08 664.32,-54.79 711.32,-39.21 743.06,-31.54"/>
<polygon fill="red" stroke="red" stroke-width="0.29" points="743.79,-34.97 752.76,-29.34 742.24,-28.14 743.79,-34.97"/>
</g>
<!-- &#45;12 -->
<g id="node12" class="node">
<title>&#45;12</title>
<polygon fill="lightgray" stroke="black" points="724.91,-201.46 696.91,-201.46 696.91,-182.96 724.91,-182.96 724.91,-201.46"/>
<text xml:space="preserve" text-anchor="middle" x="710.91" y="-188.91" font-family="Times New Roman,serif" font-size="9.00">&#45;12</text>
</g>
<!-- &#45;12&#45;&gt;1 -->
<g id="edge32" class="edge">
<title>&#45;12&#45;&gt;1</title>
<path fill="none" stroke="green" stroke-width="0.61" d="M717.15,-182.54C721.3,-177.47 727.21,-171.45 733.91,-168.17 774.23,-148.41 1087.28,-119.5 1179.46,-111.34"/>
<polygon fill="green" stroke="green" stroke-width="0.61" points="1179.68,-114.83 1189.34,-110.47 1179.07,-107.86 1179.68,-114.83"/>
</g>
<!-- &#45;12&#45;&gt;2 -->
<g id="edge33" class="edge">
<title>&#45;12&#45;&gt;2</title>
<path fill="none" stroke="green" stroke-width="0.41" d="M704.53,-182.79C700.33,-177.82 694.42,-171.81 687.91,-168.17 613.86,-126.75 511.65,-114.25 464.98,-110.59"/>
<polygon fill="green" stroke="green" stroke-width="0.41" points="465.45,-107.11 455.22,-109.9 464.95,-114.1 465.45,-107.11"/>
</g>
<!-- &#45;13 -->
<g id="node13" class="node">
<title>&#45;13</title>
<polygon fill="lightgray" stroke="black" points="770.91,-201.46 742.91,-201.46 742.91,-182.96 770.91,-182.96 770.91,-201.46"/>
<text xml:space="preserve" text-anchor="middle" x="756.91" y="-188.91" font-family="Times New Roman,serif" font-size="9.00">&#45;13</text>
</g>
<!-- &#45;13&#45;&gt;0 -->
<g id="edge34" class="edge">
<title>&#45;13&#45;&gt;0</title>
<path fill="none" stroke="green" stroke-width="1.7" d="M763.88,-182.67C768.11,-177.9 773.86,-172.14 779.91,-168.17 819.37,-142.21 872.01,-124.72 903,-115.88"/>
<polygon fill="green" stroke="green" stroke-width="1.7" points="903.66,-119.33 912.37,-113.3 901.8,-112.58 903.66,-119.33"/>
</g>
<!-- &#45;13&#45;&gt;1 -->
<g id="edge35" class="edge">
<title>&#45;13&#45;&gt;1</title>
<path fill="none" stroke="red" stroke-width="0.41" stroke-dasharray="1,5" d="M763.17,-182.57C767.32,-177.52 773.23,-171.49 779.91,-168.17 815.96,-150.21 1094.47,-120.45 1180,-111.65"/>
<polygon fill="red" stroke="red" stroke-width="0.41" points="1180.12,-115.16 1189.71,-110.66 1179.4,-108.19 1180.12,-115.16"/>
</g>
<!-- &#45;13&#45;&gt;2 -->
<g id="edge36" class="edge">
<title>&#45;13&#45;&gt;2</title>
<path fill="none" stroke="red" stroke-width="0.27" d="M750.58,-182.71C746.39,-177.71 740.48,-171.69 733.91,-168.17 686.84,-142.93 526.36,-120.22 464.5,-112.2"/>
<polygon fill="red" stroke="red" stroke-width="0.27" points="465.24,-108.76 454.88,-110.97 464.35,-115.71 465.24,-108.76"/>
</g>
<!-- &#45;13&#45;&gt;3 -->
<g id="edge37" class="edge">
<title>&#45;13&#45;&gt;3</title>
<path fill="none" stroke="green" stroke-width="0.22" d="M749.07,-182.83C744.74,-178.34 739.18,-172.79 733.91,-168.17 715.21,-151.76 692.47,-134.64 676.56,-123.08"/>
<polygon fill="green" stroke="green" stroke-width="0.22" points="678.93,-120.48 668.77,-117.47 674.84,-126.16 678.93,-120.48"/>
</g>
<!-- &#45;14 -->
<g id="node14" class="node">
<title>&#45;14</title>
<polygon fill="lightgray" stroke="black" points="858.91,-201.46 830.91,-201.46 830.91,-182.96 858.91,-182.96 858.91,-201.46"/>
<text xml:space="preserve" text-anchor="middle" x="844.91" y="-188.91" font-family="Times New Roman,serif" font-size="9.00">&#45;14</text>
</g>
<!-- &#45;14&#45;&gt;0 -->
<g id="edge38" class="edge">
<title>&#45;14&#45;&gt;0</title>
<path fill="none" stroke="green" stroke-width="0.26" stroke-dasharray="1,5" d="M853.58,-182.73C867.18,-169.45 893.77,-143.46 911.45,-126.19"/>
<polygon fill="green" stroke="green" stroke-width="0.26" points="913.87,-128.72 918.57,-119.22 908.98,-123.71 913.87,-128.72"/>
</g>
<!-- &#45;14&#45;&gt;3 -->
<g id="edge76" class="edge">
<title>&#45;14&#45;&gt;3</title>
<path fill="none" stroke="red" stroke-width="0.16" stroke-dasharray="1,5" d="M837.99,-182.59C833.77,-177.8 828.02,-172.04 821.91,-168.17 776.23,-139.21 714.43,-122 680.92,-114.18"/>
<polygon fill="red" stroke="red" stroke-width="0.16" points="681.86,-110.81 671.33,-112.03 680.32,-117.64 681.86,-110.81"/>
</g>
<!-- &#45;15 -->
<g id="node15" class="node">
<title>&#45;15</title>
<polygon fill="lightgray" stroke="black" points="1407.91,-270.75 1379.91,-270.75 1379.91,-252.25 1407.91,-252.25 1407.91,-270.75"/>
<text xml:space="preserve" text-anchor="middle" x="1393.91" y="-258.2" font-family="Times New Roman,serif" font-size="9.00">&#45;15</text>
</g>
<!-- &#45;15&#45;&gt;0 -->
<g id="edge39" class="edge">
<title>&#45;15&#45;&gt;0</title>
<path fill="none" stroke="green" stroke-width="3.43" d="M1379.73,-258.44C1351.91,-253.96 1288.79,-241.64 1241.91,-216.25 1213.06,-200.63 1215.19,-182.95 1185.91,-168.17 1109.71,-129.68 1008.16,-115.94 958.62,-111.31"/>
<polygon fill="green" stroke="green" stroke-width="3.43" points="959.09,-107.84 948.83,-110.48 958.5,-114.81 959.09,-107.84"/>
</g>
<!-- &#45;15&#45;&gt;1 -->
<g id="edge40" class="edge">
<title>&#45;15&#45;&gt;1</title>
<path fill="none" stroke="red" stroke-width="0.12" d="M1408.07,-260.27C1456.37,-259.15 1613.32,-252.73 1643.91,-216.25 1657.64,-199.87 1657.98,-184.25 1643.91,-168.17 1630.08,-152.35 1319.73,-120.49 1229.38,-111.52"/>
<polygon fill="red" stroke="red" stroke-width="0.12" points="1229.96,-108.06 1219.66,-110.56 1229.27,-115.03 1229.96,-108.06"/>
</g>
<!-- &#45;15&#45;&gt;2 -->
<g id="edge41" class="edge">
<title>&#45;15&#45;&gt;2</title>
<path fill="none" stroke="red" stroke-width="0.18" stroke-dasharray="1,5" d="M1379.49,-260.23C1247.48,-257.7 252.82,-237.98 231.91,-216.25 217.09,-200.85 219.03,-185.22 231.91,-168.17 254.21,-138.66 365.4,-119.6 415.44,-112.38"/>
<polygon fill="red" stroke="red" stroke-width="0.18" points="415.72,-115.88 425.14,-111.02 414.75,-108.94 415.72,-115.88"/>
</g>
<!-- &#45;15&#45;&gt;3 -->
<g id="edge42" class="edge">
<title>&#45;15&#45;&gt;3</title>
<path fill="none" stroke="red" stroke-width="0.18" d="M1379.52,-260.2C1277.94,-258.04 672.06,-244 645.91,-216.25 624.38,-193.41 635.82,-154.46 646.24,-130.35"/>
<polygon fill="red" stroke="red" stroke-width="0.18" points="649.29,-132.11 650.29,-121.56 642.93,-129.18 649.29,-132.11"/>
</g>
<!-- 6946 -->
<g id="node30" class="node">
<title>6946</title>
<ellipse fill="white" stroke="black" cx="1714.91" cy="-192.21" rx="24.04" ry="24.04"/>
<text xml:space="preserve" text-anchor="middle" x="1714.91" y="-188.91" font-family="Times New Roman,serif" font-size="9.00">6946</text>
</g>
<!-- &#45;15&#45;&gt;6946 -->
<g id="edge83" class="edge">
<title>&#45;15&#45;&gt;6946</title>
<path fill="none" stroke="green" stroke-width="0.29" d="M1408.23,-260.21C1450.61,-258.93 1578.58,-252.15 1676.91,-216.25 1680.1,-215.09 1683.31,-213.64 1686.45,-212.05"/>
<polygon fill="green" stroke="green" stroke-width="0.29" points="1688.15,-215.11 1695.15,-207.16 1684.72,-209 1688.15,-215.11"/>
</g>
<!-- 2477 -->
<g id="node31" class="node">
<title>2477</title>
<ellipse fill="white" stroke="black" cx="1564.91" cy="-192.21" rx="24.04" ry="24.04"/>
<text xml:space="preserve" text-anchor="middle" x="1564.91" y="-188.91" font-family="Times New Roman,serif" font-size="9.00">2477</text>
</g>
<!-- &#45;15&#45;&gt;2477 -->
<g id="edge71" class="edge">
<title>&#45;15&#45;&gt;2477</title>
<path fill="none" stroke="green" stroke-width="0.47" stroke-dasharray="1,5" d="M1408.16,-257.42C1433.81,-251.57 1489.07,-237.47 1531.91,-216.25 1533.74,-215.34 1535.58,-214.34 1537.41,-213.28"/>
<polygon fill="green" stroke="green" stroke-width="0.47" points="1539.15,-216.32 1545.72,-208.01 1535.4,-210.41 1539.15,-216.32"/>
</g>
<!-- &#45;16 -->
<g id="node16" class="node">
<title>&#45;16</title>
<polygon fill="lightgray" stroke="black" points="268.91,-201.46 240.91,-201.46 240.91,-182.96 268.91,-182.96 268.91,-201.46"/>
<text xml:space="preserve" text-anchor="middle" x="254.91" y="-188.91" font-family="Times New Roman,serif" font-size="9.00">&#45;16</text>
</g>
<!-- &#45;16&#45;&gt;0 -->
<g id="edge43" class="edge">
<title>&#45;16&#45;&gt;0</title>
<path fill="none" stroke="green" stroke-width="0.25" d="M260.74,-182.91C264.89,-177.72 270.95,-171.43 277.91,-168.17 359.14,-130.14 590.59,-140.3 679.91,-132.17 762.02,-124.69 859.33,-115.63 904.11,-111.44"/>
<polygon fill="green" stroke="green" stroke-width="0.25" points="904.31,-114.94 913.94,-110.53 903.65,-107.97 904.31,-114.94"/>
</g>
<!-- &#45;16&#45;&gt;2 -->
<g id="edge73" class="edge">
<title>&#45;16&#45;&gt;2</title>
<path fill="none" stroke="green" stroke-width="0.16" d="M261.83,-182.61C266.06,-177.82 271.81,-172.06 277.91,-168.17 322.54,-139.69 382.82,-122.38 415.83,-114.4"/>
<polygon fill="green" stroke="green" stroke-width="0.16" points="416.36,-117.87 425.3,-112.19 414.77,-111.05 416.36,-117.87"/>
</g>
<!-- &#45;17 -->
<g id="node17" class="node">
<title>&#45;17</title>
<polygon fill="lightgray" stroke="black" points="1034.91,-201.46 1006.91,-201.46 1006.91,-182.96 1034.91,-182.96 1034.91,-201.46"/>
<text xml:space="preserve" text-anchor="middle" x="1020.91" y="-188.91" font-family="Times New Roman,serif" font-size="9.00">&#45;17</text>
</g>
<!-- &#45;17&#45;&gt;1 -->
<g id="edge44" class="edge">
<title>&#45;17&#45;&gt;1</title>
<path fill="none" stroke="red" stroke-width="0.2" d="M1027.84,-182.61C1032.06,-177.82 1037.81,-172.06 1043.91,-168.17 1088.27,-139.8 1148.18,-122.45 1180.98,-114.43"/>
<polygon fill="red" stroke="red" stroke-width="0.2" points="1181.41,-117.93 1190.34,-112.22 1179.8,-111.11 1181.41,-117.93"/>
</g>
<!-- &#45;17&#45;&gt;3 -->
<g id="edge45" class="edge">
<title>&#45;17&#45;&gt;3</title>
<path fill="none" stroke="green" stroke-width="0.11" d="M1014.61,-182.65C1010.44,-177.62 1004.53,-171.6 997.91,-168.17 890.23,-112.26 740.26,-107.82 681.71,-108.43"/>
<polygon fill="green" stroke="green" stroke-width="0.11" points="681.98,-104.93 672.04,-108.59 682.09,-111.93 681.98,-104.93"/>
</g>
<!-- &#45;18 -->
<g id="node18" class="node">
<title>&#45;18</title>
<polygon fill="lightgray" stroke="black" points="314.91,-201.46 286.91,-201.46 286.91,-182.96 314.91,-182.96 314.91,-201.46"/>
<text xml:space="preserve" text-anchor="middle" x="300.91" y="-188.91" font-family="Times New Roman,serif" font-size="9.00">&#45;18</text>
</g>
<!-- &#45;18&#45;&gt;0 -->
<g id="edge46" class="edge">
<title>&#45;18&#45;&gt;0</title>
<path fill="none" stroke="green" stroke-width="0.18" d="M307.12,-182.47C311.26,-177.38 317.16,-171.36 323.91,-168.17 330.6,-165 790.93,-121.97 904.02,-111.44"/>
<polygon fill="green" stroke="green" stroke-width="0.18" points="904.23,-114.94 913.87,-110.52 903.58,-107.97 904.23,-114.94"/>
</g>
<!-- &#45;18&#45;&gt;2 -->
<g id="edge47" class="edge">
<title>&#45;18&#45;&gt;2</title>
<path fill="none" stroke="green" stroke-width="0.48" stroke-dasharray="1,5" d="M308.02,-182.88C312.31,-178.18 318.06,-172.42 323.91,-168.17 353.68,-146.52 392.53,-128.52 416.85,-118.28"/>
<polygon fill="green" stroke="green" stroke-width="0.48" points="418.03,-121.59 425.95,-114.54 415.37,-115.11 418.03,-121.59"/>
</g>
<!-- &#45;18&#45;&gt;3 -->
<g id="edge48" class="edge">
<title>&#45;18&#45;&gt;3</title>
<path fill="none" stroke="red" stroke-width="0.13" d="M307.21,-182.66C311.39,-177.64 317.29,-171.62 323.91,-168.17 378.15,-139.87 564.76,-118.52 632.28,-111.55"/>
<polygon fill="red" stroke="red" stroke-width="0.13" points="632.61,-115.04 642.21,-110.55 631.9,-108.07 632.61,-115.04"/>
</g>
<!-- &#45;19 -->
<g id="node19" class="node">
<title>&#45;19</title>
<polygon fill="lightgray" stroke="black" points="1522.91,-201.46 1494.91,-201.46 1494.91,-182.96 1522.91,-182.96 1522.91,-201.46"/>
<text xml:space="preserve" text-anchor="middle" x="1508.91" y="-188.91" font-family="Times New Roman,serif" font-size="9.00">&#45;19</text>
</g>
<!-- &#45;19&#45;&gt;0 -->
<g id="edge49" class="edge">
<title>&#45;19&#45;&gt;0</title>
<path fill="none" stroke="green" stroke-width="0.55" stroke-dasharray="1,5" d="M1494.54,-188.62C1469.61,-184.18 1416.75,-174.92 1371.91,-168.17 1213.07,-144.23 1021.42,-120.4 953.91,-112.15"/>
<polygon fill="green" stroke="green" stroke-width="0.55" points="954.64,-108.72 944.29,-110.98 953.79,-115.66 954.64,-108.72"/>
</g>
<!-- &#45;19&#45;&gt;1 -->
<g id="edge50" class="edge">
<title>&#45;19&#45;&gt;1</title>
<path fill="none" stroke="red" stroke-width="0.24" d="M1500.83,-182.77C1495.6,-177.79 1488.39,-171.78 1480.91,-168.17 1394.96,-126.68 1280.03,-114.15 1229.97,-110.52"/>
<polygon fill="red" stroke="red" stroke-width="0.24" points="1230.34,-107.04 1220.13,-109.87 1229.88,-114.02 1230.34,-107.04"/>
</g>
<!-- 3645 -->
<g id="node35" class="node">
<title>3645</title>
<ellipse fill="white" stroke="black" cx="1508.91" cy="-108.12" rx="24.04" ry="24.04"/>
<text xml:space="preserve" text-anchor="middle" x="1508.91" y="-104.82" font-family="Times New Roman,serif" font-size="9.00">3645</text>
</g>
<!-- &#45;19&#45;&gt;3645 -->
<g id="edge85" class="edge">
<title>&#45;19&#45;&gt;3645</title>
<path fill="none" stroke="red" stroke-width="0.2" d="M1508.91,-182.73C1508.91,-173.31 1508.91,-157.48 1508.91,-142.92"/>
<polygon fill="red" stroke="red" stroke-width="0.2" points="1512.41,-142.94 1508.91,-132.94 1505.41,-142.94 1512.41,-142.94"/>
</g>
<!-- &#45;20 -->
<g id="node20" class="node">
<title>&#45;20</title>
<polygon fill="lightgray" stroke="black" points="942.91,-201.46 914.91,-201.46 914.91,-182.96 942.91,-182.96 942.91,-201.46"/>
<text xml:space="preserve" text-anchor="middle" x="928.91" y="-188.91" font-family="Times New Roman,serif" font-size="9.00">&#45;20</text>
</g>
<!-- &#45;20&#45;&gt;0 -->
<g id="edge51" class="edge">
<title>&#45;20&#45;&gt;0</title>
<path fill="none" stroke="red" stroke-width="0.13" stroke-dasharray="1,5" d="M928.91,-182.73C928.91,-171.11 928.91,-149.75 928.91,-133.02"/>
<polygon fill="red" stroke="red" stroke-width="0.13" points="932.41,-133.04 928.91,-123.04 925.41,-133.04 932.41,-133.04"/>
</g>
<!-- &#45;20&#45;&gt;1 -->
<g id="edge52" class="edge">
<title>&#45;20&#45;&gt;1</title>
<path fill="none" stroke="red" stroke-width="0.25" stroke-dasharray="1,5" d="M935.28,-182.78C939.48,-177.81 945.39,-171.79 951.91,-168.17 1027.8,-125.94 1132.67,-113.83 1179.98,-110.42"/>
<polygon fill="red" stroke="red" stroke-width="0.25" points="1180.08,-113.93 1189.83,-109.79 1179.62,-106.94 1180.08,-113.93"/>
</g>
<!-- &#45;20&#45;&gt;2 -->
<g id="edge53" class="edge">
<title>&#45;20&#45;&gt;2</title>
<path fill="none" stroke="green" stroke-width="0.13" d="M914.66,-184.78C902.48,-179.54 884.37,-172.35 867.91,-168.17 828.56,-158.16 549.63,-122.85 464.51,-112.19"/>
<polygon fill="green" stroke="green" stroke-width="0.13" points="465.03,-108.73 454.67,-110.96 464.16,-115.68 465.03,-108.73"/>
</g>
<!-- &#45;21 -->
<g id="node21" class="node">
<title>&#45;21</title>
<polygon fill="lightgray" stroke="black" points="988.91,-201.46 960.91,-201.46 960.91,-182.96 988.91,-182.96 988.91,-201.46"/>
<text xml:space="preserve" text-anchor="middle" x="974.91" y="-188.91" font-family="Times New Roman,serif" font-size="9.00">&#45;21</text>
</g>
<!-- &#45;21&#45;&gt;0 -->
<g id="edge54" class="edge">
<title>&#45;21&#45;&gt;0</title>
<path fill="none" stroke="green" stroke-width="0.16" d="M970.16,-182.73C963.26,-170.43 950.26,-147.23 940.69,-130.15"/>
<polygon fill="green" stroke="green" stroke-width="0.16" points="943.85,-128.62 935.9,-121.61 937.74,-132.04 943.85,-128.62"/>
</g>
<!-- &#45;21&#45;&gt;1 -->
<g id="edge55" class="edge">
<title>&#45;21&#45;&gt;1</title>
<path fill="none" stroke="red" stroke-width="0.26" stroke-dasharray="1,5" d="M981.34,-182.89C985.57,-177.96 991.48,-171.95 997.91,-168.17 1057.67,-132.99 1139.55,-117.79 1180.09,-112.09"/>
<polygon fill="red" stroke="red" stroke-width="0.26" points="1180.53,-115.56 1189.98,-110.77 1179.61,-108.62 1180.53,-115.56"/>
</g>
<!-- &#45;21&#45;&gt;3 -->
<g id="edge56" class="edge">
<title>&#45;21&#45;&gt;3</title>
<path fill="none" stroke="green" stroke-width="0.22" d="M968.58,-182.71C964.39,-177.71 958.49,-171.69 951.91,-168.17 861,-119.46 734.83,-110.76 681.87,-109.33"/>
<polygon fill="green" stroke="green" stroke-width="0.22" points="682.13,-105.84 672.06,-109.13 681.99,-112.84 682.13,-105.84"/>
</g>
<!-- &#45;22 -->
<g id="node22" class="node">
<title>&#45;22</title>
<polygon fill="lightgray" stroke="black" points="1278.91,-201.46 1250.91,-201.46 1250.91,-182.96 1278.91,-182.96 1278.91,-201.46"/>
<text xml:space="preserve" text-anchor="middle" x="1264.91" y="-188.91" font-family="Times New Roman,serif" font-size="9.00">&#45;22</text>
</g>
<!-- &#45;22&#45;&gt;0 -->
<g id="edge57" class="edge">
<title>&#45;22&#45;&gt;0</title>
<path fill="none" stroke="red" stroke-width="0.13" stroke-dasharray="1,5" d="M1256.86,-182.71C1251.64,-177.71 1244.43,-171.7 1236.91,-168.17 1139.16,-122.27 1008,-112.05 953.87,-109.78"/>
<polygon fill="red" stroke="red" stroke-width="0.13" points="954.13,-106.28 944.01,-109.42 953.88,-113.28 954.13,-106.28"/>
</g>
<!-- &#45;22&#45;&gt;1 -->
<g id="edge58" class="edge">
<title>&#45;22&#45;&gt;1</title>
<path fill="none" stroke="green" stroke-width="0.36" stroke-dasharray="1,5" d="M1258.71,-182.73C1249.48,-170.11 1231.86,-146 1219.3,-128.82"/>
<polygon fill="green" stroke="green" stroke-width="0.36" points="1222.32,-127.01 1213.59,-121 1216.67,-131.14 1222.32,-127.01"/>
</g>
<!-- &#45;22&#45;&gt;3 -->
<g id="edge59" class="edge">
<title>&#45;22&#45;&gt;3</title>
<path fill="none" stroke="red" stroke-width="0.23" stroke-dasharray="1,5" d="M1250.59,-187.34C1231.43,-182.28 1196.34,-173.45 1165.91,-168.17 981.25,-136.07 755.79,-116.82 681.75,-111"/>
<polygon fill="red" stroke="red" stroke-width="0.23" points="682.16,-107.52 671.92,-110.24 681.62,-114.5 682.16,-107.52"/>
</g>
<!-- &#45;22&#45;&gt;3645 -->
<g id="edge78" class="edge">
<title>&#45;22&#45;&gt;3645</title>
<path fill="none" stroke="red" stroke-width="0.35" d="M1271.32,-182.85C1275.54,-177.91 1281.45,-171.9 1287.91,-168.17 1348.08,-133.42 1429.24,-118.59 1474.59,-112.68"/>
<polygon fill="red" stroke="red" stroke-width="0.35" points="1474.75,-116.19 1484.25,-111.49 1473.9,-109.24 1474.75,-116.19"/>
</g>
<!-- &#45;23 -->
<g id="node23" class="node">
<title>&#45;23</title>
<polygon fill="lightgray" stroke="black" points="1634.91,-201.46 1606.91,-201.46 1606.91,-182.96 1634.91,-182.96 1634.91,-201.46"/>
<text xml:space="preserve" text-anchor="middle" x="1620.91" y="-188.91" font-family="Times New Roman,serif" font-size="9.00">&#45;23</text>
</g>
<!-- &#45;23&#45;&gt;0 -->
<g id="edge60" class="edge">
<title>&#45;23&#45;&gt;0</title>
<path fill="none" stroke="red" stroke-width="0.45" d="M1615.08,-182.91C1610.93,-177.71 1604.88,-171.42 1597.91,-168.17 1513.81,-128.95 1274.34,-140.37 1181.91,-132.17 1098.45,-124.76 999.54,-115.66 954.07,-111.45"/>
<polygon fill="red" stroke="red" stroke-width="0.45" points="954.4,-107.97 944.12,-110.53 953.76,-114.94 954.4,-107.97"/>
</g>
<!-- &#45;23&#45;&gt;1 -->
<g id="edge61" class="edge">
<title>&#45;23&#45;&gt;1</title>
<path fill="none" stroke="red" stroke-width="0.31" d="M1614.64,-182.59C1610.48,-177.55 1604.57,-171.53 1597.91,-168.17 1532.46,-135.11 1304.78,-116.24 1229.38,-110.79"/>
<polygon fill="red" stroke="red" stroke-width="0.31" points="1230.09,-107.34 1219.87,-110.12 1229.59,-114.32 1230.09,-107.34"/>
</g>
<!-- &#45;23&#45;&gt;3645 -->
<g id="edge77" class="edge">
<title>&#45;23&#45;&gt;3645</title>
<path fill="none" stroke="red" stroke-width="0.26" stroke-dasharray="1,5" d="M1613.2,-182.69C1608.9,-178.15 1603.33,-172.61 1597.91,-168.17 1579.09,-152.76 1556.2,-137.65 1538.34,-126.57"/>
<polygon fill="red" stroke="red" stroke-width="0.26" points="1540.2,-123.6 1529.85,-121.36 1536.55,-129.57 1540.2,-123.6"/>
</g>
<!-- &#45;24 -->
<g id="node24" class="node">
<title>&#45;24</title>
<polygon fill="lightgray" stroke="black" points="850.91,-270.75 822.91,-270.75 822.91,-252.25 850.91,-252.25 850.91,-270.75"/>
<text xml:space="preserve" text-anchor="middle" x="836.91" y="-258.2" font-family="Times New Roman,serif" font-size="9.00">&#45;24</text>
</g>
<!-- &#45;24&#45;&gt;0 -->
<g id="edge62" class="edge">
<title>&#45;24&#45;&gt;0</title>
<path fill="none" stroke="green" stroke-width="0.49" stroke-dasharray="1,5" d="M851.33,-260.93C909.26,-262.34 1123.99,-264.19 1165.91,-216.25 1228.69,-144.46 1026.57,-118.21 953.91,-111.22"/>
<polygon fill="green" stroke="green" stroke-width="0.49" points="954.43,-107.76 944.16,-110.33 953.79,-114.73 954.43,-107.76"/>
</g>
<!-- &#45;24&#45;&gt;1 -->
<g id="edge68" class="edge">
<title>&#45;24&#45;&gt;1</title>
<path fill="none" stroke="red" stroke-width="0.33" d="M851.36,-260.59C939.39,-260.99 1401.34,-260.96 1442.91,-216.25 1508.2,-146.01 1302.88,-118.69 1229.76,-111.33"/>
<polygon fill="red" stroke="red" stroke-width="0.33" points="1230.39,-107.88 1220.1,-110.4 1229.72,-114.85 1230.39,-107.88"/>
</g>
<!-- &#45;24&#45;&gt;2 -->
<g id="edge63" class="edge">
<title>&#45;24&#45;&gt;2</title>
<path fill="none" stroke="green" stroke-width="0.14" stroke-dasharray="1,5" d="M822.62,-260.06C730.29,-257.12 220.95,-239.87 198.91,-216.25 132.52,-145.09 342.5,-118.25 415.7,-111.19"/>
<polygon fill="green" stroke="green" stroke-width="0.14" points="415.61,-114.71 425.25,-110.3 414.97,-107.74 415.61,-114.71"/>
</g>
<!-- &#45;24&#45;&gt;3 -->
<g id="edge64" class="edge">
<title>&#45;24&#45;&gt;3</title>
<path fill="none" stroke="green" stroke-width="0.57" d="M822.49,-260.93C764.56,-262.34 549.83,-264.19 507.91,-216.25 493.84,-200.16 495.9,-185.84 507.91,-168.17 535.73,-127.22 596.83,-114.67 631.53,-110.83"/>
<polygon fill="green" stroke="green" stroke-width="0.57" points="631.71,-114.32 641.34,-109.91 631.05,-107.35 631.71,-114.32"/>
</g>
<!-- &#45;24&#45;&gt;2477 -->
<g id="edge74" class="edge">
<title>&#45;24&#45;&gt;2477</title>
<path fill="none" stroke="green" stroke-width="0.13" stroke-dasharray="1,5" d="M851.16,-260.63C938.29,-261.28 1399.81,-262.47 1531.91,-216.25 1534,-215.52 1536.08,-214.62 1538.11,-213.59"/>
<polygon fill="green" stroke="green" stroke-width="0.13" points="1539.7,-216.72 1546.53,-208.62 1536.14,-210.69 1539.7,-216.72"/>
</g>
<!-- 6937 -->
<g id="node32" class="node">
<title>6937</title>
<ellipse fill="white" stroke="black" cx="436.91" cy="-192.21" rx="24.04" ry="24.04"/>
<text xml:space="preserve" text-anchor="middle" x="436.91" y="-188.91" font-family="Times New Roman,serif" font-size="9.00">6937</text>
</g>
<!-- &#45;24&#45;&gt;6937 -->
<g id="edge81" class="edge">
<title>&#45;24&#45;&gt;6937</title>
<path fill="none" stroke="green" stroke-width="0.27" d="M822.62,-260.87C773.01,-261.74 604.14,-261 474.91,-216.25 471.6,-215.1 468.27,-213.64 465.03,-212.01"/>
<polygon fill="green" stroke="green" stroke-width="0.27" points="467.03,-209.11 456.59,-207.28 463.61,-215.22 467.03,-209.11"/>
</g>
<!-- 0&#45;&gt;3511 -->
<g id="edge79" class="edge">
<title>0&#45;&gt;3511</title>
<path fill="none" stroke="red" stroke-width="0.87" d="M916.21,-100.27C892.54,-87.49 841.08,-59.7 807.77,-41.7"/>
<polygon fill="red" stroke="red" stroke-width="0.87" points="809.68,-38.76 799.22,-37.09 806.35,-44.92 809.68,-38.76"/>
</g>
<!-- 1984&#45;&gt;3 -->
<g id="edge70" class="edge">
<title>1984&#45;&gt;3</title>
<path fill="none" stroke="green" stroke-width="0.24" d="M146.21,-185.79C168.21,-180.78 202.19,-173.37 231.91,-168.17 383.13,-141.71 566.29,-119.59 631.98,-111.97"/>
<polygon fill="green" stroke="green" stroke-width="0.24" points="632.28,-115.46 641.81,-110.83 631.48,-108.5 632.28,-115.46"/>
</g>
<!-- 6946&#45;&gt;1 -->
<g id="edge84" class="edge">
<title>6946&#45;&gt;1</title>
<path fill="none" stroke="green" stroke-width="0.42" d="M1695.58,-177.34C1689.82,-173.82 1683.32,-170.4 1676.91,-168.17 1592.83,-138.92 1315.62,-117.06 1230.19,-110.89"/>
<polygon fill="green" stroke="green" stroke-width="0.42" points="1230.52,-107.4 1220.3,-110.18 1230.02,-114.38 1230.52,-107.4"/>
</g>
<!-- 2477&#45;&gt;1 -->
<g id="edge72" class="edge">
<title>2477&#45;&gt;1</title>
<path fill="none" stroke="red" stroke-width="0.24" stroke-dasharray="1,5" d="M1546.53,-176.32C1541.97,-173.22 1536.94,-170.26 1531.91,-168.17 1425.29,-123.83 1285.5,-112.73 1229.58,-110"/>
<polygon fill="red" stroke="red" stroke-width="0.24" points="1230.06,-106.52 1219.92,-109.57 1229.75,-113.51 1230.06,-106.52"/>
</g>
<!-- 6937&#45;&gt;3 -->
<g id="edge82" class="edge">
<title>6937&#45;&gt;3</title>
<path fill="none" stroke="green" stroke-width="0.35" d="M456.55,-178.11C462.32,-174.6 468.74,-170.99 474.91,-168.17 529.38,-143.23 597.43,-124.12 632.89,-115.01"/>
<polygon fill="green" stroke="green" stroke-width="0.35" points="633.45,-118.48 642.28,-112.64 631.73,-111.69 633.45,-118.48"/>
</g>
<!-- 57 -->
<g id="node34" class="node">
<title>57</title>
<ellipse fill="white" stroke="black" cx="534.91" cy="-192.21" rx="17.68" ry="17.68"/>
<text xml:space="preserve" text-anchor="middle" x="534.91" y="-188.91" font-family="Times New Roman,serif" font-size="9.00">57</text>
</g>
<!-- 57&#45;&gt;1 -->
<g id="edge65" class="edge">
<title>57&#45;&gt;1</title>
<path fill="none" stroke="red" stroke-width="0.21" d="M546.71,-178.39C551.08,-174.44 556.34,-170.51 561.91,-168.17 562.82,-167.78 1062.01,-122.18 1180.09,-111.39"/>
<polygon fill="red" stroke="red" stroke-width="0.21" points="1180.34,-114.88 1189.98,-110.49 1179.7,-107.91 1180.34,-114.88"/>
</g>
<!-- 57&#45;&gt;2 -->
<g id="edge66" class="edge">
<title>57&#45;&gt;2</title>
<path fill="none" stroke="red" stroke-width="0.26" d="M521.7,-179.79C505.25,-165.58 477.06,-141.23 458.45,-125.15"/>
<polygon fill="red" stroke="red" stroke-width="0.26" points="460.81,-122.56 450.95,-118.67 456.23,-127.85 460.81,-122.56"/>
</g>
<!-- 57&#45;&gt;3 -->
<g id="edge67" class="edge">
<title>57&#45;&gt;3</title>
<path fill="none" stroke="red" stroke-width="0.14" d="M547.77,-179.55C552.14,-175.77 557.13,-171.66 561.91,-168.17 586.29,-150.34 616.12,-132.38 635.77,-121.03"/>
<polygon fill="red" stroke="red" stroke-width="0.14" points="637.4,-124.13 644.35,-116.12 633.93,-118.05 637.4,-124.13"/>
</g>
</g>
</svg>
