<?xml version="1.0" encoding="utf-8" standalone="no"?>
<!DOCTYPE svg PUBLIC "-//W3C//DTD SVG 1.1//EN"
  "http://www.w3.org/Graphics/SVG/1.1/DTD/svg11.dtd">
<svg xmlns:xlink="http://www.w3.org/1999/xlink" width="460.8pt" height="345.6pt" viewBox="0 0 460.8 345.6" xmlns="http://www.w3.org/2000/svg" version="1.1">
 <metadata>
  <rdf:RDF xmlns:dc="http://purl.org/dc/elements/1.1/" xmlns:cc="http://creativecommons.org/ns#" xmlns:rdf="http://www.w3.org/1999/02/22-rdf-syntax-ns#">
   <cc:Work>
    <dc:type rdf:resource="http://purl.org/dc/dcmitype/StillImage"/>
    <dc:date>2025-10-24T06:21:11.619913</dc:date>
    <dc:format>image/svg+xml</dc:format>
    <dc:creator>
     <cc:Agent>
      <dc:title>Matplotlib v3.10.7, https://matplotlib.org/</dc:title>
     </cc:Agent>
    </dc:creator>
   </cc:Work>
  </rdf:RDF>
 </metadata>
 <defs>
  <style type="text/css">*{stroke-linejoin: round; stroke-linecap: butt}</style>
 </defs>
 <g id="figure_1">
  <g id="patch_1">
   <path d="M 0 345.6 
L 460.8 345.6 
L 460.8 0 
L 0 0 
z
" style="fill: #ffffff"/>
  </g>
  <g id="axes_1">
   <g id="patch_2">
    <path d="M 57.6 307.584 
L 414.72 307.584 
L 414.72 41.472 
L 57.6 41.472 
z
" style="fill: #ffffff"/>
   </g>
   <g id="matplotlib.axis_1">
    <g id="xtick_1">
     <g id="line2d_1">
      <path d="M 73.832727 307.584 
L 73.832727 41.472 
" clip-path="url(#p5b48d74133)" style="fill: none; stroke: #b0b0b0; stroke-width: 0.8; stroke-linecap: square"/>
     </g>
     <g id="line2d_2">
      <defs>
       <path id="m548637baee" d="M 0 0 
L 0 3.5 
" style="stroke: #000000; stroke-width: 0.8"/>
      </defs>
      <g>
       <use xlink:href="#m548637baee" x="73.832727" y="307.584" style="stroke: #000000; stroke-width: 0.8"/>
      </g>
     </g>
     <g id="text_1">
      <!-- 0 -->
      <g transform="translate(70.651477 322.182437) scale(0.1 -0.1)">
       <defs>
        <path id="DejaVuSans-30" d="M 2034 4250 
Q 1547 4250 1301 3770 
Q 1056 3291 1056 2328 
Q 1056 1369 1301 889 
Q 1547 409 2034 409 
Q 2525 409 2770 889 
Q 3016 1369 3016 2328 
Q 3016 3291 2770 3770 
Q 2525 4250 2034 4250 
z
M 2034 4750 
Q 2819 4750 3233 4129 
Q 3647 3509 3647 2328 
Q 3647 1150 3233 529 
Q 2819 -91 2034 -91 
Q 1250 -91 836 529 
Q 422 1150 422 2328 
Q 422 3509 836 4129 
Q 1250 4750 2034 4750 
z
" transform="scale(0.015625)"/>
       </defs>
       <use xlink:href="#DejaVuSans-30"/>
      </g>
     </g>
    </g>
    <g id="xtick_2">
     <g id="line2d_3">
      <path d="M 114.618474 307.584 
L 114.618474 41.472 
" clip-path="url(#p5b48d74133)" style="fill: none; stroke: #b0b0b0; stroke-width: 0.8; stroke-linecap: square"/>
     </g>
     <g id="line2d_4">
      <g>
       <use xlink:href="#m548637baee" x="114.618474" y="307.584" style="stroke: #000000; stroke-width: 0.8"/>
      </g>
     </g>
     <g id="text_2">
      <!-- 25 -->
      <g transform="translate(108.255974 322.182437) scale(0.1 -0.1)">
       <defs>
        <path id="DejaVuSans-32" d="M 1228 531 
L 3431 531 
L 3431 0 
L 469 0 
L 469 531 
Q 828 903 1448 1529 
Q 2069 2156 2228 2338 
Q 2531 2678 2651 2914 
Q 2772 3150 2772 3378 
Q 2772 3750 2511 3984 
Q 2250 4219 1831 4219 
Q 1534 4219 1204 4116 
Q 875 4013 500 3803 
L 500 4441 
Q 881 4594 1212 4672 
Q 1544 4750 1819 4750 
Q 2544 4750 2975 4387 
Q 3406 4025 3406 3419 
Q 3406 3131 3298 2873 
Q 3191 2616 2906 2266 
Q 2828 2175 2409 1742 
Q 1991 1309 1228 531 
z
" transform="scale(0.015625)"/>
        <path id="DejaVuSans-35" d="M 691 4666 
L 3169 4666 
L 3169 4134 
L 1269 4134 
L 1269 2991 
Q 1406 3038 1543 3061 
Q 1681 3084 1819 3084 
Q 2600 3084 3056 2656 
Q 3513 2228 3513 1497 
Q 3513 744 3044 326 
Q 2575 -91 1722 -91 
Q 1428 -91 1123 -41 
Q 819 9 494 109 
L 494 744 
Q 775 591 1075 516 
Q 1375 441 1709 441 
Q 2250 441 2565 725 
Q 2881 1009 2881 1497 
Q 2881 1984 2565 2268 
Q 2250 2553 1709 2553 
Q 1456 2553 1204 2497 
Q 953 2441 691 2322 
L 691 4666 
z
" transform="scale(0.015625)"/>
       </defs>
       <use xlink:href="#DejaVuSans-32"/>
       <use xlink:href="#DejaVuSans-35" transform="translate(63.623047 0)"/>
      </g>
     </g>
    </g>
    <g id="xtick_3">
     <g id="line2d_5">
      <path d="M 155.404221 307.584 
L 155.404221 41.472 
" clip-path="url(#p5b48d74133)" style="fill: none; stroke: #b0b0b0; stroke-width: 0.8; stroke-linecap: square"/>
     </g>
     <g id="line2d_6">
      <g>
       <use xlink:href="#m548637baee" x="155.404221" y="307.584" style="stroke: #000000; stroke-width: 0.8"/>
      </g>
     </g>
     <g id="text_3">
      <!-- 50 -->
      <g transform="translate(149.041721 322.182437) scale(0.1 -0.1)">
       <use xlink:href="#DejaVuSans-35"/>
       <use xlink:href="#DejaVuSans-30" transform="translate(63.623047 0)"/>
      </g>
     </g>
    </g>
    <g id="xtick_4">
     <g id="line2d_7">
      <path d="M 196.189968 307.584 
L 196.189968 41.472 
" clip-path="url(#p5b48d74133)" style="fill: none; stroke: #b0b0b0; stroke-width: 0.8; stroke-linecap: square"/>
     </g>
     <g id="line2d_8">
      <g>
       <use xlink:href="#m548637baee" x="196.189968" y="307.584" style="stroke: #000000; stroke-width: 0.8"/>
      </g>
     </g>
     <g id="text_4">
      <!-- 75 -->
      <g transform="translate(189.827468 322.182437) scale(0.1 -0.1)">
       <defs>
        <path id="DejaVuSans-37" d="M 525 4666 
L 3525 4666 
L 3525 4397 
L 1831 0 
L 1172 0 
L 2766 4134 
L 525 4134 
L 525 4666 
z
" transform="scale(0.015625)"/>
       </defs>
       <use xlink:href="#DejaVuSans-37"/>
       <use xlink:href="#DejaVuSans-35" transform="translate(63.623047 0)"/>
      </g>
     </g>
    </g>
    <g id="xtick_5">
     <g id="line2d_9">
      <path d="M 236.975715 307.584 
L 236.975715 41.472 
" clip-path="url(#p5b48d74133)" style="fill: none; stroke: #b0b0b0; stroke-width: 0.8; stroke-linecap: square"/>
     </g>
     <g id="line2d_10">
      <g>
       <use xlink:href="#m548637baee" x="236.975715" y="307.584" style="stroke: #000000; stroke-width: 0.8"/>
      </g>
     </g>
     <g id="text_5">
      <!-- 100 -->
      <g transform="translate(227.431965 322.182437) scale(0.1 -0.1)">
       <defs>
        <path id="DejaVuSans-31" d="M 794 531 
L 1825 531 
L 1825 4091 
L 703 3866 
L 703 4441 
L 1819 4666 
L 2450 4666 
L 2450 531 
L 3481 531 
L 3481 0 
L 794 0 
L 794 531 
z
" transform="scale(0.015625)"/>
       </defs>
       <use xlink:href="#DejaVuSans-31"/>
       <use xlink:href="#DejaVuSans-30" transform="translate(63.623047 0)"/>
       <use xlink:href="#DejaVuSans-30" transform="translate(127.246094 0)"/>
      </g>
     </g>
    </g>
    <g id="xtick_6">
     <g id="line2d_11">
      <path d="M 277.761462 307.584 
L 277.761462 41.472 
" clip-path="url(#p5b48d74133)" style="fill: none; stroke: #b0b0b0; stroke-width: 0.8; stroke-linecap: square"/>
     </g>
     <g id="line2d_12">
      <g>
       <use xlink:href="#m548637baee" x="277.761462" y="307.584" style="stroke: #000000; stroke-width: 0.8"/>
      </g>
     </g>
     <g id="text_6">
      <!-- 125 -->
      <g transform="translate(268.217712 322.182437) scale(0.1 -0.1)">
       <use xlink:href="#DejaVuSans-31"/>
       <use xlink:href="#DejaVuSans-32" transform="translate(63.623047 0)"/>
       <use xlink:href="#DejaVuSans-35" transform="translate(127.246094 0)"/>
      </g>
     </g>
    </g>
    <g id="xtick_7">
     <g id="line2d_13">
      <path d="M 318.547209 307.584 
L 318.547209 41.472 
" clip-path="url(#p5b48d74133)" style="fill: none; stroke: #b0b0b0; stroke-width: 0.8; stroke-linecap: square"/>
     </g>
     <g id="line2d_14">
      <g>
       <use xlink:href="#m548637baee" x="318.547209" y="307.584" style="stroke: #000000; stroke-width: 0.8"/>
      </g>
     </g>
     <g id="text_7">
      <!-- 150 -->
      <g transform="translate(309.003459 322.182437) scale(0.1 -0.1)">
       <use xlink:href="#DejaVuSans-31"/>
       <use xlink:href="#DejaVuSans-35" transform="translate(63.623047 0)"/>
       <use xlink:href="#DejaVuSans-30" transform="translate(127.246094 0)"/>
      </g>
     </g>
    </g>
    <g id="xtick_8">
     <g id="line2d_15">
      <path d="M 359.332956 307.584 
L 359.332956 41.472 
" clip-path="url(#p5b48d74133)" style="fill: none; stroke: #b0b0b0; stroke-width: 0.8; stroke-linecap: square"/>
     </g>
     <g id="line2d_16">
      <g>
       <use xlink:href="#m548637baee" x="359.332956" y="307.584" style="stroke: #000000; stroke-width: 0.8"/>
      </g>
     </g>
     <g id="text_8">
      <!-- 175 -->
      <g transform="translate(349.789206 322.182437) scale(0.1 -0.1)">
       <use xlink:href="#DejaVuSans-31"/>
       <use xlink:href="#DejaVuSans-37" transform="translate(63.623047 0)"/>
       <use xlink:href="#DejaVuSans-35" transform="translate(127.246094 0)"/>
      </g>
     </g>
    </g>
    <g id="xtick_9">
     <g id="line2d_17">
      <path d="M 400.118703 307.584 
L 400.118703 41.472 
" clip-path="url(#p5b48d74133)" style="fill: none; stroke: #b0b0b0; stroke-width: 0.8; stroke-linecap: square"/>
     </g>
     <g id="line2d_18">
      <g>
       <use xlink:href="#m548637baee" x="400.118703" y="307.584" style="stroke: #000000; stroke-width: 0.8"/>
      </g>
     </g>
     <g id="text_9">
      <!-- 200 -->
      <g transform="translate(390.574953 322.182437) scale(0.1 -0.1)">
       <use xlink:href="#DejaVuSans-32"/>
       <use xlink:href="#DejaVuSans-30" transform="translate(63.623047 0)"/>
       <use xlink:href="#DejaVuSans-30" transform="translate(127.246094 0)"/>
      </g>
     </g>
    </g>
    <g id="text_10">
     <!-- Generations -->
     <g transform="translate(205.662344 335.860562) scale(0.1 -0.1)">
      <defs>
       <path id="DejaVuSans-47" d="M 3809 666 
L 3809 1919 
L 2778 1919 
L 2778 2438 
L 4434 2438 
L 4434 434 
Q 4069 175 3628 42 
Q 3188 -91 2688 -91 
Q 1594 -91 976 548 
Q 359 1188 359 2328 
Q 359 3472 976 4111 
Q 1594 4750 2688 4750 
Q 3144 4750 3555 4637 
Q 3966 4525 4313 4306 
L 4313 3634 
Q 3963 3931 3569 4081 
Q 3175 4231 2741 4231 
Q 1884 4231 1454 3753 
Q 1025 3275 1025 2328 
Q 1025 1384 1454 906 
Q 1884 428 2741 428 
Q 3075 428 3337 486 
Q 3600 544 3809 666 
z
" transform="scale(0.015625)"/>
       <path id="DejaVuSans-65" d="M 3597 1894 
L 3597 1613 
L 953 1613 
Q 991 1019 1311 708 
Q 1631 397 2203 397 
Q 2534 397 2845 478 
Q 3156 559 3463 722 
L 3463 178 
Q 3153 47 2828 -22 
Q 2503 -91 2169 -91 
Q 1331 -91 842 396 
Q 353 884 353 1716 
Q 353 2575 817 3079 
Q 1281 3584 2069 3584 
Q 2775 3584 3186 3129 
Q 3597 2675 3597 1894 
z
M 3022 2063 
Q 3016 2534 2758 2815 
Q 2500 3097 2075 3097 
Q 1594 3097 1305 2825 
Q 1016 2553 972 2059 
L 3022 2063 
z
" transform="scale(0.015625)"/>
       <path id="DejaVuSans-6e" d="M 3513 2113 
L 3513 0 
L 2938 0 
L 2938 2094 
Q 2938 2591 2744 2837 
Q 2550 3084 2163 3084 
Q 1697 3084 1428 2787 
Q 1159 2491 1159 1978 
L 1159 0 
L 581 0 
L 581 3500 
L 1159 3500 
L 1159 2956 
Q 1366 3272 1645 3428 
Q 1925 3584 2291 3584 
Q 2894 3584 3203 3211 
Q 3513 2838 3513 2113 
z
" transform="scale(0.015625)"/>
       <path id="DejaVuSans-72" d="M 2631 2963 
Q 2534 3019 2420 3045 
Q 2306 3072 2169 3072 
Q 1681 3072 1420 2755 
Q 1159 2438 1159 1844 
L 1159 0 
L 581 0 
L 581 3500 
L 1159 3500 
L 1159 2956 
Q 1341 3275 1631 3429 
Q 1922 3584 2338 3584 
Q 2397 3584 2469 3576 
Q 2541 3569 2628 3553 
L 2631 2963 
z
" transform="scale(0.015625)"/>
       <path id="DejaVuSans-61" d="M 2194 1759 
Q 1497 1759 1228 1600 
Q 959 1441 959 1056 
Q 959 750 1161 570 
Q 1363 391 1709 391 
Q 2188 391 2477 730 
Q 2766 1069 2766 1631 
L 2766 1759 
L 2194 1759 
z
M 3341 1997 
L 3341 0 
L 2766 0 
L 2766 531 
Q 2569 213 2275 61 
Q 1981 -91 1556 -91 
Q 1019 -91 701 211 
Q 384 513 384 1019 
Q 384 1609 779 1909 
Q 1175 2209 1959 2209 
L 2766 2209 
L 2766 2266 
Q 2766 2663 2505 2880 
Q 2244 3097 1772 3097 
Q 1472 3097 1187 3025 
Q 903 2953 641 2809 
L 641 3341 
Q 956 3463 1253 3523 
Q 1550 3584 1831 3584 
Q 2591 3584 2966 3190 
Q 3341 2797 3341 1997 
z
" transform="scale(0.015625)"/>
       <path id="DejaVuSans-74" d="M 1172 4494 
L 1172 3500 
L 2356 3500 
L 2356 3053 
L 1172 3053 
L 1172 1153 
Q 1172 725 1289 603 
Q 1406 481 1766 481 
L 2356 481 
L 2356 0 
L 1766 0 
Q 1100 0 847 248 
Q 594 497 594 1153 
L 594 3053 
L 172 3053 
L 172 3500 
L 594 3500 
L 594 4494 
L 1172 4494 
z
" transform="scale(0.015625)"/>
       <path id="DejaVuSans-69" d="M 603 3500 
L 1178 3500 
L 1178 0 
L 603 0 
L 603 3500 
z
M 603 4863 
L 1178 4863 
L 1178 4134 
L 603 4134 
L 603 4863 
z
" transform="scale(0.015625)"/>
       <path id="DejaVuSans-6f" d="M 1959 3097 
Q 1497 3097 1228 2736 
Q 959 2375 959 1747 
Q 959 1119 1226 758 
Q 1494 397 1959 397 
Q 2419 397 2687 759 
Q 2956 1122 2956 1747 
Q 2956 2369 2687 2733 
Q 2419 3097 1959 3097 
z
M 1959 3584 
Q 2709 3584 3137 3096 
Q 3566 2609 3566 1747 
Q 3566 888 3137 398 
Q 2709 -91 1959 -91 
Q 1206 -91 779 398 
Q 353 888 353 1747 
Q 353 2609 779 3096 
Q 1206 3584 1959 3584 
z
" transform="scale(0.015625)"/>
       <path id="DejaVuSans-73" d="M 2834 3397 
L 2834 2853 
Q 2591 2978 2328 3040 
Q 2066 3103 1784 3103 
Q 1356 3103 1142 2972 
Q 928 2841 928 2578 
Q 928 2378 1081 2264 
Q 1234 2150 1697 2047 
L 1894 2003 
Q 2506 1872 2764 1633 
Q 3022 1394 3022 966 
Q 3022 478 2636 193 
Q 2250 -91 1575 -91 
Q 1294 -91 989 -36 
Q 684 19 347 128 
L 347 722 
Q 666 556 975 473 
Q 1284 391 1588 391 
Q 1994 391 2212 530 
Q 2431 669 2431 922 
Q 2431 1156 2273 1281 
Q 2116 1406 1581 1522 
L 1381 1569 
Q 847 1681 609 1914 
Q 372 2147 372 2553 
Q 372 3047 722 3315 
Q 1072 3584 1716 3584 
Q 2034 3584 2315 3537 
Q 2597 3491 2834 3397 
z
" transform="scale(0.015625)"/>
      </defs>
      <use xlink:href="#DejaVuSans-47"/>
      <use xlink:href="#DejaVuSans-65" transform="translate(77.490234 0)"/>
      <use xlink:href="#DejaVuSans-6e" transform="translate(139.013672 0)"/>
      <use xlink:href="#DejaVuSans-65" transform="translate(202.392578 0)"/>
      <use xlink:href="#DejaVuSans-72" transform="translate(263.916016 0)"/>
      <use xlink:href="#DejaVuSans-61" transform="translate(305.029297 0)"/>
      <use xlink:href="#DejaVuSans-74" transform="translate(366.308594 0)"/>
      <use xlink:href="#DejaVuSans-69" transform="translate(405.517578 0)"/>
      <use xlink:href="#DejaVuSans-6f" transform="translate(433.300781 0)"/>
      <use xlink:href="#DejaVuSans-6e" transform="translate(494.482422 0)"/>
      <use xlink:href="#DejaVuSans-73" transform="translate(557.861328 0)"/>
     </g>
    </g>
   </g>
   <g id="matplotlib.axis_2">
    <g id="ytick_1">
     <g id="line2d_19">
      <path d="M 57.6 302.860081 
L 414.72 302.860081 
" clip-path="url(#p5b48d74133)" style="fill: none; stroke: #b0b0b0; stroke-width: 0.8; stroke-linecap: square"/>
     </g>
     <g id="line2d_20">
      <defs>
       <path id="mb1fc12b26e" d="M 0 0 
L -3.5 0 
" style="stroke: #000000; stroke-width: 0.8"/>
      </defs>
      <g>
       <use xlink:href="#mb1fc12b26e" x="57.6" y="302.860081" style="stroke: #000000; stroke-width: 0.8"/>
      </g>
     </g>
     <g id="text_11">
      <!-- −150 -->
      <g transform="translate(23.132812 306.6593) scale(0.1 -0.1)">
       <defs>
        <path id="DejaVuSans-2212" d="M 678 2272 
L 4684 2272 
L 4684 1741 
L 678 1741 
L 678 2272 
z
" transform="scale(0.015625)"/>
       </defs>
       <use xlink:href="#DejaVuSans-2212"/>
       <use xlink:href="#DejaVuSans-31" transform="translate(83.789062 0)"/>
       <use xlink:href="#DejaVuSans-35" transform="translate(147.412109 0)"/>
       <use xlink:href="#DejaVuSans-30" transform="translate(211.035156 0)"/>
      </g>
     </g>
    </g>
    <g id="ytick_2">
     <g id="line2d_21">
      <path d="M 57.6 253.40688 
L 414.72 253.40688 
" clip-path="url(#p5b48d74133)" style="fill: none; stroke: #b0b0b0; stroke-width: 0.8; stroke-linecap: square"/>
     </g>
     <g id="line2d_22">
      <g>
       <use xlink:href="#mb1fc12b26e" x="57.6" y="253.40688" style="stroke: #000000; stroke-width: 0.8"/>
      </g>
     </g>
     <g id="text_12">
      <!-- −100 -->
      <g transform="translate(23.132812 257.206098) scale(0.1 -0.1)">
       <use xlink:href="#DejaVuSans-2212"/>
       <use xlink:href="#DejaVuSans-31" transform="translate(83.789062 0)"/>
       <use xlink:href="#DejaVuSans-30" transform="translate(147.412109 0)"/>
       <use xlink:href="#DejaVuSans-30" transform="translate(211.035156 0)"/>
      </g>
     </g>
    </g>
    <g id="ytick_3">
     <g id="line2d_23">
      <path d="M 57.6 203.953678 
L 414.72 203.953678 
" clip-path="url(#p5b48d74133)" style="fill: none; stroke: #b0b0b0; stroke-width: 0.8; stroke-linecap: square"/>
     </g>
     <g id="line2d_24">
      <g>
       <use xlink:href="#mb1fc12b26e" x="57.6" y="203.953678" style="stroke: #000000; stroke-width: 0.8"/>
      </g>
     </g>
     <g id="text_13">
      <!-- −50 -->
      <g transform="translate(29.495313 207.752897) scale(0.1 -0.1)">
       <use xlink:href="#DejaVuSans-2212"/>
       <use xlink:href="#DejaVuSans-35" transform="translate(83.789062 0)"/>
       <use xlink:href="#DejaVuSans-30" transform="translate(147.412109 0)"/>
      </g>
     </g>
    </g>
    <g id="ytick_4">
     <g id="line2d_25">
      <path d="M 57.6 154.500476 
L 414.72 154.500476 
" clip-path="url(#p5b48d74133)" style="fill: none; stroke: #b0b0b0; stroke-width: 0.8; stroke-linecap: square"/>
     </g>
     <g id="line2d_26">
      <g>
       <use xlink:href="#mb1fc12b26e" x="57.6" y="154.500476" style="stroke: #000000; stroke-width: 0.8"/>
      </g>
     </g>
     <g id="text_14">
      <!-- 0 -->
      <g transform="translate(44.2375 158.299695) scale(0.1 -0.1)">
       <use xlink:href="#DejaVuSans-30"/>
      </g>
     </g>
    </g>
    <g id="ytick_5">
     <g id="line2d_27">
      <path d="M 57.6 105.047275 
L 414.72 105.047275 
" clip-path="url(#p5b48d74133)" style="fill: none; stroke: #b0b0b0; stroke-width: 0.8; stroke-linecap: square"/>
     </g>
     <g id="line2d_28">
      <g>
       <use xlink:href="#mb1fc12b26e" x="57.6" y="105.047275" style="stroke: #000000; stroke-width: 0.8"/>
      </g>
     </g>
     <g id="text_15">
      <!-- 50 -->
      <g transform="translate(37.875 108.846494) scale(0.1 -0.1)">
       <use xlink:href="#DejaVuSans-35"/>
       <use xlink:href="#DejaVuSans-30" transform="translate(63.623047 0)"/>
      </g>
     </g>
    </g>
    <g id="ytick_6">
     <g id="line2d_29">
      <path d="M 57.6 55.594073 
L 414.72 55.594073 
" clip-path="url(#p5b48d74133)" style="fill: none; stroke: #b0b0b0; stroke-width: 0.8; stroke-linecap: square"/>
     </g>
     <g id="line2d_30">
      <g>
       <use xlink:href="#mb1fc12b26e" x="57.6" y="55.594073" style="stroke: #000000; stroke-width: 0.8"/>
      </g>
     </g>
     <g id="text_16">
      <!-- 100 -->
      <g transform="translate(31.5125 59.393292) scale(0.1 -0.1)">
       <use xlink:href="#DejaVuSans-31"/>
       <use xlink:href="#DejaVuSans-30" transform="translate(63.623047 0)"/>
       <use xlink:href="#DejaVuSans-30" transform="translate(127.246094 0)"/>
      </g>
     </g>
    </g>
    <g id="text_17">
     <!-- Fitness -->
     <g transform="translate(17.053125 191.845187) rotate(-90) scale(0.1 -0.1)">
      <defs>
       <path id="DejaVuSans-46" d="M 628 4666 
L 3309 4666 
L 3309 4134 
L 1259 4134 
L 1259 2759 
L 3109 2759 
L 3109 2228 
L 1259 2228 
L 1259 0 
L 628 0 
L 628 4666 
z
" transform="scale(0.015625)"/>
      </defs>
      <use xlink:href="#DejaVuSans-46"/>
      <use xlink:href="#DejaVuSans-69" transform="translate(50.269531 0)"/>
      <use xlink:href="#DejaVuSans-74" transform="translate(78.052734 0)"/>
      <use xlink:href="#DejaVuSans-6e" transform="translate(117.261719 0)"/>
      <use xlink:href="#DejaVuSans-65" transform="translate(180.640625 0)"/>
      <use xlink:href="#DejaVuSans-73" transform="translate(242.164062 0)"/>
      <use xlink:href="#DejaVuSans-73" transform="translate(294.263672 0)"/>
     </g>
    </g>
   </g>
   <g id="line2d_31">
    <path d="M 73.832727 276.38248 
L 75.464157 273.281942 
L 77.095587 267.409836 
L 78.727017 268.774988 
L 80.358447 266.985275 
L 81.989877 264.100414 
L 83.621307 261.490513 
L 85.252736 258.248026 
L 86.884166 256.217221 
L 88.515596 252.19844 
L 90.147026 254.904712 
L 91.778456 251.173008 
L 93.409886 252.017841 
L 95.041316 250.220068 
L 96.672746 247.872541 
L 98.304175 249.206402 
L 99.935605 247.885265 
L 101.567035 243.462748 
L 103.198465 244.393132 
L 104.829895 241.001836 
L 106.461325 230.799636 
L 109.724185 218.028101 
L 111.355614 226.60157 
L 112.987044 224.39204 
L 114.618474 220.826969 
L 116.249904 217.549544 
L 117.881334 217.571051 
L 119.512764 216.832075 
L 121.144194 214.4992 
L 122.775624 210.631269 
L 124.407053 210.420557 
L 126.038483 211.138152 
L 127.669913 207.836592 
L 129.301343 210.071691 
L 130.932773 203.701236 
L 132.564203 201.311617 
L 134.195633 206.773061 
L 135.827063 205.986003 
L 137.458492 204.121198 
L 139.089922 212.237359 
L 140.721352 204.118857 
L 142.352782 207.857549 
L 143.984212 207.412954 
L 145.615642 199.729199 
L 147.247072 201.473019 
L 148.878502 205.757678 
L 150.509931 209.217217 
L 152.141361 200.977869 
L 153.772791 200.814641 
L 155.404221 208.958661 
L 157.035651 200.355428 
L 158.667081 202.51801 
L 160.298511 195.412376 
L 161.929941 210.734364 
L 163.56137 196.945074 
L 165.1928 191.514745 
L 166.82423 198.476577 
L 168.45566 192.573204 
L 170.08709 198.318888 
L 171.71852 198.579194 
L 173.34995 197.626517 
L 174.98138 198.666126 
L 176.61281 202.329383 
L 178.244239 198.928434 
L 179.875669 198.19251 
L 181.507099 200.571378 
L 183.138529 190.78232 
L 184.769959 194.066882 
L 186.401389 204.278608 
L 188.032819 190.781765 
L 189.664249 195.527579 
L 191.295678 194.873101 
L 192.927108 190.874022 
L 194.558538 188.908329 
L 196.189968 188.451534 
L 197.821398 193.777514 
L 199.452828 191.365798 
L 201.084258 202.506168 
L 202.715688 201.446093 
L 204.347117 196.031681 
L 205.978547 189.595258 
L 207.609977 199.754071 
L 209.241407 191.770593 
L 210.872837 193.687988 
L 212.504267 193.648493 
L 214.135697 193.102113 
L 215.767127 198.398288 
L 217.398556 187.704807 
L 219.029986 187.476711 
L 220.661416 189.918557 
L 222.292846 194.454506 
L 223.924276 196.376275 
L 225.555706 197.65468 
L 227.187136 197.395142 
L 228.818566 183.509082 
L 230.449995 186.048843 
L 232.081425 197.12554 
L 233.712855 201.31259 
L 235.344285 204.569715 
L 236.975715 195.807801 
L 238.607145 196.17399 
L 240.238575 200.735202 
L 241.870005 197.977833 
L 243.501434 190.909182 
L 245.132864 200.400003 
L 246.764294 194.540786 
L 248.395724 197.710981 
L 251.658584 199.289406 
L 253.290014 191.044017 
L 254.921444 199.523789 
L 256.552873 192.556261 
L 258.184303 191.985225 
L 259.815733 188.70845 
L 261.447163 196.792649 
L 263.078593 193.528346 
L 264.710023 194.822318 
L 266.341453 199.373327 
L 267.972883 192.50348 
L 269.604312 196.614677 
L 271.235742 193.285987 
L 272.867172 197.136298 
L 274.498602 196.010023 
L 276.130032 193.720559 
L 277.761462 192.842165 
L 279.392892 193.645262 
L 281.024322 190.33762 
L 282.655751 186.015738 
L 284.287181 184.196386 
L 285.918611 181.781539 
L 287.550041 190.214818 
L 289.181471 188.301314 
L 290.812901 188.48275 
L 292.444331 194.400435 
L 294.075761 193.040924 
L 295.70719 188.962516 
L 297.33862 195.984491 
L 298.97005 185.538647 
L 300.60148 187.064539 
L 302.23291 190.95637 
L 303.86434 191.739706 
L 305.49577 193.1754 
L 307.1272 178.281754 
L 308.75863 194.187074 
L 310.390059 193.310414 
L 312.021489 190.181553 
L 313.652919 196.674993 
L 315.284349 190.431229 
L 316.915779 193.752465 
L 318.547209 191.600053 
L 320.178639 195.198424 
L 321.810069 192.769919 
L 323.441498 186.115802 
L 325.072928 194.548991 
L 326.704358 188.58838 
L 328.335788 188.780317 
L 329.967218 189.80043 
L 331.598648 182.722198 
L 333.230078 188.808572 
L 334.861508 188.565402 
L 336.492937 189.811442 
L 338.124367 189.500488 
L 339.755797 185.03443 
L 341.387227 183.356631 
L 343.018657 190.79967 
L 344.650087 196.79115 
L 346.281517 192.888536 
L 347.912947 186.960496 
L 349.544376 189.044493 
L 351.175806 194.388498 
L 352.807236 196.610488 
L 354.438666 191.460398 
L 356.070096 188.367155 
L 357.701526 182.700965 
L 359.332956 187.336106 
L 360.964386 192.99738 
L 362.595815 186.398386 
L 364.227245 193.425473 
L 365.858675 194.509766 
L 367.490105 190.840246 
L 369.121535 189.997616 
L 370.752965 189.746845 
L 372.384395 185.435782 
L 374.015825 188.764333 
L 375.647254 188.085449 
L 377.278684 193.623609 
L 378.910114 181.127933 
L 380.541544 179.115227 
L 382.172974 190.403211 
L 383.804404 188.796873 
L 385.435834 190.623939 
L 387.067264 184.91182 
L 388.698693 189.070492 
L 390.330123 190.105579 
L 391.961553 188.526721 
L 393.592983 189.981953 
L 395.224413 183.427233 
L 396.855843 188.48306 
L 398.487273 184.807271 
L 398.487273 184.807271 
" clip-path="url(#p5b48d74133)" style="fill: none; stroke: #0000ff; stroke-width: 1.5; stroke-linecap: square"/>
   </g>
   <g id="line2d_32">
    <path d="M 73.832727 295.488 
L 75.464157 294.548484 
L 77.095587 285.656822 
L 78.727017 287.532052 
L 80.358447 287.062533 
L 81.989877 282.69857 
L 83.621307 281.481175 
L 85.252736 277.09602 
L 86.884166 277.783792 
L 88.515596 273.965173 
L 90.147026 281.88921 
L 91.778456 277.368649 
L 93.409886 278.439167 
L 95.041316 279.935158 
L 96.672746 276.203373 
L 98.304175 277.313025 
L 99.935605 277.507851 
L 101.567035 274.44585 
L 103.198465 273.467679 
L 104.829895 277.850725 
L 106.461325 267.19134 
L 108.092755 260.333108 
L 109.724185 251.844614 
L 111.355614 266.506918 
L 112.987044 265.445125 
L 114.618474 260.053558 
L 116.249904 260.098946 
L 117.881334 261.428543 
L 119.512764 260.240051 
L 121.144194 256.773007 
L 122.775624 253.954575 
L 124.407053 254.041011 
L 126.038483 256.40509 
L 127.669913 250.376631 
L 129.301343 255.202658 
L 130.932773 249.039217 
L 132.564203 247.000713 
L 134.195633 253.628137 
L 135.827063 253.469449 
L 137.458492 250.162472 
L 139.089922 259.111504 
L 140.721352 250.909441 
L 142.352782 254.541096 
L 143.984212 253.770166 
L 145.615642 246.797077 
L 147.247072 252.365456 
L 148.878502 255.266592 
L 150.509931 259.296233 
L 152.141361 251.532159 
L 153.772791 249.746771 
L 155.404221 259.104847 
L 157.035651 252.953279 
L 158.667081 253.080853 
L 160.298511 245.690467 
L 161.929941 263.361999 
L 163.56137 249.243237 
L 165.1928 243.631961 
L 166.82423 254.460605 
L 168.45566 250.336318 
L 170.08709 254.581931 
L 171.71852 256.707038 
L 173.34995 255.111148 
L 174.98138 250.196558 
L 176.61281 257.149409 
L 178.244239 255.721251 
L 179.875669 255.600545 
L 181.507099 257.024405 
L 183.138529 243.995174 
L 184.769959 252.438646 
L 186.401389 264.158728 
L 188.032819 245.583072 
L 189.664249 253.158126 
L 191.295678 252.275657 
L 192.927108 248.978185 
L 194.558538 245.968527 
L 196.189968 247.818016 
L 197.821398 253.31037 
L 199.452828 248.320374 
L 201.084258 257.24703 
L 202.715688 255.552457 
L 204.347117 252.911957 
L 205.978547 247.707204 
L 207.609977 256.818999 
L 209.241407 251.586875 
L 210.872837 250.684485 
L 212.504267 249.478875 
L 214.135697 249.048135 
L 215.767127 257.496194 
L 217.398556 246.394356 
L 219.029986 246.314638 
L 220.661416 250.285988 
L 222.292846 252.142586 
L 223.924276 257.165764 
L 225.555706 255.014105 
L 227.187136 253.45132 
L 228.818566 242.023791 
L 230.449995 246.502424 
L 232.081425 259.370792 
L 233.712855 264.170519 
L 235.344285 264.786138 
L 236.975715 257.772436 
L 238.607145 260.31455 
L 240.238575 264.444361 
L 241.870005 261.181466 
L 243.501434 252.288461 
L 245.132864 261.720256 
L 246.764294 257.611515 
L 248.395724 259.832375 
L 250.027154 260.803892 
L 251.658584 260.503818 
L 253.290014 254.273915 
L 254.921444 262.910605 
L 256.552873 254.110993 
L 258.184303 255.067932 
L 259.815733 251.418005 
L 261.447163 259.942707 
L 263.078593 254.752718 
L 264.710023 259.752852 
L 266.341453 262.398956 
L 267.972883 254.246687 
L 269.604312 262.723863 
L 271.235742 257.420731 
L 272.867172 257.631179 
L 274.498602 257.633507 
L 276.130032 258.803322 
L 277.761462 256.092939 
L 279.392892 260.179441 
L 281.024322 255.483946 
L 282.655751 248.354174 
L 284.287181 247.516849 
L 285.918611 242.797261 
L 287.550041 256.461738 
L 289.181471 253.418722 
L 290.812901 253.690198 
L 292.444331 256.782091 
L 294.075761 256.784505 
L 295.70719 253.181234 
L 297.33862 258.026033 
L 298.97005 250.168471 
L 300.60148 251.973926 
L 302.23291 254.431238 
L 303.86434 253.307942 
L 305.49577 257.548277 
L 307.1272 241.32159 
L 308.75863 257.936053 
L 310.390059 257.179885 
L 312.021489 254.1899 
L 313.652919 261.827453 
L 315.284349 254.919603 
L 316.915779 258.52571 
L 318.547209 255.675269 
L 320.178639 258.97757 
L 321.810069 256.333885 
L 323.441498 252.210817 
L 325.072928 257.565495 
L 326.704358 249.775028 
L 328.335788 250.42769 
L 329.967218 254.293538 
L 331.598648 244.712678 
L 333.230078 251.825056 
L 334.861508 250.98445 
L 336.492937 253.381737 
L 338.124367 252.533037 
L 339.755797 250.522379 
L 341.387227 251.850684 
L 344.650087 262.432766 
L 346.281517 253.322913 
L 347.912947 251.668119 
L 349.544376 254.186759 
L 351.175806 258.855123 
L 352.807236 260.788589 
L 354.438666 254.272433 
L 357.701526 248.513317 
L 359.332956 250.754392 
L 360.964386 259.081916 
L 362.595815 251.62594 
L 364.227245 260.030108 
L 365.858675 259.450432 
L 367.490105 253.397744 
L 369.121535 254.445561 
L 370.752965 253.63154 
L 372.384395 248.664151 
L 374.015825 251.794126 
L 375.647254 255.2854 
L 377.278684 259.857349 
L 378.910114 242.987626 
L 380.541544 242.977989 
L 382.172974 255.431109 
L 383.804404 254.588238 
L 385.435834 254.203173 
L 387.067264 248.953063 
L 388.698693 254.822726 
L 390.330123 254.635559 
L 391.961553 251.062374 
L 393.592983 253.501516 
L 395.224413 247.846416 
L 396.855843 253.017778 
L 398.487273 250.708849 
L 398.487273 250.708849 
" clip-path="url(#p5b48d74133)" style="fill: none; stroke-dasharray: 9.6,2.4,1.5,2.4; stroke-dashoffset: 0; stroke: #008000; stroke-width: 1.5"/>
   </g>
   <g id="line2d_33">
    <path d="M 73.832727 257.27696 
L 75.464157 252.015401 
L 77.095587 249.162851 
L 78.727017 250.017924 
L 80.358447 246.908018 
L 81.989877 245.502258 
L 83.621307 241.499851 
L 85.252736 239.400032 
L 86.884166 234.650649 
L 88.515596 230.431707 
L 90.147026 227.920213 
L 91.778456 224.977367 
L 93.409886 225.596515 
L 95.041316 220.504978 
L 96.672746 219.541709 
L 98.304175 221.099779 
L 99.935605 218.262678 
L 101.567035 212.479647 
L 103.198465 215.318584 
L 104.829895 204.152947 
L 106.461325 194.407932 
L 108.092755 188.679986 
L 109.724185 184.211589 
L 111.355614 186.696221 
L 112.987044 183.338954 
L 114.618474 181.60038 
L 116.249904 175.000143 
L 117.881334 173.713558 
L 119.512764 173.424099 
L 121.144194 172.225392 
L 122.775624 167.307963 
L 124.407053 166.800102 
L 126.038483 165.871214 
L 127.669913 165.296553 
L 129.301343 164.940724 
L 130.932773 158.363255 
L 132.564203 155.622522 
L 134.195633 159.917985 
L 135.827063 158.502558 
L 137.458492 158.079924 
L 139.089922 165.363214 
L 140.721352 157.328273 
L 142.352782 161.174002 
L 143.984212 161.055742 
L 145.615642 152.661322 
L 147.247072 150.580582 
L 148.878502 156.248764 
L 150.509931 159.1382 
L 152.141361 150.42358 
L 153.772791 151.882511 
L 155.404221 158.812475 
L 157.035651 147.757578 
L 158.667081 151.955167 
L 160.298511 145.134285 
L 161.929941 158.10673 
L 163.56137 144.646911 
L 165.1928 139.397529 
L 166.82423 142.492549 
L 168.45566 134.81009 
L 170.08709 142.055845 
L 171.71852 140.45135 
L 173.34995 140.141886 
L 174.98138 147.135693 
L 176.61281 147.509356 
L 178.244239 142.135618 
L 179.875669 140.784475 
L 181.507099 144.11835 
L 183.138529 137.569465 
L 184.769959 135.695118 
L 186.401389 144.398489 
L 188.032819 135.980457 
L 189.664249 137.897032 
L 191.295678 137.470546 
L 192.927108 132.769858 
L 194.558538 131.848131 
L 196.189968 129.085052 
L 197.821398 134.244658 
L 199.452828 134.411222 
L 201.084258 147.765307 
L 202.715688 147.339729 
L 205.978547 131.483312 
L 207.609977 142.689142 
L 209.241407 131.954312 
L 210.872837 136.691491 
L 212.504267 137.818111 
L 214.135697 137.156091 
L 215.767127 139.300382 
L 217.398556 129.015257 
L 219.029986 128.638785 
L 220.661416 129.551126 
L 222.292846 136.766427 
L 223.924276 135.586787 
L 225.555706 140.295255 
L 227.187136 141.338963 
L 228.818566 124.994373 
L 230.449995 125.595263 
L 232.081425 134.880288 
L 233.712855 138.45466 
L 235.344285 144.353292 
L 236.975715 133.843166 
L 238.607145 132.03343 
L 240.238575 137.026042 
L 241.870005 134.774201 
L 243.501434 129.529904 
L 245.132864 139.07975 
L 246.764294 131.470056 
L 248.395724 135.589588 
L 250.027154 136.283724 
L 251.658584 138.074995 
L 253.290014 127.814119 
L 254.921444 136.136973 
L 256.552873 131.00153 
L 258.184303 128.902517 
L 259.815733 125.998895 
L 261.447163 133.642591 
L 263.078593 132.303973 
L 264.710023 129.891785 
L 266.341453 136.347697 
L 267.972883 130.760274 
L 269.604312 130.505491 
L 271.235742 129.151243 
L 272.867172 136.641418 
L 274.498602 134.386539 
L 276.130032 128.637795 
L 277.761462 129.591392 
L 279.392892 127.111083 
L 281.024322 125.191294 
L 282.655751 123.677302 
L 284.287181 120.875922 
L 285.918611 120.765816 
L 287.550041 123.967897 
L 289.181471 123.183906 
L 290.812901 123.275302 
L 292.444331 132.01878 
L 294.075761 129.297343 
L 295.70719 124.743798 
L 297.33862 133.942948 
L 298.97005 120.908822 
L 300.60148 122.155152 
L 302.23291 127.481502 
L 303.86434 130.17147 
L 305.49577 128.802522 
L 307.1272 115.241918 
L 308.75863 130.438095 
L 310.390059 129.440942 
L 312.021489 126.173206 
L 313.652919 131.522534 
L 315.284349 125.942856 
L 316.915779 128.979221 
L 318.547209 127.524836 
L 320.178639 131.419277 
L 321.810069 129.205952 
L 323.441498 120.020788 
L 325.072928 131.532488 
L 326.704358 127.401733 
L 328.335788 127.132943 
L 329.967218 125.307322 
L 331.598648 120.731717 
L 333.230078 125.792088 
L 334.861508 126.146353 
L 336.492937 126.241147 
L 338.124367 126.46794 
L 339.755797 119.54648 
L 341.387227 114.862579 
L 343.018657 124.362486 
L 344.650087 131.149534 
L 346.281517 132.454159 
L 347.912947 122.252872 
L 349.544376 123.902227 
L 351.175806 129.921873 
L 352.807236 132.432386 
L 354.438666 128.648363 
L 356.070096 125.457288 
L 357.701526 116.888613 
L 359.332956 123.91782 
L 360.964386 126.912844 
L 362.595815 121.170831 
L 364.227245 126.820837 
L 365.858675 129.5691 
L 367.490105 128.282748 
L 369.121535 125.54967 
L 370.752965 125.86215 
L 372.384395 122.207413 
L 374.015825 125.734539 
L 375.647254 120.885499 
L 377.278684 127.38987 
L 378.910114 119.26824 
L 380.541544 115.252464 
L 382.172974 125.375312 
L 383.804404 123.005509 
L 385.435834 127.044705 
L 387.067264 120.870578 
L 390.330123 125.5756 
L 393.592983 126.462389 
L 395.224413 119.00805 
L 396.855843 123.948342 
L 398.487273 118.905692 
L 398.487273 118.905692 
" clip-path="url(#p5b48d74133)" style="fill: none; stroke-dasharray: 9.6,2.4,1.5,2.4; stroke-dashoffset: 0; stroke: #008000; stroke-width: 1.5"/>
   </g>
   <g id="line2d_34">
    <path d="M 73.832727 251.26323 
L 75.464157 251.195944 
L 77.095587 247.098246 
L 78.727017 248.655432 
L 80.358447 236.021275 
L 81.989877 214.40685 
L 83.621307 199.816232 
L 85.252736 199.998768 
L 86.884166 174.534898 
L 88.515596 176.469587 
L 90.147026 167.303325 
L 91.778456 178.384971 
L 93.409886 170.982901 
L 95.041316 111.172841 
L 96.672746 120.068399 
L 98.304175 154.666689 
L 99.935605 163.120973 
L 101.567035 156.757868 
L 103.198465 159.074035 
L 104.829895 169.193401 
L 106.461325 155.725147 
L 108.092755 163.511915 
L 109.724185 157.838911 
L 111.355614 155.319202 
L 112.987044 153.773907 
L 114.618474 154.665295 
L 116.249904 131.25301 
L 117.881334 129.280756 
L 119.512764 125.220764 
L 121.144194 128.140896 
L 122.775624 124.977922 
L 124.407053 136.250723 
L 126.038483 137.713631 
L 127.669913 148.012203 
L 129.301343 128.257333 
L 130.932773 122.425048 
L 132.564203 123.25556 
L 134.195633 126.106978 
L 135.827063 107.266189 
L 137.458492 113.634679 
L 139.089922 116.762841 
L 140.721352 114.882311 
L 142.352782 113.255136 
L 143.984212 115.094309 
L 145.615642 100.809979 
L 147.247072 95.793429 
L 148.878502 105.974292 
L 150.509931 94.510717 
L 152.141361 99.617419 
L 153.772791 108.293722 
L 155.404221 105.054157 
L 157.035651 91.161576 
L 158.667081 90.524711 
L 160.298511 91.539263 
L 161.929941 90.127989 
L 163.56137 93.376086 
L 165.1928 94.547531 
L 166.82423 90.785875 
L 168.45566 95.819653 
L 170.08709 91.989689 
L 171.71852 91.239592 
L 173.34995 89.801604 
L 174.98138 89.160796 
L 176.61281 95.081264 
L 178.244239 95.782216 
L 179.875669 95.441802 
L 181.507099 91.427297 
L 183.138529 78.733677 
L 184.769959 87.543282 
L 186.401389 87.994107 
L 188.032819 88.8893 
L 189.664249 86.830397 
L 191.295678 83.880076 
L 192.927108 87.992502 
L 194.558538 91.427204 
L 196.189968 85.891324 
L 197.821398 88.436841 
L 199.452828 89.182074 
L 201.084258 89.50792 
L 202.715688 91.715414 
L 204.347117 89.068091 
L 205.978547 88.800713 
L 207.609977 89.85461 
L 209.241407 91.446724 
L 210.872837 91.378586 
L 212.504267 92.163734 
L 214.135697 86.995374 
L 215.767127 83.899584 
L 217.398556 85.440517 
L 219.029986 84.850156 
L 220.661416 87.098352 
L 222.292846 89.754511 
L 223.924276 57.578416 
L 225.555706 53.945003 
L 227.187136 91.990284 
L 228.818566 62.792526 
L 230.449995 85.461767 
L 232.081425 53.568 
L 233.712855 82.888175 
L 235.344285 81.029285 
L 236.975715 82.852818 
L 238.607145 82.854447 
L 240.238575 81.707743 
L 241.870005 81.751395 
L 243.501434 77.100346 
L 245.132864 77.585924 
L 246.764294 81.486777 
L 248.395724 80.243132 
L 250.027154 82.061972 
L 251.658584 80.945387 
L 253.290014 77.072609 
L 254.921444 86.784964 
L 256.552873 86.782946 
L 258.184303 78.223817 
L 259.815733 85.647622 
L 261.447163 89.287188 
L 263.078593 84.804082 
L 264.710023 83.098324 
L 266.341453 84.420473 
L 267.972883 85.523734 
L 269.604312 82.835919 
L 271.235742 82.021793 
L 272.867172 84.195038 
L 274.498602 84.270192 
L 276.130032 83.240681 
L 277.761462 82.391574 
L 279.392892 74.456655 
L 281.024322 83.989385 
L 282.655751 81.796669 
L 284.287181 85.211534 
L 285.918611 85.090536 
L 287.550041 84.399872 
L 289.181471 85.31049 
L 290.812901 81.99693 
L 292.444331 88.322343 
L 294.075761 84.906349 
L 295.70719 79.973918 
L 297.33862 88.190796 
L 298.97005 83.727344 
L 300.60148 86.966564 
L 302.23291 88.198981 
L 303.86434 83.032718 
L 305.49577 86.186586 
L 307.1272 86.339787 
L 308.75863 82.281336 
L 310.390059 86.117336 
L 312.021489 80.206254 
L 313.652919 85.924297 
L 315.284349 81.759079 
L 316.915779 84.547862 
L 318.547209 83.442538 
L 320.178639 84.921636 
L 321.810069 87.435853 
L 323.441498 83.103286 
L 325.072928 86.735519 
L 326.704358 89.28816 
L 328.335788 81.834638 
L 329.967218 85.474843 
L 331.598648 82.324857 
L 333.230078 79.963807 
L 334.861508 88.49772 
L 336.492937 82.423443 
L 338.124367 85.433268 
L 339.755797 80.858401 
L 341.387227 77.061042 
L 343.018657 81.183665 
L 344.650087 87.560739 
L 346.281517 83.157829 
L 347.912947 80.311595 
L 349.544376 81.604587 
L 351.175806 87.720841 
L 352.807236 82.954279 
L 354.438666 89.194405 
L 357.701526 79.55718 
L 359.332956 76.904307 
L 360.964386 86.082823 
L 362.595815 80.863857 
L 364.227245 78.863787 
L 365.858675 76.394235 
L 367.490105 76.506591 
L 369.121535 80.049928 
L 370.752965 79.166838 
L 372.384395 78.840848 
L 374.015825 81.894974 
L 375.647254 75.962219 
L 377.278684 80.104677 
L 378.910114 83.176701 
L 380.541544 79.725429 
L 382.172974 79.902897 
L 383.804404 77.261734 
L 385.435834 85.440459 
L 387.067264 82.784368 
L 388.698693 83.224619 
L 390.330123 85.119537 
L 391.961553 79.214242 
L 396.855843 84.577775 
L 398.487273 80.026795 
L 398.487273 80.026795 
" clip-path="url(#p5b48d74133)" style="fill: none; stroke: #ff0000; stroke-width: 1.5; stroke-linecap: square"/>
   </g>
   <g id="patch_3">
    <path d="M 57.6 307.584 
L 57.6 41.472 
" style="fill: none; stroke: #000000; stroke-width: 0.8; stroke-linejoin: miter; stroke-linecap: square"/>
   </g>
   <g id="patch_4">
    <path d="M 414.72 307.584 
L 414.72 41.472 
" style="fill: none; stroke: #000000; stroke-width: 0.8; stroke-linejoin: miter; stroke-linecap: square"/>
   </g>
   <g id="patch_5">
    <path d="M 57.6 307.584 
L 414.72 307.584 
" style="fill: none; stroke: #000000; stroke-width: 0.8; stroke-linejoin: miter; stroke-linecap: square"/>
   </g>
   <g id="patch_6">
    <path d="M 57.6 41.472 
L 414.72 41.472 
" style="fill: none; stroke: #000000; stroke-width: 0.8; stroke-linejoin: miter; stroke-linecap: square"/>
   </g>
   <g id="text_18">
    <!-- Population's average and best fitness -->
    <g transform="translate(123.529687 35.472) scale(0.12 -0.12)">
     <defs>
      <path id="DejaVuSans-50" d="M 1259 4147 
L 1259 2394 
L 2053 2394 
Q 2494 2394 2734 2622 
Q 2975 2850 2975 3272 
Q 2975 3691 2734 3919 
Q 2494 4147 2053 4147 
L 1259 4147 
z
M 628 4666 
L 2053 4666 
Q 2838 4666 3239 4311 
Q 3641 3956 3641 3272 
Q 3641 2581 3239 2228 
Q 2838 1875 2053 1875 
L 1259 1875 
L 1259 0 
L 628 0 
L 628 4666 
z
" transform="scale(0.015625)"/>
      <path id="DejaVuSans-70" d="M 1159 525 
L 1159 -1331 
L 581 -1331 
L 581 3500 
L 1159 3500 
L 1159 2969 
Q 1341 3281 1617 3432 
Q 1894 3584 2278 3584 
Q 2916 3584 3314 3078 
Q 3713 2572 3713 1747 
Q 3713 922 3314 415 
Q 2916 -91 2278 -91 
Q 1894 -91 1617 61 
Q 1341 213 1159 525 
z
M 3116 1747 
Q 3116 2381 2855 2742 
Q 2594 3103 2138 3103 
Q 1681 3103 1420 2742 
Q 1159 2381 1159 1747 
Q 1159 1113 1420 752 
Q 1681 391 2138 391 
Q 2594 391 2855 752 
Q 3116 1113 3116 1747 
z
" transform="scale(0.015625)"/>
      <path id="DejaVuSans-75" d="M 544 1381 
L 544 3500 
L 1119 3500 
L 1119 1403 
Q 1119 906 1312 657 
Q 1506 409 1894 409 
Q 2359 409 2629 706 
Q 2900 1003 2900 1516 
L 2900 3500 
L 3475 3500 
L 3475 0 
L 2900 0 
L 2900 538 
Q 2691 219 2414 64 
Q 2138 -91 1772 -91 
Q 1169 -91 856 284 
Q 544 659 544 1381 
z
M 1991 3584 
L 1991 3584 
z
" transform="scale(0.015625)"/>
      <path id="DejaVuSans-6c" d="M 603 4863 
L 1178 4863 
L 1178 0 
L 603 0 
L 603 4863 
z
" transform="scale(0.015625)"/>
      <path id="DejaVuSans-27" d="M 1147 4666 
L 1147 2931 
L 616 2931 
L 616 4666 
L 1147 4666 
z
" transform="scale(0.015625)"/>
      <path id="DejaVuSans-20" transform="scale(0.015625)"/>
      <path id="DejaVuSans-76" d="M 191 3500 
L 800 3500 
L 1894 563 
L 2988 3500 
L 3597 3500 
L 2284 0 
L 1503 0 
L 191 3500 
z
" transform="scale(0.015625)"/>
      <path id="DejaVuSans-67" d="M 2906 1791 
Q 2906 2416 2648 2759 
Q 2391 3103 1925 3103 
Q 1463 3103 1205 2759 
Q 947 2416 947 1791 
Q 947 1169 1205 825 
Q 1463 481 1925 481 
Q 2391 481 2648 825 
Q 2906 1169 2906 1791 
z
M 3481 434 
Q 3481 -459 3084 -895 
Q 2688 -1331 1869 -1331 
Q 1566 -1331 1297 -1286 
Q 1028 -1241 775 -1147 
L 775 -588 
Q 1028 -725 1275 -790 
Q 1522 -856 1778 -856 
Q 2344 -856 2625 -561 
Q 2906 -266 2906 331 
L 2906 616 
Q 2728 306 2450 153 
Q 2172 0 1784 0 
Q 1141 0 747 490 
Q 353 981 353 1791 
Q 353 2603 747 3093 
Q 1141 3584 1784 3584 
Q 2172 3584 2450 3431 
Q 2728 3278 2906 2969 
L 2906 3500 
L 3481 3500 
L 3481 434 
z
" transform="scale(0.015625)"/>
      <path id="DejaVuSans-64" d="M 2906 2969 
L 2906 4863 
L 3481 4863 
L 3481 0 
L 2906 0 
L 2906 525 
Q 2725 213 2448 61 
Q 2172 -91 1784 -91 
Q 1150 -91 751 415 
Q 353 922 353 1747 
Q 353 2572 751 3078 
Q 1150 3584 1784 3584 
Q 2172 3584 2448 3432 
Q 2725 3281 2906 2969 
z
M 947 1747 
Q 947 1113 1208 752 
Q 1469 391 1925 391 
Q 2381 391 2643 752 
Q 2906 1113 2906 1747 
Q 2906 2381 2643 2742 
Q 2381 3103 1925 3103 
Q 1469 3103 1208 2742 
Q 947 2381 947 1747 
z
" transform="scale(0.015625)"/>
      <path id="DejaVuSans-62" d="M 3116 1747 
Q 3116 2381 2855 2742 
Q 2594 3103 2138 3103 
Q 1681 3103 1420 2742 
Q 1159 2381 1159 1747 
Q 1159 1113 1420 752 
Q 1681 391 2138 391 
Q 2594 391 2855 752 
Q 3116 1113 3116 1747 
z
M 1159 2969 
Q 1341 3281 1617 3432 
Q 1894 3584 2278 3584 
Q 2916 3584 3314 3078 
Q 3713 2572 3713 1747 
Q 3713 922 3314 415 
Q 2916 -91 2278 -91 
Q 1894 -91 1617 61 
Q 1341 213 1159 525 
L 1159 0 
L 581 0 
L 581 4863 
L 1159 4863 
L 1159 2969 
z
" transform="scale(0.015625)"/>
      <path id="DejaVuSans-66" d="M 2375 4863 
L 2375 4384 
L 1825 4384 
Q 1516 4384 1395 4259 
Q 1275 4134 1275 3809 
L 1275 3500 
L 2222 3500 
L 2222 3053 
L 1275 3053 
L 1275 0 
L 697 0 
L 697 3053 
L 147 3053 
L 147 3500 
L 697 3500 
L 697 3744 
Q 697 4328 969 4595 
Q 1241 4863 1831 4863 
L 2375 4863 
z
" transform="scale(0.015625)"/>
     </defs>
     <use xlink:href="#DejaVuSans-50"/>
     <use xlink:href="#DejaVuSans-6f" transform="translate(56.677734 0)"/>
     <use xlink:href="#DejaVuSans-70" transform="translate(117.859375 0)"/>
     <use xlink:href="#DejaVuSans-75" transform="translate(181.335938 0)"/>
     <use xlink:href="#DejaVuSans-6c" transform="translate(244.714844 0)"/>
     <use xlink:href="#DejaVuSans-61" transform="translate(272.498047 0)"/>
     <use xlink:href="#DejaVuSans-74" transform="translate(333.777344 0)"/>
     <use xlink:href="#DejaVuSans-69" transform="translate(372.986328 0)"/>
     <use xlink:href="#DejaVuSans-6f" transform="translate(400.769531 0)"/>
     <use xlink:href="#DejaVuSans-6e" transform="translate(461.951172 0)"/>
     <use xlink:href="#DejaVuSans-27" transform="translate(525.330078 0)"/>
     <use xlink:href="#DejaVuSans-73" transform="translate(552.820312 0)"/>
     <use xlink:href="#DejaVuSans-20" transform="translate(604.919922 0)"/>
     <use xlink:href="#DejaVuSans-61" transform="translate(636.707031 0)"/>
     <use xlink:href="#DejaVuSans-76" transform="translate(697.986328 0)"/>
     <use xlink:href="#DejaVuSans-65" transform="translate(757.166016 0)"/>
     <use xlink:href="#DejaVuSans-72" transform="translate(818.689453 0)"/>
     <use xlink:href="#DejaVuSans-61" transform="translate(859.802734 0)"/>
     <use xlink:href="#DejaVuSans-67" transform="translate(921.082031 0)"/>
     <use xlink:href="#DejaVuSans-65" transform="translate(984.558594 0)"/>
     <use xlink:href="#DejaVuSans-20" transform="translate(1046.082031 0)"/>
     <use xlink:href="#DejaVuSans-61" transform="translate(1077.869141 0)"/>
     <use xlink:href="#DejaVuSans-6e" transform="translate(1139.148438 0)"/>
     <use xlink:href="#DejaVuSans-64" transform="translate(1202.527344 0)"/>
     <use xlink:href="#DejaVuSans-20" transform="translate(1266.003906 0)"/>
     <use xlink:href="#DejaVuSans-62" transform="translate(1297.791016 0)"/>
     <use xlink:href="#DejaVuSans-65" transform="translate(1361.267578 0)"/>
     <use xlink:href="#DejaVuSans-73" transform="translate(1422.791016 0)"/>
     <use xlink:href="#DejaVuSans-74" transform="translate(1474.890625 0)"/>
     <use xlink:href="#DejaVuSans-20" transform="translate(1514.099609 0)"/>
     <use xlink:href="#DejaVuSans-66" transform="translate(1545.886719 0)"/>
     <use xlink:href="#DejaVuSans-69" transform="translate(1581.091797 0)"/>
     <use xlink:href="#DejaVuSans-74" transform="translate(1608.875 0)"/>
     <use xlink:href="#DejaVuSans-6e" transform="translate(1648.083984 0)"/>
     <use xlink:href="#DejaVuSans-65" transform="translate(1711.462891 0)"/>
     <use xlink:href="#DejaVuSans-73" transform="translate(1772.986328 0)"/>
     <use xlink:href="#DejaVuSans-73" transform="translate(1825.085938 0)"/>
    </g>
   </g>
   <g id="legend_1">
    <g id="patch_7">
     <path d="M 64.6 108.1845 
L 137.540625 108.1845 
Q 139.540625 108.1845 139.540625 106.1845 
L 139.540625 48.472 
Q 139.540625 46.472 137.540625 46.472 
L 64.6 46.472 
Q 62.6 46.472 62.6 48.472 
L 62.6 106.1845 
Q 62.6 108.1845 64.6 108.1845 
z
" style="fill: #ffffff; opacity: 0.8; stroke: #cccccc; stroke-linejoin: miter"/>
    </g>
    <g id="line2d_35">
     <path d="M 66.6 54.570438 
L 76.6 54.570438 
L 86.6 54.570438 
" style="fill: none; stroke: #0000ff; stroke-width: 1.5; stroke-linecap: square"/>
    </g>
    <g id="text_19">
     <!-- average -->
     <g transform="translate(94.6 58.070438) scale(0.1 -0.1)">
      <use xlink:href="#DejaVuSans-61"/>
      <use xlink:href="#DejaVuSans-76" transform="translate(61.279297 0)"/>
      <use xlink:href="#DejaVuSans-65" transform="translate(120.458984 0)"/>
      <use xlink:href="#DejaVuSans-72" transform="translate(181.982422 0)"/>
      <use xlink:href="#DejaVuSans-61" transform="translate(223.095703 0)"/>
      <use xlink:href="#DejaVuSans-67" transform="translate(284.375 0)"/>
      <use xlink:href="#DejaVuSans-65" transform="translate(347.851562 0)"/>
     </g>
    </g>
    <g id="line2d_36">
     <path d="M 66.6 69.248563 
L 76.6 69.248563 
L 86.6 69.248563 
" style="fill: none; stroke-dasharray: 9.6,2.4,1.5,2.4; stroke-dashoffset: 0; stroke: #008000; stroke-width: 1.5"/>
    </g>
    <g id="text_20">
     <!-- -1 sd -->
     <g transform="translate(94.6 72.748563) scale(0.1 -0.1)">
      <defs>
       <path id="DejaVuSans-2d" d="M 313 2009 
L 1997 2009 
L 1997 1497 
L 313 1497 
L 313 2009 
z
" transform="scale(0.015625)"/>
      </defs>
      <use xlink:href="#DejaVuSans-2d"/>
      <use xlink:href="#DejaVuSans-31" transform="translate(36.083984 0)"/>
      <use xlink:href="#DejaVuSans-20" transform="translate(99.707031 0)"/>
      <use xlink:href="#DejaVuSans-73" transform="translate(131.494141 0)"/>
      <use xlink:href="#DejaVuSans-64" transform="translate(183.59375 0)"/>
     </g>
    </g>
    <g id="line2d_37">
     <path d="M 66.6 83.926688 
L 76.6 83.926688 
L 86.6 83.926688 
" style="fill: none; stroke-dasharray: 9.6,2.4,1.5,2.4; stroke-dashoffset: 0; stroke: #008000; stroke-width: 1.5"/>
    </g>
    <g id="text_21">
     <!-- +1 sd -->
     <g transform="translate(94.6 87.426688) scale(0.1 -0.1)">
      <defs>
       <path id="DejaVuSans-2b" d="M 2944 4013 
L 2944 2272 
L 4684 2272 
L 4684 1741 
L 2944 1741 
L 2944 0 
L 2419 0 
L 2419 1741 
L 678 1741 
L 678 2272 
L 2419 2272 
L 2419 4013 
L 2944 4013 
z
" transform="scale(0.015625)"/>
      </defs>
      <use xlink:href="#DejaVuSans-2b"/>
      <use xlink:href="#DejaVuSans-31" transform="translate(83.789062 0)"/>
      <use xlink:href="#DejaVuSans-20" transform="translate(147.412109 0)"/>
      <use xlink:href="#DejaVuSans-73" transform="translate(179.199219 0)"/>
      <use xlink:href="#DejaVuSans-64" transform="translate(231.298828 0)"/>
     </g>
    </g>
    <g id="line2d_38">
     <path d="M 66.6 98.604813 
L 76.6 98.604813 
L 86.6 98.604813 
" style="fill: none; stroke: #ff0000; stroke-width: 1.5; stroke-linecap: square"/>
    </g>
    <g id="text_22">
     <!-- best -->
     <g transform="translate(94.6 102.104813) scale(0.1 -0.1)">
      <use xlink:href="#DejaVuSans-62"/>
      <use xlink:href="#DejaVuSans-65" transform="translate(63.476562 0)"/>
      <use xlink:href="#DejaVuSans-73" transform="translate(125 0)"/>
      <use xlink:href="#DejaVuSans-74" transform="translate(177.099609 0)"/>
     </g>
    </g>
   </g>
  </g>
 </g>
 <defs>
  <clipPath id="p5b48d74133">
   <rect x="57.6" y="41.472" width="357.12" height="266.112"/>
  </clipPath>
 </defs>
</svg>
