<?xml version="1.0" encoding="utf-8" standalone="no"?>
<!DOCTYPE svg PUBLIC "-//W3C//DTD SVG 1.1//EN"
  "http://www.w3.org/Graphics/SVG/1.1/DTD/svg11.dtd">
<svg xmlns:xlink="http://www.w3.org/1999/xlink" width="460.8pt" height="345.6pt" viewBox="0 0 460.8 345.6" xmlns="http://www.w3.org/2000/svg" version="1.1">
 <metadata>
  <rdf:RDF xmlns:dc="http://purl.org/dc/elements/1.1/" xmlns:cc="http://creativecommons.org/ns#" xmlns:rdf="http://www.w3.org/1999/02/22-rdf-syntax-ns#">
   <cc:Work>
    <dc:type rdf:resource="http://purl.org/dc/dcmitype/StillImage"/>
    <dc:date>2025-10-24T06:21:11.699254</dc:date>
    <dc:format>image/svg+xml</dc:format>
    <dc:creator>
     <cc:Agent>
      <dc:title>Matplotlib v3.10.7, https://matplotlib.org/</dc:title>
     </cc:Agent>
    </dc:creator>
   </cc:Work>
  </rdf:RDF>
 </metadata>
 <defs>
  <style type="text/css">*{stroke-linejoin: round; stroke-linecap: butt}</style>
 </defs>
 <g id="figure_1">
  <g id="patch_1">
   <path d="M 0 345.6 
L 460.8 345.6 
L 460.8 0 
L 0 0 
z
" style="fill: #ffffff"/>
  </g>
  <g id="axes_1">
   <g id="patch_2">
    <path d="M 57.6 307.584 
L 414.72 307.584 
L 414.72 41.472 
L 57.6 41.472 
z
" style="fill: #ffffff"/>
   </g>
   <g id="FillBetweenPolyCollection_1">
    <path d="M 73.832727 54.144 
L 73.832727 307.584 
L 75.464157 307.584 
L 77.095587 307.584 
L 78.727017 307.584 
L 80.358447 307.584 
L 81.989877 307.584 
L 83.621307 307.584 
L 85.252736 307.584 
L 86.884166 307.584 
L 88.515596 307.584 
L 90.147026 307.584 
L 91.778456 307.584 
L 93.409886 307.584 
L 95.041316 307.584 
L 96.672746 307.584 
L 98.304175 307.584 
L 99.935605 307.584 
L 101.567035 307.584 
L 103.198465 307.584 
L 104.829895 307.584 
L 106.461325 307.584 
L 108.092755 307.584 
L 109.724185 307.584 
L 111.355614 307.584 
L 112.987044 307.584 
L 114.618474 307.584 
L 116.249904 307.584 
L 117.881334 307.584 
L 119.512764 307.584 
L 121.144194 307.584 
L 122.775624 307.584 
L 124.407053 307.584 
L 126.038483 307.584 
L 127.669913 307.584 
L 129.301343 307.584 
L 130.932773 307.584 
L 132.564203 307.584 
L 134.195633 307.584 
L 135.827063 307.584 
L 137.458492 307.584 
L 139.089922 307.584 
L 140.721352 307.584 
L 142.352782 307.584 
L 143.984212 307.584 
L 145.615642 307.584 
L 147.247072 307.584 
L 148.878502 307.584 
L 150.509931 307.584 
L 152.141361 307.584 
L 153.772791 307.584 
L 155.404221 307.584 
L 157.035651 307.584 
L 158.667081 307.584 
L 160.298511 307.584 
L 161.929941 307.584 
L 163.56137 307.584 
L 165.1928 307.584 
L 166.82423 307.584 
L 168.45566 307.584 
L 170.08709 307.584 
L 171.71852 307.584 
L 173.34995 307.584 
L 174.98138 307.584 
L 176.61281 307.584 
L 178.244239 307.584 
L 179.875669 307.584 
L 181.507099 307.584 
L 183.138529 307.584 
L 184.769959 307.584 
L 186.401389 307.584 
L 188.032819 307.584 
L 189.664249 307.584 
L 191.295678 307.584 
L 192.927108 307.584 
L 194.558538 307.584 
L 196.189968 307.584 
L 197.821398 307.584 
L 199.452828 307.584 
L 201.084258 307.584 
L 202.715688 307.584 
L 204.347117 307.584 
L 205.978547 307.584 
L 207.609977 307.584 
L 209.241407 307.584 
L 210.872837 307.584 
L 212.504267 307.584 
L 214.135697 307.584 
L 215.767127 307.584 
L 217.398556 307.584 
L 219.029986 307.584 
L 220.661416 307.584 
L 222.292846 307.584 
L 223.924276 307.584 
L 225.555706 307.584 
L 227.187136 307.584 
L 228.818566 307.584 
L 230.449995 307.584 
L 232.081425 307.584 
L 233.712855 307.584 
L 235.344285 307.584 
L 236.975715 307.584 
L 238.607145 307.584 
L 240.238575 307.584 
L 241.870005 307.584 
L 243.501434 307.584 
L 245.132864 307.584 
L 246.764294 307.584 
L 248.395724 307.584 
L 250.027154 307.584 
L 251.658584 307.584 
L 253.290014 307.584 
L 254.921444 307.584 
L 256.552873 307.584 
L 258.184303 307.584 
L 259.815733 307.584 
L 261.447163 307.584 
L 263.078593 307.584 
L 264.710023 307.584 
L 266.341453 307.584 
L 267.972883 307.584 
L 269.604312 307.584 
L 271.235742 307.584 
L 272.867172 307.584 
L 274.498602 307.584 
L 276.130032 307.584 
L 277.761462 307.584 
L 279.392892 307.584 
L 281.024322 307.584 
L 282.655751 307.584 
L 284.287181 307.584 
L 285.918611 307.584 
L 287.550041 307.584 
L 289.181471 307.584 
L 290.812901 307.584 
L 292.444331 307.584 
L 294.075761 307.584 
L 295.70719 307.584 
L 297.33862 307.584 
L 298.97005 307.584 
L 300.60148 307.584 
L 302.23291 307.584 
L 303.86434 307.584 
L 305.49577 307.584 
L 307.1272 307.584 
L 308.75863 307.584 
L 310.390059 307.584 
L 312.021489 307.584 
L 313.652919 307.584 
L 315.284349 307.584 
L 316.915779 307.584 
L 318.547209 307.584 
L 320.178639 307.584 
L 321.810069 307.584 
L 323.441498 307.584 
L 325.072928 307.584 
L 326.704358 307.584 
L 328.335788 307.584 
L 329.967218 307.584 
L 331.598648 307.584 
L 333.230078 307.584 
L 334.861508 307.584 
L 336.492937 307.584 
L 338.124367 307.584 
L 339.755797 307.584 
L 341.387227 307.584 
L 343.018657 307.584 
L 344.650087 307.584 
L 346.281517 307.584 
L 347.912947 307.584 
L 349.544376 307.584 
L 351.175806 307.584 
L 352.807236 307.584 
L 354.438666 307.584 
L 356.070096 307.584 
L 357.701526 307.584 
L 359.332956 307.584 
L 360.964386 307.584 
L 362.595815 307.584 
L 364.227245 307.584 
L 365.858675 307.584 
L 367.490105 307.584 
L 369.121535 307.584 
L 370.752965 307.584 
L 372.384395 307.584 
L 374.015825 307.584 
L 375.647254 307.584 
L 377.278684 307.584 
L 378.910114 307.584 
L 380.541544 307.584 
L 382.172974 307.584 
L 383.804404 307.584 
L 385.435834 307.584 
L 387.067264 307.584 
L 388.698693 307.584 
L 390.330123 307.584 
L 391.961553 307.584 
L 393.592983 307.584 
L 395.224413 307.584 
L 396.855843 307.584 
L 398.487273 307.584 
L 398.487273 180.864 
L 398.487273 180.864 
L 396.855843 182.1312 
L 395.224413 175.7952 
L 393.592983 174.528 
L 391.961553 179.5968 
L 390.330123 175.7952 
L 388.698693 180.864 
L 387.067264 184.6656 
L 385.435834 183.3984 
L 383.804404 173.2608 
L 382.172974 174.528 
L 380.541544 177.0624 
L 378.910114 175.7952 
L 377.278684 182.1312 
L 375.647254 180.864 
L 374.015825 183.3984 
L 372.384395 182.1312 
L 370.752965 184.6656 
L 369.121535 184.6656 
L 367.490105 180.864 
L 365.858675 175.7952 
L 364.227245 179.5968 
L 362.595815 180.864 
L 360.964386 178.3296 
L 359.332956 178.3296 
L 357.701526 178.3296 
L 356.070096 175.7952 
L 354.438666 175.7952 
L 352.807236 183.3984 
L 351.175806 182.1312 
L 349.544376 178.3296 
L 347.912947 179.5968 
L 346.281517 177.0624 
L 344.650087 177.0624 
L 343.018657 174.528 
L 341.387227 178.3296 
L 339.755797 175.7952 
L 338.124367 174.528 
L 336.492937 175.7952 
L 334.861508 178.3296 
L 333.230078 182.1312 
L 331.598648 178.3296 
L 329.967218 175.7952 
L 328.335788 173.2608 
L 326.704358 180.864 
L 325.072928 174.528 
L 323.441498 173.2608 
L 321.810069 177.0624 
L 320.178639 169.4592 
L 318.547209 180.864 
L 316.915779 182.1312 
L 315.284349 184.6656 
L 313.652919 183.3984 
L 312.021489 178.3296 
L 310.390059 177.0624 
L 308.75863 179.5968 
L 307.1272 182.1312 
L 305.49577 184.6656 
L 303.86434 183.3984 
L 302.23291 168.192 
L 300.60148 192.2688 
L 298.97005 179.5968 
L 297.33862 184.6656 
L 295.70719 183.3984 
L 294.075761 179.5968 
L 292.444331 175.7952 
L 290.812901 174.528 
L 289.181471 171.9936 
L 287.550041 173.2608 
L 285.918611 174.528 
L 284.287181 173.2608 
L 282.655751 178.3296 
L 281.024322 171.9936 
L 279.392892 177.0624 
L 277.761462 179.5968 
L 276.130032 178.3296 
L 274.498602 175.7952 
L 272.867172 194.8032 
L 271.235742 203.6736 
L 269.604312 201.1392 
L 267.972883 194.8032 
L 266.341453 185.9328 
L 264.710023 179.5968 
L 263.078593 174.528 
L 261.447163 168.192 
L 259.815733 165.6576 
L 258.184303 145.3824 
L 256.552873 203.6736 
L 254.921444 175.7952 
L 253.290014 180.864 
L 251.658584 178.3296 
L 250.027154 183.3984 
L 248.395724 197.3376 
L 246.764294 216.3456 
L 245.132864 171.9936 
L 243.501434 171.9936 
L 241.870005 166.9248 
L 240.238575 193.536 
L 238.607145 191.0016 
L 236.975715 182.1312 
L 235.344285 187.2 
L 233.712855 188.4672 
L 232.081425 187.2 
L 230.449995 198.6048 
L 228.818566 220.1472 
L 227.187136 75.6864 
L 225.555706 54.144 
L 223.924276 54.144 
L 222.292846 54.144 
L 220.661416 54.144 
L 219.029986 54.144 
L 217.398556 54.144 
L 215.767127 54.144 
L 214.135697 54.144 
L 212.504267 54.144 
L 210.872837 54.144 
L 209.241407 54.144 
L 207.609977 54.144 
L 205.978547 54.144 
L 204.347117 54.144 
L 202.715688 54.144 
L 201.084258 54.144 
L 199.452828 54.144 
L 197.821398 54.144 
L 196.189968 54.144 
L 194.558538 54.144 
L 192.927108 54.144 
L 191.295678 54.144 
L 189.664249 54.144 
L 188.032819 54.144 
L 186.401389 54.144 
L 184.769959 54.144 
L 183.138529 54.144 
L 181.507099 54.144 
L 179.875669 54.144 
L 178.244239 54.144 
L 176.61281 54.144 
L 174.98138 54.144 
L 173.34995 54.144 
L 171.71852 54.144 
L 170.08709 54.144 
L 168.45566 54.144 
L 166.82423 54.144 
L 165.1928 54.144 
L 163.56137 54.144 
L 161.929941 54.144 
L 160.298511 54.144 
L 158.667081 54.144 
L 157.035651 54.144 
L 155.404221 54.144 
L 153.772791 54.144 
L 152.141361 54.144 
L 150.509931 54.144 
L 148.878502 54.144 
L 147.247072 54.144 
L 145.615642 54.144 
L 143.984212 54.144 
L 142.352782 54.144 
L 140.721352 54.144 
L 139.089922 54.144 
L 137.458492 54.144 
L 135.827063 54.144 
L 134.195633 54.144 
L 132.564203 54.144 
L 130.932773 54.144 
L 129.301343 54.144 
L 127.669913 54.144 
L 126.038483 54.144 
L 124.407053 54.144 
L 122.775624 54.144 
L 121.144194 54.144 
L 119.512764 54.144 
L 117.881334 54.144 
L 116.249904 54.144 
L 114.618474 54.144 
L 112.987044 54.144 
L 111.355614 54.144 
L 109.724185 54.144 
L 108.092755 54.144 
L 106.461325 54.144 
L 104.829895 54.144 
L 103.198465 54.144 
L 101.567035 54.144 
L 99.935605 54.144 
L 98.304175 54.144 
L 96.672746 54.144 
L 95.041316 54.144 
L 93.409886 54.144 
L 91.778456 54.144 
L 90.147026 54.144 
L 88.515596 54.144 
L 86.884166 54.144 
L 85.252736 54.144 
L 83.621307 54.144 
L 81.989877 54.144 
L 80.358447 54.144 
L 78.727017 54.144 
L 77.095587 54.144 
L 75.464157 54.144 
L 73.832727 54.144 
z
" clip-path="url(#p9f3d595100)" style="fill: #1f77b4"/>
   </g>
   <g id="FillBetweenPolyCollection_2">
    <path d="M 73.832727 54.144 
L 73.832727 54.144 
L 75.464157 54.144 
L 77.095587 54.144 
L 78.727017 54.144 
L 80.358447 54.144 
L 81.989877 54.144 
L 83.621307 54.144 
L 85.252736 54.144 
L 86.884166 54.144 
L 88.515596 54.144 
L 90.147026 54.144 
L 91.778456 54.144 
L 93.409886 54.144 
L 95.041316 54.144 
L 96.672746 54.144 
L 98.304175 54.144 
L 99.935605 54.144 
L 101.567035 54.144 
L 103.198465 54.144 
L 104.829895 54.144 
L 106.461325 54.144 
L 108.092755 54.144 
L 109.724185 54.144 
L 111.355614 54.144 
L 112.987044 54.144 
L 114.618474 54.144 
L 116.249904 54.144 
L 117.881334 54.144 
L 119.512764 54.144 
L 121.144194 54.144 
L 122.775624 54.144 
L 124.407053 54.144 
L 126.038483 54.144 
L 127.669913 54.144 
L 129.301343 54.144 
L 130.932773 54.144 
L 132.564203 54.144 
L 134.195633 54.144 
L 135.827063 54.144 
L 137.458492 54.144 
L 139.089922 54.144 
L 140.721352 54.144 
L 142.352782 54.144 
L 143.984212 54.144 
L 145.615642 54.144 
L 147.247072 54.144 
L 148.878502 54.144 
L 150.509931 54.144 
L 152.141361 54.144 
L 153.772791 54.144 
L 155.404221 54.144 
L 157.035651 54.144 
L 158.667081 54.144 
L 160.298511 54.144 
L 161.929941 54.144 
L 163.56137 54.144 
L 165.1928 54.144 
L 166.82423 54.144 
L 168.45566 54.144 
L 170.08709 54.144 
L 171.71852 54.144 
L 173.34995 54.144 
L 174.98138 54.144 
L 176.61281 54.144 
L 178.244239 54.144 
L 179.875669 54.144 
L 181.507099 54.144 
L 183.138529 54.144 
L 184.769959 54.144 
L 186.401389 54.144 
L 188.032819 54.144 
L 189.664249 54.144 
L 191.295678 54.144 
L 192.927108 54.144 
L 194.558538 54.144 
L 196.189968 54.144 
L 197.821398 54.144 
L 199.452828 54.144 
L 201.084258 54.144 
L 202.715688 54.144 
L 204.347117 54.144 
L 205.978547 54.144 
L 207.609977 54.144 
L 209.241407 54.144 
L 210.872837 54.144 
L 212.504267 54.144 
L 214.135697 54.144 
L 215.767127 54.144 
L 217.398556 54.144 
L 219.029986 54.144 
L 220.661416 54.144 
L 222.292846 54.144 
L 223.924276 54.144 
L 225.555706 54.144 
L 227.187136 75.6864 
L 228.818566 220.1472 
L 230.449995 198.6048 
L 232.081425 187.2 
L 233.712855 188.4672 
L 235.344285 187.2 
L 236.975715 182.1312 
L 238.607145 191.0016 
L 240.238575 193.536 
L 241.870005 166.9248 
L 243.501434 171.9936 
L 245.132864 171.9936 
L 246.764294 216.3456 
L 248.395724 197.3376 
L 250.027154 183.3984 
L 251.658584 178.3296 
L 253.290014 180.864 
L 254.921444 175.7952 
L 256.552873 203.6736 
L 258.184303 145.3824 
L 259.815733 165.6576 
L 261.447163 168.192 
L 263.078593 174.528 
L 264.710023 179.5968 
L 266.341453 185.9328 
L 267.972883 194.8032 
L 269.604312 201.1392 
L 271.235742 203.6736 
L 272.867172 194.8032 
L 274.498602 175.7952 
L 276.130032 178.3296 
L 277.761462 179.5968 
L 279.392892 177.0624 
L 281.024322 171.9936 
L 282.655751 178.3296 
L 284.287181 173.2608 
L 285.918611 174.528 
L 287.550041 173.2608 
L 289.181471 171.9936 
L 290.812901 174.528 
L 292.444331 175.7952 
L 294.075761 179.5968 
L 295.70719 183.3984 
L 297.33862 184.6656 
L 298.97005 179.5968 
L 300.60148 192.2688 
L 302.23291 168.192 
L 303.86434 183.3984 
L 305.49577 184.6656 
L 307.1272 182.1312 
L 308.75863 179.5968 
L 310.390059 177.0624 
L 312.021489 178.3296 
L 313.652919 183.3984 
L 315.284349 184.6656 
L 316.915779 182.1312 
L 318.547209 180.864 
L 320.178639 169.4592 
L 321.810069 177.0624 
L 323.441498 173.2608 
L 325.072928 174.528 
L 326.704358 180.864 
L 328.335788 173.2608 
L 329.967218 175.7952 
L 331.598648 178.3296 
L 333.230078 182.1312 
L 334.861508 178.3296 
L 336.492937 175.7952 
L 338.124367 174.528 
L 339.755797 175.7952 
L 341.387227 178.3296 
L 343.018657 174.528 
L 344.650087 177.0624 
L 346.281517 177.0624 
L 347.912947 179.5968 
L 349.544376 178.3296 
L 351.175806 182.1312 
L 352.807236 183.3984 
L 354.438666 175.7952 
L 356.070096 175.7952 
L 357.701526 178.3296 
L 359.332956 178.3296 
L 360.964386 178.3296 
L 362.595815 180.864 
L 364.227245 179.5968 
L 365.858675 175.7952 
L 367.490105 180.864 
L 369.121535 184.6656 
L 370.752965 184.6656 
L 372.384395 182.1312 
L 374.015825 183.3984 
L 375.647254 180.864 
L 377.278684 182.1312 
L 378.910114 175.7952 
L 380.541544 177.0624 
L 382.172974 174.528 
L 383.804404 173.2608 
L 385.435834 183.3984 
L 387.067264 184.6656 
L 388.698693 180.864 
L 390.330123 175.7952 
L 391.961553 179.5968 
L 393.592983 174.528 
L 395.224413 175.7952 
L 396.855843 182.1312 
L 398.487273 180.864 
L 398.487273 54.144 
L 398.487273 54.144 
L 396.855843 54.144 
L 395.224413 54.144 
L 393.592983 54.144 
L 391.961553 54.144 
L 390.330123 54.144 
L 388.698693 54.144 
L 387.067264 54.144 
L 385.435834 54.144 
L 383.804404 54.144 
L 382.172974 54.144 
L 380.541544 54.144 
L 378.910114 54.144 
L 377.278684 54.144 
L 375.647254 54.144 
L 374.015825 54.144 
L 372.384395 54.144 
L 370.752965 54.144 
L 369.121535 54.144 
L 367.490105 54.144 
L 365.858675 54.144 
L 364.227245 54.144 
L 362.595815 54.144 
L 360.964386 54.144 
L 359.332956 54.144 
L 357.701526 54.144 
L 356.070096 54.144 
L 354.438666 54.144 
L 352.807236 54.144 
L 351.175806 54.144 
L 349.544376 54.144 
L 347.912947 54.144 
L 346.281517 54.144 
L 344.650087 54.144 
L 343.018657 54.144 
L 341.387227 54.144 
L 339.755797 54.144 
L 338.124367 54.144 
L 336.492937 54.144 
L 334.861508 54.144 
L 333.230078 54.144 
L 331.598648 54.144 
L 329.967218 54.144 
L 328.335788 54.144 
L 326.704358 54.144 
L 325.072928 54.144 
L 323.441498 54.144 
L 321.810069 54.144 
L 320.178639 54.144 
L 318.547209 54.144 
L 316.915779 54.144 
L 315.284349 54.144 
L 313.652919 54.144 
L 312.021489 54.144 
L 310.390059 54.144 
L 308.75863 54.144 
L 307.1272 54.144 
L 305.49577 54.144 
L 303.86434 54.144 
L 302.23291 54.144 
L 300.60148 54.144 
L 298.97005 54.144 
L 297.33862 54.144 
L 295.70719 54.144 
L 294.075761 54.144 
L 292.444331 54.144 
L 290.812901 54.144 
L 289.181471 54.144 
L 287.550041 54.144 
L 285.918611 54.144 
L 284.287181 54.144 
L 282.655751 54.144 
L 281.024322 54.144 
L 279.392892 54.144 
L 277.761462 54.144 
L 276.130032 54.144 
L 274.498602 54.144 
L 272.867172 54.144 
L 271.235742 54.144 
L 269.604312 54.144 
L 267.972883 54.144 
L 266.341453 54.144 
L 264.710023 54.144 
L 263.078593 54.144 
L 261.447163 54.144 
L 259.815733 54.144 
L 258.184303 54.144 
L 256.552873 54.144 
L 254.921444 54.144 
L 253.290014 54.144 
L 251.658584 54.144 
L 250.027154 54.144 
L 248.395724 54.144 
L 246.764294 54.144 
L 245.132864 54.144 
L 243.501434 54.144 
L 241.870005 54.144 
L 240.238575 54.144 
L 238.607145 54.144 
L 236.975715 54.144 
L 235.344285 54.144 
L 233.712855 54.144 
L 232.081425 54.144 
L 230.449995 54.144 
L 228.818566 54.144 
L 227.187136 54.144 
L 225.555706 54.144 
L 223.924276 54.144 
L 222.292846 54.144 
L 220.661416 54.144 
L 219.029986 54.144 
L 217.398556 54.144 
L 215.767127 54.144 
L 214.135697 54.144 
L 212.504267 54.144 
L 210.872837 54.144 
L 209.241407 54.144 
L 207.609977 54.144 
L 205.978547 54.144 
L 204.347117 54.144 
L 202.715688 54.144 
L 201.084258 54.144 
L 199.452828 54.144 
L 197.821398 54.144 
L 196.189968 54.144 
L 194.558538 54.144 
L 192.927108 54.144 
L 191.295678 54.144 
L 189.664249 54.144 
L 188.032819 54.144 
L 186.401389 54.144 
L 184.769959 54.144 
L 183.138529 54.144 
L 181.507099 54.144 
L 179.875669 54.144 
L 178.244239 54.144 
L 176.61281 54.144 
L 174.98138 54.144 
L 173.34995 54.144 
L 171.71852 54.144 
L 170.08709 54.144 
L 168.45566 54.144 
L 166.82423 54.144 
L 165.1928 54.144 
L 163.56137 54.144 
L 161.929941 54.144 
L 160.298511 54.144 
L 158.667081 54.144 
L 157.035651 54.144 
L 155.404221 54.144 
L 153.772791 54.144 
L 152.141361 54.144 
L 150.509931 54.144 
L 148.878502 54.144 
L 147.247072 54.144 
L 145.615642 54.144 
L 143.984212 54.144 
L 142.352782 54.144 
L 140.721352 54.144 
L 139.089922 54.144 
L 137.458492 54.144 
L 135.827063 54.144 
L 134.195633 54.144 
L 132.564203 54.144 
L 130.932773 54.144 
L 129.301343 54.144 
L 127.669913 54.144 
L 126.038483 54.144 
L 124.407053 54.144 
L 122.775624 54.144 
L 121.144194 54.144 
L 119.512764 54.144 
L 117.881334 54.144 
L 116.249904 54.144 
L 114.618474 54.144 
L 112.987044 54.144 
L 111.355614 54.144 
L 109.724185 54.144 
L 108.092755 54.144 
L 106.461325 54.144 
L 104.829895 54.144 
L 103.198465 54.144 
L 101.567035 54.144 
L 99.935605 54.144 
L 98.304175 54.144 
L 96.672746 54.144 
L 95.041316 54.144 
L 93.409886 54.144 
L 91.778456 54.144 
L 90.147026 54.144 
L 88.515596 54.144 
L 86.884166 54.144 
L 85.252736 54.144 
L 83.621307 54.144 
L 81.989877 54.144 
L 80.358447 54.144 
L 78.727017 54.144 
L 77.095587 54.144 
L 75.464157 54.144 
L 73.832727 54.144 
z
" clip-path="url(#p9f3d595100)" style="fill: #ff7f0e"/>
   </g>
   <g id="matplotlib.axis_1">
    <g id="xtick_1">
     <g id="line2d_1">
      <defs>
       <path id="m06938e03d3" d="M 0 0 
L 0 3.5 
" style="stroke: #000000; stroke-width: 0.8"/>
      </defs>
      <g>
       <use xlink:href="#m06938e03d3" x="73.832727" y="307.584" style="stroke: #000000; stroke-width: 0.8"/>
      </g>
     </g>
     <g id="text_1">
      <!-- 0 -->
      <g transform="translate(70.651477 322.182437) scale(0.1 -0.1)">
       <defs>
        <path id="DejaVuSans-30" d="M 2034 4250 
Q 1547 4250 1301 3770 
Q 1056 3291 1056 2328 
Q 1056 1369 1301 889 
Q 1547 409 2034 409 
Q 2525 409 2770 889 
Q 3016 1369 3016 2328 
Q 3016 3291 2770 3770 
Q 2525 4250 2034 4250 
z
M 2034 4750 
Q 2819 4750 3233 4129 
Q 3647 3509 3647 2328 
Q 3647 1150 3233 529 
Q 2819 -91 2034 -91 
Q 1250 -91 836 529 
Q 422 1150 422 2328 
Q 422 3509 836 4129 
Q 1250 4750 2034 4750 
z
" transform="scale(0.015625)"/>
       </defs>
       <use xlink:href="#DejaVuSans-30"/>
      </g>
     </g>
    </g>
    <g id="xtick_2">
     <g id="line2d_2">
      <g>
       <use xlink:href="#m06938e03d3" x="114.618474" y="307.584" style="stroke: #000000; stroke-width: 0.8"/>
      </g>
     </g>
     <g id="text_2">
      <!-- 25 -->
      <g transform="translate(108.255974 322.182437) scale(0.1 -0.1)">
       <defs>
        <path id="DejaVuSans-32" d="M 1228 531 
L 3431 531 
L 3431 0 
L 469 0 
L 469 531 
Q 828 903 1448 1529 
Q 2069 2156 2228 2338 
Q 2531 2678 2651 2914 
Q 2772 3150 2772 3378 
Q 2772 3750 2511 3984 
Q 2250 4219 1831 4219 
Q 1534 4219 1204 4116 
Q 875 4013 500 3803 
L 500 4441 
Q 881 4594 1212 4672 
Q 1544 4750 1819 4750 
Q 2544 4750 2975 4387 
Q 3406 4025 3406 3419 
Q 3406 3131 3298 2873 
Q 3191 2616 2906 2266 
Q 2828 2175 2409 1742 
Q 1991 1309 1228 531 
z
" transform="scale(0.015625)"/>
        <path id="DejaVuSans-35" d="M 691 4666 
L 3169 4666 
L 3169 4134 
L 1269 4134 
L 1269 2991 
Q 1406 3038 1543 3061 
Q 1681 3084 1819 3084 
Q 2600 3084 3056 2656 
Q 3513 2228 3513 1497 
Q 3513 744 3044 326 
Q 2575 -91 1722 -91 
Q 1428 -91 1123 -41 
Q 819 9 494 109 
L 494 744 
Q 775 591 1075 516 
Q 1375 441 1709 441 
Q 2250 441 2565 725 
Q 2881 1009 2881 1497 
Q 2881 1984 2565 2268 
Q 2250 2553 1709 2553 
Q 1456 2553 1204 2497 
Q 953 2441 691 2322 
L 691 4666 
z
" transform="scale(0.015625)"/>
       </defs>
       <use xlink:href="#DejaVuSans-32"/>
       <use xlink:href="#DejaVuSans-35" transform="translate(63.623047 0)"/>
      </g>
     </g>
    </g>
    <g id="xtick_3">
     <g id="line2d_3">
      <g>
       <use xlink:href="#m06938e03d3" x="155.404221" y="307.584" style="stroke: #000000; stroke-width: 0.8"/>
      </g>
     </g>
     <g id="text_3">
      <!-- 50 -->
      <g transform="translate(149.041721 322.182437) scale(0.1 -0.1)">
       <use xlink:href="#DejaVuSans-35"/>
       <use xlink:href="#DejaVuSans-30" transform="translate(63.623047 0)"/>
      </g>
     </g>
    </g>
    <g id="xtick_4">
     <g id="line2d_4">
      <g>
       <use xlink:href="#m06938e03d3" x="196.189968" y="307.584" style="stroke: #000000; stroke-width: 0.8"/>
      </g>
     </g>
     <g id="text_4">
      <!-- 75 -->
      <g transform="translate(189.827468 322.182437) scale(0.1 -0.1)">
       <defs>
        <path id="DejaVuSans-37" d="M 525 4666 
L 3525 4666 
L 3525 4397 
L 1831 0 
L 1172 0 
L 2766 4134 
L 525 4134 
L 525 4666 
z
" transform="scale(0.015625)"/>
       </defs>
       <use xlink:href="#DejaVuSans-37"/>
       <use xlink:href="#DejaVuSans-35" transform="translate(63.623047 0)"/>
      </g>
     </g>
    </g>
    <g id="xtick_5">
     <g id="line2d_5">
      <g>
       <use xlink:href="#m06938e03d3" x="236.975715" y="307.584" style="stroke: #000000; stroke-width: 0.8"/>
      </g>
     </g>
     <g id="text_5">
      <!-- 100 -->
      <g transform="translate(227.431965 322.182437) scale(0.1 -0.1)">
       <defs>
        <path id="DejaVuSans-31" d="M 794 531 
L 1825 531 
L 1825 4091 
L 703 3866 
L 703 4441 
L 1819 4666 
L 2450 4666 
L 2450 531 
L 3481 531 
L 3481 0 
L 794 0 
L 794 531 
z
" transform="scale(0.015625)"/>
       </defs>
       <use xlink:href="#DejaVuSans-31"/>
       <use xlink:href="#DejaVuSans-30" transform="translate(63.623047 0)"/>
       <use xlink:href="#DejaVuSans-30" transform="translate(127.246094 0)"/>
      </g>
     </g>
    </g>
    <g id="xtick_6">
     <g id="line2d_6">
      <g>
       <use xlink:href="#m06938e03d3" x="277.761462" y="307.584" style="stroke: #000000; stroke-width: 0.8"/>
      </g>
     </g>
     <g id="text_6">
      <!-- 125 -->
      <g transform="translate(268.217712 322.182437) scale(0.1 -0.1)">
       <use xlink:href="#DejaVuSans-31"/>
       <use xlink:href="#DejaVuSans-32" transform="translate(63.623047 0)"/>
       <use xlink:href="#DejaVuSans-35" transform="translate(127.246094 0)"/>
      </g>
     </g>
    </g>
    <g id="xtick_7">
     <g id="line2d_7">
      <g>
       <use xlink:href="#m06938e03d3" x="318.547209" y="307.584" style="stroke: #000000; stroke-width: 0.8"/>
      </g>
     </g>
     <g id="text_7">
      <!-- 150 -->
      <g transform="translate(309.003459 322.182437) scale(0.1 -0.1)">
       <use xlink:href="#DejaVuSans-31"/>
       <use xlink:href="#DejaVuSans-35" transform="translate(63.623047 0)"/>
       <use xlink:href="#DejaVuSans-30" transform="translate(127.246094 0)"/>
      </g>
     </g>
    </g>
    <g id="xtick_8">
     <g id="line2d_8">
      <g>
       <use xlink:href="#m06938e03d3" x="359.332956" y="307.584" style="stroke: #000000; stroke-width: 0.8"/>
      </g>
     </g>
     <g id="text_8">
      <!-- 175 -->
      <g transform="translate(349.789206 322.182437) scale(0.1 -0.1)">
       <use xlink:href="#DejaVuSans-31"/>
       <use xlink:href="#DejaVuSans-37" transform="translate(63.623047 0)"/>
       <use xlink:href="#DejaVuSans-35" transform="translate(127.246094 0)"/>
      </g>
     </g>
    </g>
    <g id="xtick_9">
     <g id="line2d_9">
      <g>
       <use xlink:href="#m06938e03d3" x="400.118703" y="307.584" style="stroke: #000000; stroke-width: 0.8"/>
      </g>
     </g>
     <g id="text_9">
      <!-- 200 -->
      <g transform="translate(390.574953 322.182437) scale(0.1 -0.1)">
       <use xlink:href="#DejaVuSans-32"/>
       <use xlink:href="#DejaVuSans-30" transform="translate(63.623047 0)"/>
       <use xlink:href="#DejaVuSans-30" transform="translate(127.246094 0)"/>
      </g>
     </g>
    </g>
    <g id="text_10">
     <!-- Generations -->
     <g transform="translate(205.662344 335.860562) scale(0.1 -0.1)">
      <defs>
       <path id="DejaVuSans-47" d="M 3809 666 
L 3809 1919 
L 2778 1919 
L 2778 2438 
L 4434 2438 
L 4434 434 
Q 4069 175 3628 42 
Q 3188 -91 2688 -91 
Q 1594 -91 976 548 
Q 359 1188 359 2328 
Q 359 3472 976 4111 
Q 1594 4750 2688 4750 
Q 3144 4750 3555 4637 
Q 3966 4525 4313 4306 
L 4313 3634 
Q 3963 3931 3569 4081 
Q 3175 4231 2741 4231 
Q 1884 4231 1454 3753 
Q 1025 3275 1025 2328 
Q 1025 1384 1454 906 
Q 1884 428 2741 428 
Q 3075 428 3337 486 
Q 3600 544 3809 666 
z
" transform="scale(0.015625)"/>
       <path id="DejaVuSans-65" d="M 3597 1894 
L 3597 1613 
L 953 1613 
Q 991 1019 1311 708 
Q 1631 397 2203 397 
Q 2534 397 2845 478 
Q 3156 559 3463 722 
L 3463 178 
Q 3153 47 2828 -22 
Q 2503 -91 2169 -91 
Q 1331 -91 842 396 
Q 353 884 353 1716 
Q 353 2575 817 3079 
Q 1281 3584 2069 3584 
Q 2775 3584 3186 3129 
Q 3597 2675 3597 1894 
z
M 3022 2063 
Q 3016 2534 2758 2815 
Q 2500 3097 2075 3097 
Q 1594 3097 1305 2825 
Q 1016 2553 972 2059 
L 3022 2063 
z
" transform="scale(0.015625)"/>
       <path id="DejaVuSans-6e" d="M 3513 2113 
L 3513 0 
L 2938 0 
L 2938 2094 
Q 2938 2591 2744 2837 
Q 2550 3084 2163 3084 
Q 1697 3084 1428 2787 
Q 1159 2491 1159 1978 
L 1159 0 
L 581 0 
L 581 3500 
L 1159 3500 
L 1159 2956 
Q 1366 3272 1645 3428 
Q 1925 3584 2291 3584 
Q 2894 3584 3203 3211 
Q 3513 2838 3513 2113 
z
" transform="scale(0.015625)"/>
       <path id="DejaVuSans-72" d="M 2631 2963 
Q 2534 3019 2420 3045 
Q 2306 3072 2169 3072 
Q 1681 3072 1420 2755 
Q 1159 2438 1159 1844 
L 1159 0 
L 581 0 
L 581 3500 
L 1159 3500 
L 1159 2956 
Q 1341 3275 1631 3429 
Q 1922 3584 2338 3584 
Q 2397 3584 2469 3576 
Q 2541 3569 2628 3553 
L 2631 2963 
z
" transform="scale(0.015625)"/>
       <path id="DejaVuSans-61" d="M 2194 1759 
Q 1497 1759 1228 1600 
Q 959 1441 959 1056 
Q 959 750 1161 570 
Q 1363 391 1709 391 
Q 2188 391 2477 730 
Q 2766 1069 2766 1631 
L 2766 1759 
L 2194 1759 
z
M 3341 1997 
L 3341 0 
L 2766 0 
L 2766 531 
Q 2569 213 2275 61 
Q 1981 -91 1556 -91 
Q 1019 -91 701 211 
Q 384 513 384 1019 
Q 384 1609 779 1909 
Q 1175 2209 1959 2209 
L 2766 2209 
L 2766 2266 
Q 2766 2663 2505 2880 
Q 2244 3097 1772 3097 
Q 1472 3097 1187 3025 
Q 903 2953 641 2809 
L 641 3341 
Q 956 3463 1253 3523 
Q 1550 3584 1831 3584 
Q 2591 3584 2966 3190 
Q 3341 2797 3341 1997 
z
" transform="scale(0.015625)"/>
       <path id="DejaVuSans-74" d="M 1172 4494 
L 1172 3500 
L 2356 3500 
L 2356 3053 
L 1172 3053 
L 1172 1153 
Q 1172 725 1289 603 
Q 1406 481 1766 481 
L 2356 481 
L 2356 0 
L 1766 0 
Q 1100 0 847 248 
Q 594 497 594 1153 
L 594 3053 
L 172 3053 
L 172 3500 
L 594 3500 
L 594 4494 
L 1172 4494 
z
" transform="scale(0.015625)"/>
       <path id="DejaVuSans-69" d="M 603 3500 
L 1178 3500 
L 1178 0 
L 603 0 
L 603 3500 
z
M 603 4863 
L 1178 4863 
L 1178 4134 
L 603 4134 
L 603 4863 
z
" transform="scale(0.015625)"/>
       <path id="DejaVuSans-6f" d="M 1959 3097 
Q 1497 3097 1228 2736 
Q 959 2375 959 1747 
Q 959 1119 1226 758 
Q 1494 397 1959 397 
Q 2419 397 2687 759 
Q 2956 1122 2956 1747 
Q 2956 2369 2687 2733 
Q 2419 3097 1959 3097 
z
M 1959 3584 
Q 2709 3584 3137 3096 
Q 3566 2609 3566 1747 
Q 3566 888 3137 398 
Q 2709 -91 1959 -91 
Q 1206 -91 779 398 
Q 353 888 353 1747 
Q 353 2609 779 3096 
Q 1206 3584 1959 3584 
z
" transform="scale(0.015625)"/>
       <path id="DejaVuSans-73" d="M 2834 3397 
L 2834 2853 
Q 2591 2978 2328 3040 
Q 2066 3103 1784 3103 
Q 1356 3103 1142 2972 
Q 928 2841 928 2578 
Q 928 2378 1081 2264 
Q 1234 2150 1697 2047 
L 1894 2003 
Q 2506 1872 2764 1633 
Q 3022 1394 3022 966 
Q 3022 478 2636 193 
Q 2250 -91 1575 -91 
Q 1294 -91 989 -36 
Q 684 19 347 128 
L 347 722 
Q 666 556 975 473 
Q 1284 391 1588 391 
Q 1994 391 2212 530 
Q 2431 669 2431 922 
Q 2431 1156 2273 1281 
Q 2116 1406 1581 1522 
L 1381 1569 
Q 847 1681 609 1914 
Q 372 2147 372 2553 
Q 372 3047 722 3315 
Q 1072 3584 1716 3584 
Q 2034 3584 2315 3537 
Q 2597 3491 2834 3397 
z
" transform="scale(0.015625)"/>
      </defs>
      <use xlink:href="#DejaVuSans-47"/>
      <use xlink:href="#DejaVuSans-65" transform="translate(77.490234 0)"/>
      <use xlink:href="#DejaVuSans-6e" transform="translate(139.013672 0)"/>
      <use xlink:href="#DejaVuSans-65" transform="translate(202.392578 0)"/>
      <use xlink:href="#DejaVuSans-72" transform="translate(263.916016 0)"/>
      <use xlink:href="#DejaVuSans-61" transform="translate(305.029297 0)"/>
      <use xlink:href="#DejaVuSans-74" transform="translate(366.308594 0)"/>
      <use xlink:href="#DejaVuSans-69" transform="translate(405.517578 0)"/>
      <use xlink:href="#DejaVuSans-6f" transform="translate(433.300781 0)"/>
      <use xlink:href="#DejaVuSans-6e" transform="translate(494.482422 0)"/>
      <use xlink:href="#DejaVuSans-73" transform="translate(557.861328 0)"/>
     </g>
    </g>
   </g>
   <g id="matplotlib.axis_2">
    <g id="ytick_1">
     <g id="line2d_10">
      <defs>
       <path id="m1b1f3a931a" d="M 0 0 
L -3.5 0 
" style="stroke: #000000; stroke-width: 0.8"/>
      </defs>
      <g>
       <use xlink:href="#m1b1f3a931a" x="57.6" y="307.584" style="stroke: #000000; stroke-width: 0.8"/>
      </g>
     </g>
     <g id="text_11">
      <!-- 0 -->
      <g transform="translate(44.2375 311.383219) scale(0.1 -0.1)">
       <use xlink:href="#DejaVuSans-30"/>
      </g>
     </g>
    </g>
    <g id="ytick_2">
     <g id="line2d_11">
      <g>
       <use xlink:href="#m1b1f3a931a" x="57.6" y="275.904" style="stroke: #000000; stroke-width: 0.8"/>
      </g>
     </g>
     <g id="text_12">
      <!-- 25 -->
      <g transform="translate(37.875 279.703219) scale(0.1 -0.1)">
       <use xlink:href="#DejaVuSans-32"/>
       <use xlink:href="#DejaVuSans-35" transform="translate(63.623047 0)"/>
      </g>
     </g>
    </g>
    <g id="ytick_3">
     <g id="line2d_12">
      <g>
       <use xlink:href="#m1b1f3a931a" x="57.6" y="244.224" style="stroke: #000000; stroke-width: 0.8"/>
      </g>
     </g>
     <g id="text_13">
      <!-- 50 -->
      <g transform="translate(37.875 248.023219) scale(0.1 -0.1)">
       <use xlink:href="#DejaVuSans-35"/>
       <use xlink:href="#DejaVuSans-30" transform="translate(63.623047 0)"/>
      </g>
     </g>
    </g>
    <g id="ytick_4">
     <g id="line2d_13">
      <g>
       <use xlink:href="#m1b1f3a931a" x="57.6" y="212.544" style="stroke: #000000; stroke-width: 0.8"/>
      </g>
     </g>
     <g id="text_14">
      <!-- 75 -->
      <g transform="translate(37.875 216.343219) scale(0.1 -0.1)">
       <use xlink:href="#DejaVuSans-37"/>
       <use xlink:href="#DejaVuSans-35" transform="translate(63.623047 0)"/>
      </g>
     </g>
    </g>
    <g id="ytick_5">
     <g id="line2d_14">
      <g>
       <use xlink:href="#m1b1f3a931a" x="57.6" y="180.864" style="stroke: #000000; stroke-width: 0.8"/>
      </g>
     </g>
     <g id="text_15">
      <!-- 100 -->
      <g transform="translate(31.5125 184.663219) scale(0.1 -0.1)">
       <use xlink:href="#DejaVuSans-31"/>
       <use xlink:href="#DejaVuSans-30" transform="translate(63.623047 0)"/>
       <use xlink:href="#DejaVuSans-30" transform="translate(127.246094 0)"/>
      </g>
     </g>
    </g>
    <g id="ytick_6">
     <g id="line2d_15">
      <g>
       <use xlink:href="#m1b1f3a931a" x="57.6" y="149.184" style="stroke: #000000; stroke-width: 0.8"/>
      </g>
     </g>
     <g id="text_16">
      <!-- 125 -->
      <g transform="translate(31.5125 152.983219) scale(0.1 -0.1)">
       <use xlink:href="#DejaVuSans-31"/>
       <use xlink:href="#DejaVuSans-32" transform="translate(63.623047 0)"/>
       <use xlink:href="#DejaVuSans-35" transform="translate(127.246094 0)"/>
      </g>
     </g>
    </g>
    <g id="ytick_7">
     <g id="line2d_16">
      <g>
       <use xlink:href="#m1b1f3a931a" x="57.6" y="117.504" style="stroke: #000000; stroke-width: 0.8"/>
      </g>
     </g>
     <g id="text_17">
      <!-- 150 -->
      <g transform="translate(31.5125 121.303219) scale(0.1 -0.1)">
       <use xlink:href="#DejaVuSans-31"/>
       <use xlink:href="#DejaVuSans-35" transform="translate(63.623047 0)"/>
       <use xlink:href="#DejaVuSans-30" transform="translate(127.246094 0)"/>
      </g>
     </g>
    </g>
    <g id="ytick_8">
     <g id="line2d_17">
      <g>
       <use xlink:href="#m1b1f3a931a" x="57.6" y="85.824" style="stroke: #000000; stroke-width: 0.8"/>
      </g>
     </g>
     <g id="text_18">
      <!-- 175 -->
      <g transform="translate(31.5125 89.623219) scale(0.1 -0.1)">
       <use xlink:href="#DejaVuSans-31"/>
       <use xlink:href="#DejaVuSans-37" transform="translate(63.623047 0)"/>
       <use xlink:href="#DejaVuSans-35" transform="translate(127.246094 0)"/>
      </g>
     </g>
    </g>
    <g id="ytick_9">
     <g id="line2d_18">
      <g>
       <use xlink:href="#m1b1f3a931a" x="57.6" y="54.144" style="stroke: #000000; stroke-width: 0.8"/>
      </g>
     </g>
     <g id="text_19">
      <!-- 200 -->
      <g transform="translate(31.5125 57.943219) scale(0.1 -0.1)">
       <use xlink:href="#DejaVuSans-32"/>
       <use xlink:href="#DejaVuSans-30" transform="translate(63.623047 0)"/>
       <use xlink:href="#DejaVuSans-30" transform="translate(127.246094 0)"/>
      </g>
     </g>
    </g>
    <g id="text_20">
     <!-- Size per Species -->
     <g transform="translate(25.432812 215.520969) rotate(-90) scale(0.1 -0.1)">
      <defs>
       <path id="DejaVuSans-53" d="M 3425 4513 
L 3425 3897 
Q 3066 4069 2747 4153 
Q 2428 4238 2131 4238 
Q 1616 4238 1336 4038 
Q 1056 3838 1056 3469 
Q 1056 3159 1242 3001 
Q 1428 2844 1947 2747 
L 2328 2669 
Q 3034 2534 3370 2195 
Q 3706 1856 3706 1288 
Q 3706 609 3251 259 
Q 2797 -91 1919 -91 
Q 1588 -91 1214 -16 
Q 841 59 441 206 
L 441 856 
Q 825 641 1194 531 
Q 1563 422 1919 422 
Q 2459 422 2753 634 
Q 3047 847 3047 1241 
Q 3047 1584 2836 1778 
Q 2625 1972 2144 2069 
L 1759 2144 
Q 1053 2284 737 2584 
Q 422 2884 422 3419 
Q 422 4038 858 4394 
Q 1294 4750 2059 4750 
Q 2388 4750 2728 4690 
Q 3069 4631 3425 4513 
z
" transform="scale(0.015625)"/>
       <path id="DejaVuSans-7a" d="M 353 3500 
L 3084 3500 
L 3084 2975 
L 922 459 
L 3084 459 
L 3084 0 
L 275 0 
L 275 525 
L 2438 3041 
L 353 3041 
L 353 3500 
z
" transform="scale(0.015625)"/>
       <path id="DejaVuSans-20" transform="scale(0.015625)"/>
       <path id="DejaVuSans-70" d="M 1159 525 
L 1159 -1331 
L 581 -1331 
L 581 3500 
L 1159 3500 
L 1159 2969 
Q 1341 3281 1617 3432 
Q 1894 3584 2278 3584 
Q 2916 3584 3314 3078 
Q 3713 2572 3713 1747 
Q 3713 922 3314 415 
Q 2916 -91 2278 -91 
Q 1894 -91 1617 61 
Q 1341 213 1159 525 
z
M 3116 1747 
Q 3116 2381 2855 2742 
Q 2594 3103 2138 3103 
Q 1681 3103 1420 2742 
Q 1159 2381 1159 1747 
Q 1159 1113 1420 752 
Q 1681 391 2138 391 
Q 2594 391 2855 752 
Q 3116 1113 3116 1747 
z
" transform="scale(0.015625)"/>
       <path id="DejaVuSans-63" d="M 3122 3366 
L 3122 2828 
Q 2878 2963 2633 3030 
Q 2388 3097 2138 3097 
Q 1578 3097 1268 2742 
Q 959 2388 959 1747 
Q 959 1106 1268 751 
Q 1578 397 2138 397 
Q 2388 397 2633 464 
Q 2878 531 3122 666 
L 3122 134 
Q 2881 22 2623 -34 
Q 2366 -91 2075 -91 
Q 1284 -91 818 406 
Q 353 903 353 1747 
Q 353 2603 823 3093 
Q 1294 3584 2113 3584 
Q 2378 3584 2631 3529 
Q 2884 3475 3122 3366 
z
" transform="scale(0.015625)"/>
      </defs>
      <use xlink:href="#DejaVuSans-53"/>
      <use xlink:href="#DejaVuSans-69" transform="translate(63.476562 0)"/>
      <use xlink:href="#DejaVuSans-7a" transform="translate(91.259766 0)"/>
      <use xlink:href="#DejaVuSans-65" transform="translate(143.75 0)"/>
      <use xlink:href="#DejaVuSans-20" transform="translate(205.273438 0)"/>
      <use xlink:href="#DejaVuSans-70" transform="translate(237.060547 0)"/>
      <use xlink:href="#DejaVuSans-65" transform="translate(300.537109 0)"/>
      <use xlink:href="#DejaVuSans-72" transform="translate(362.060547 0)"/>
      <use xlink:href="#DejaVuSans-20" transform="translate(403.173828 0)"/>
      <use xlink:href="#DejaVuSans-53" transform="translate(434.960938 0)"/>
      <use xlink:href="#DejaVuSans-70" transform="translate(498.4375 0)"/>
      <use xlink:href="#DejaVuSans-65" transform="translate(561.914062 0)"/>
      <use xlink:href="#DejaVuSans-63" transform="translate(623.4375 0)"/>
      <use xlink:href="#DejaVuSans-69" transform="translate(678.417969 0)"/>
      <use xlink:href="#DejaVuSans-65" transform="translate(706.201172 0)"/>
      <use xlink:href="#DejaVuSans-73" transform="translate(767.724609 0)"/>
     </g>
    </g>
   </g>
   <g id="patch_3">
    <path d="M 57.6 307.584 
L 57.6 41.472 
" style="fill: none; stroke: #000000; stroke-width: 0.8; stroke-linejoin: miter; stroke-linecap: square"/>
   </g>
   <g id="patch_4">
    <path d="M 414.72 307.584 
L 414.72 41.472 
" style="fill: none; stroke: #000000; stroke-width: 0.8; stroke-linejoin: miter; stroke-linecap: square"/>
   </g>
   <g id="patch_5">
    <path d="M 57.6 307.584 
L 414.72 307.584 
" style="fill: none; stroke: #000000; stroke-width: 0.8; stroke-linejoin: miter; stroke-linecap: square"/>
   </g>
   <g id="patch_6">
    <path d="M 57.6 41.472 
L 414.72 41.472 
" style="fill: none; stroke: #000000; stroke-width: 0.8; stroke-linejoin: miter; stroke-linecap: square"/>
   </g>
   <g id="text_21">
    <!-- Speciation -->
    <g transform="translate(204.714375 35.472) scale(0.12 -0.12)">
     <use xlink:href="#DejaVuSans-53"/>
     <use xlink:href="#DejaVuSans-70" transform="translate(63.476562 0)"/>
     <use xlink:href="#DejaVuSans-65" transform="translate(126.953125 0)"/>
     <use xlink:href="#DejaVuSans-63" transform="translate(188.476562 0)"/>
     <use xlink:href="#DejaVuSans-69" transform="translate(243.457031 0)"/>
     <use xlink:href="#DejaVuSans-61" transform="translate(271.240234 0)"/>
     <use xlink:href="#DejaVuSans-74" transform="translate(332.519531 0)"/>
     <use xlink:href="#DejaVuSans-69" transform="translate(371.728516 0)"/>
     <use xlink:href="#DejaVuSans-6f" transform="translate(399.511719 0)"/>
     <use xlink:href="#DejaVuSans-6e" transform="translate(460.693359 0)"/>
    </g>
   </g>
  </g>
 </g>
 <defs>
  <clipPath id="p9f3d595100">
   <rect x="57.6" y="41.472" width="357.12" height="266.112"/>
  </clipPath>
 </defs>
</svg>
