<?xml version="1.0" encoding="UTF-8" standalone="no"?>
<!DOCTYPE svg PUBLIC "-//W3C//DTD SVG 1.1//EN"
 "http://www.w3.org/Graphics/SVG/1.1/DTD/svg11.dtd">
<!-- Generated by graphviz version 14.0.2 (20251019.1705)
 -->
<!-- Pages: 1 -->
<svg width="158pt" height="91pt"
 viewBox="0.00 0.00 158.00 91.00" xmlns="http://www.w3.org/2000/svg" xmlns:xlink="http://www.w3.org/1999/xlink">
<g id="graph0" class="graph" transform="scale(1 1) rotate(0) translate(4 87.49)">
<polygon fill="white" stroke="none" points="-4,4 -4,-87.49 153.5,-87.49 153.5,4 -4,4"/>
<!-- &#45;1 -->
<g id="node1" class="node">
<title>&#45;1</title>
<polygon fill="lightgray" stroke="black" points="23.5,-83.49 0,-83.49 0,-64.99 23.5,-64.99 23.5,-83.49"/>
<text xml:space="preserve" text-anchor="middle" x="11.75" y="-70.94" font-family="Times New Roman,serif" font-size="9.00">&#45;1</text>
</g>
<!-- 1 -->
<g id="node6" class="node">
<title>1</title>
<ellipse fill="lightblue" stroke="black" cx="53.75" cy="-14.5" rx="14.5" ry="14.5"/>
<text xml:space="preserve" text-anchor="middle" x="53.75" y="-11.2" font-family="Times New Roman,serif" font-size="9.00">1</text>
</g>
<!-- &#45;1&#45;&gt;1 -->
<g id="edge1" class="edge">
<title>&#45;1&#45;&gt;1</title>
<path fill="none" stroke="green" stroke-width="0.18" d="M17.95,-64.72C23.59,-56.96 32.15,-45.2 39.48,-35.12"/>
<polygon fill="green" stroke="green" stroke-width="0.18" points="42.29,-37.2 45.34,-27.05 36.63,-33.08 42.29,-37.2"/>
</g>
<!-- &#45;2 -->
<g id="node2" class="node">
<title>&#45;2</title>
<polygon fill="lightgray" stroke="black" points="65.5,-83.49 42,-83.49 42,-64.99 65.5,-64.99 65.5,-83.49"/>
<text xml:space="preserve" text-anchor="middle" x="53.75" y="-70.94" font-family="Times New Roman,serif" font-size="9.00">&#45;2</text>
</g>
<!-- 0 -->
<g id="node5" class="node">
<title>0</title>
<ellipse fill="lightblue" stroke="black" cx="100.75" cy="-14.5" rx="14.5" ry="14.5"/>
<text xml:space="preserve" text-anchor="middle" x="100.75" y="-11.2" font-family="Times New Roman,serif" font-size="9.00">0</text>
</g>
<!-- &#45;2&#45;&gt;0 -->
<g id="edge2" class="edge">
<title>&#45;2&#45;&gt;0</title>
<path fill="none" stroke="red" stroke-width="0.37" d="M60.69,-64.72C67.15,-56.78 77.01,-44.66 85.34,-34.43"/>
<polygon fill="red" stroke="red" stroke-width="0.37" points="87.91,-36.82 91.5,-26.86 82.48,-32.4 87.91,-36.82"/>
</g>
<!-- &#45;2&#45;&gt;1 -->
<g id="edge3" class="edge">
<title>&#45;2&#45;&gt;1</title>
<path fill="none" stroke="red" stroke-width="0.15" d="M53.75,-64.72C53.75,-58.05 53.75,-48.42 53.75,-39.45"/>
<polygon fill="red" stroke="red" stroke-width="0.15" points="57.25,-39.66 53.75,-29.66 50.25,-39.66 57.25,-39.66"/>
</g>
<!-- &#45;3 -->
<g id="node3" class="node">
<title>&#45;3</title>
<polygon fill="lightgray" stroke="black" points="107.5,-83.49 84,-83.49 84,-64.99 107.5,-64.99 107.5,-83.49"/>
<text xml:space="preserve" text-anchor="middle" x="95.75" y="-70.94" font-family="Times New Roman,serif" font-size="9.00">&#45;3</text>
</g>
<!-- &#45;3&#45;&gt;0 -->
<g id="edge4" class="edge">
<title>&#45;3&#45;&gt;0</title>
<path fill="none" stroke="red" stroke-width="0.35" d="M96.49,-64.72C97.06,-58.12 97.88,-48.63 98.65,-39.74"/>
<polygon fill="red" stroke="red" stroke-width="0.35" points="102.12,-40.23 99.5,-29.96 95.15,-39.62 102.12,-40.23"/>
</g>
<!-- &#45;3&#45;&gt;1 -->
<g id="edge5" class="edge">
<title>&#45;3&#45;&gt;1</title>
<path fill="none" stroke="green" stroke-width="0.24" d="M89.55,-64.72C83.91,-56.96 75.35,-45.2 68.02,-35.12"/>
<polygon fill="green" stroke="green" stroke-width="0.24" points="70.93,-33.16 62.22,-27.13 65.27,-37.28 70.93,-33.16"/>
</g>
<!-- &#45;4 -->
<g id="node4" class="node">
<title>&#45;4</title>
<polygon fill="lightgray" stroke="black" points="149.5,-83.49 126,-83.49 126,-64.99 149.5,-64.99 149.5,-83.49"/>
<text xml:space="preserve" text-anchor="middle" x="137.75" y="-70.94" font-family="Times New Roman,serif" font-size="9.00">&#45;4</text>
</g>
<!-- &#45;4&#45;&gt;0 -->
<g id="edge6" class="edge">
<title>&#45;4&#45;&gt;0</title>
<path fill="none" stroke="green" stroke-width="0.25" d="M132.29,-64.72C127.43,-57.13 120.12,-45.72 113.76,-35.8"/>
<polygon fill="green" stroke="green" stroke-width="0.25" points="116.83,-34.11 108.49,-27.58 110.94,-37.89 116.83,-34.11"/>
</g>
<!-- &#45;4&#45;&gt;1 -->
<g id="edge7" class="edge">
<title>&#45;4&#45;&gt;1</title>
<path fill="none" stroke="green" stroke-width="0.76" d="M125.71,-64.97C112.42,-55.83 90.75,-40.93 74.66,-29.87"/>
<polygon fill="green" stroke="green" stroke-width="0.76" points="76.67,-27 66.45,-24.22 72.7,-32.77 76.67,-27"/>
</g>
</g>
</svg>
