<?xml version="1.0" encoding="UTF-8" standalone="no"?>
<!DOCTYPE svg PUBLIC "-//W3C//DTD SVG 1.1//EN"
 "http://www.w3.org/Graphics/SVG/1.1/DTD/svg11.dtd">
<!-- Generated by graphviz version 14.0.2 (20251019.1705)
 -->
<!-- Pages: 1 -->
<svg width="158pt" height="91pt"
 viewBox="0.00 0.00 158.00 91.00" xmlns="http://www.w3.org/2000/svg" xmlns:xlink="http://www.w3.org/1999/xlink">
<g id="graph0" class="graph" transform="scale(1 1) rotate(0) translate(4 87.49)">
<polygon fill="white" stroke="none" points="-4,4 -4,-87.49 153.5,-87.49 153.5,4 -4,4"/>
<!-- &#45;1 -->
<g id="node1" class="node">
<title>&#45;1</title>
<polygon fill="lightgray" stroke="black" points="23.5,-83.49 0,-83.49 0,-64.99 23.5,-64.99 23.5,-83.49"/>
<text xml:space="preserve" text-anchor="middle" x="11.75" y="-70.94" font-family="Times New Roman,serif" font-size="9.00">&#45;1</text>
</g>
<!-- 0 -->
<g id="node5" class="node">
<title>0</title>
<ellipse fill="lightblue" stroke="black" cx="48.75" cy="-14.5" rx="14.5" ry="14.5"/>
<text xml:space="preserve" text-anchor="middle" x="48.75" y="-11.2" font-family="Times New Roman,serif" font-size="9.00">0</text>
</g>
<!-- &#45;1&#45;&gt;0 -->
<g id="edge1" class="edge">
<title>&#45;1&#45;&gt;0</title>
<path fill="none" stroke="green" stroke-width="0.17" d="M17.21,-64.72C22.07,-57.13 29.38,-45.72 35.74,-35.8"/>
<polygon fill="green" stroke="green" stroke-width="0.17" points="38.63,-37.78 41.07,-27.47 32.73,-34.01 38.63,-37.78"/>
</g>
<!-- 1 -->
<g id="node6" class="node">
<title>1</title>
<ellipse fill="lightblue" stroke="black" cx="95.75" cy="-14.5" rx="14.5" ry="14.5"/>
<text xml:space="preserve" text-anchor="middle" x="95.75" y="-11.2" font-family="Times New Roman,serif" font-size="9.00">1</text>
</g>
<!-- &#45;1&#45;&gt;1 -->
<g id="edge2" class="edge">
<title>&#45;1&#45;&gt;1</title>
<path fill="none" stroke="green" stroke-width="0.22" d="M23.79,-64.97C37.34,-55.65 59.57,-40.37 75.74,-29.25"/>
<polygon fill="green" stroke="green" stroke-width="0.22" points="77.47,-32.31 83.73,-23.76 73.51,-26.54 77.47,-32.31"/>
</g>
<!-- &#45;2 -->
<g id="node2" class="node">
<title>&#45;2</title>
<polygon fill="lightgray" stroke="black" points="149.5,-83.49 126,-83.49 126,-64.99 149.5,-64.99 149.5,-83.49"/>
<text xml:space="preserve" text-anchor="middle" x="137.75" y="-70.94" font-family="Times New Roman,serif" font-size="9.00">&#45;2</text>
</g>
<!-- &#45;2&#45;&gt;1 -->
<g id="edge3" class="edge">
<title>&#45;2&#45;&gt;1</title>
<path fill="none" stroke="green" stroke-width="0.16" d="M131.55,-64.72C125.91,-56.96 117.35,-45.2 110.02,-35.12"/>
<polygon fill="green" stroke="green" stroke-width="0.16" points="112.85,-33.06 104.14,-27.03 107.19,-37.18 112.85,-33.06"/>
</g>
<!-- &#45;3 -->
<g id="node3" class="node">
<title>&#45;3</title>
<polygon fill="lightgray" stroke="black" points="65.5,-83.49 42,-83.49 42,-64.99 65.5,-64.99 65.5,-83.49"/>
<text xml:space="preserve" text-anchor="middle" x="53.75" y="-70.94" font-family="Times New Roman,serif" font-size="9.00">&#45;3</text>
</g>
<!-- &#45;3&#45;&gt;0 -->
<g id="edge4" class="edge">
<title>&#45;3&#45;&gt;0</title>
<path fill="none" stroke="red" stroke-width="0.25" d="M53.01,-64.72C52.44,-58.12 51.62,-48.63 50.85,-39.74"/>
<polygon fill="red" stroke="red" stroke-width="0.25" points="54.34,-39.47 49.99,-29.81 47.36,-40.07 54.34,-39.47"/>
</g>
<!-- &#45;3&#45;&gt;1 -->
<g id="edge5" class="edge">
<title>&#45;3&#45;&gt;1</title>
<path fill="none" stroke="green" stroke-width="0.16" d="M59.95,-64.72C65.65,-56.88 74.32,-44.96 81.7,-34.81"/>
<polygon fill="green" stroke="green" stroke-width="0.16" points="84.31,-37.17 87.36,-27.03 78.65,-33.06 84.31,-37.17"/>
</g>
<!-- &#45;4 -->
<g id="node4" class="node">
<title>&#45;4</title>
<polygon fill="lightgray" stroke="black" points="107.5,-83.49 84,-83.49 84,-64.99 107.5,-64.99 107.5,-83.49"/>
<text xml:space="preserve" text-anchor="middle" x="95.75" y="-70.94" font-family="Times New Roman,serif" font-size="9.00">&#45;4</text>
</g>
<!-- &#45;4&#45;&gt;0 -->
<g id="edge6" class="edge">
<title>&#45;4&#45;&gt;0</title>
<path fill="none" stroke="green" stroke-width="0.14" d="M88.81,-64.72C82.29,-56.7 72.29,-44.42 63.91,-34.13"/>
<polygon fill="green" stroke="green" stroke-width="0.14" points="66.8,-32.13 57.77,-26.58 61.37,-36.55 66.8,-32.13"/>
</g>
<!-- &#45;4&#45;&gt;1 -->
<g id="edge7" class="edge">
<title>&#45;4&#45;&gt;1</title>
<path fill="none" stroke="green" stroke-width="0.28" d="M95.75,-64.72C95.75,-58.12 95.75,-48.63 95.75,-39.74"/>
<polygon fill="green" stroke="green" stroke-width="0.28" points="99.25,-39.85 95.75,-29.85 92.25,-39.85 99.25,-39.85"/>
</g>
</g>
</svg>
