<?xml version="1.0" encoding="UTF-8" standalone="no"?>
<!DOCTYPE svg PUBLIC "-//W3C//DTD SVG 1.1//EN"
 "http://www.w3.org/Graphics/SVG/1.1/DTD/svg11.dtd">
<!-- Generated by graphviz version 14.0.2 (20251019.1705)
 -->
<!-- Pages: 1 -->
<svg width="324pt" height="176pt"
 viewBox="0.00 0.00 324.00 176.00" xmlns="http://www.w3.org/2000/svg" xmlns:xlink="http://www.w3.org/1999/xlink">
<g id="graph0" class="graph" transform="scale(1 1) rotate(0) translate(4 171.57)">
<polygon fill="white" stroke="none" points="-4,4 -4,-171.57 319.79,-171.57 319.79,4 -4,4"/>
<!-- &#45;1 -->
<g id="node1" class="node">
<title>&#45;1</title>
<polygon fill="lightgray" stroke="black" points="35.79,-167.57 12.29,-167.57 12.29,-149.07 35.79,-149.07 35.79,-167.57"/>
<text xml:space="preserve" text-anchor="middle" x="24.04" y="-155.02" font-family="Times New Roman,serif" font-size="9.00">&#45;1</text>
</g>
<!-- 5500 -->
<g id="node11" class="node">
<title>5500</title>
<ellipse fill="white" stroke="black" cx="24.04" cy="-89.03" rx="24.04" ry="24.04"/>
<text xml:space="preserve" text-anchor="middle" x="24.04" y="-85.73" font-family="Times New Roman,serif" font-size="9.00">5500</text>
</g>
<!-- &#45;1&#45;&gt;5500 -->
<g id="edge2" class="edge">
<title>&#45;1&#45;&gt;5500</title>
<path fill="none" stroke="red" stroke-width="0.14" d="M24.04,-148.8C24.04,-142.31 24.04,-132.92 24.04,-123.54"/>
<polygon fill="red" stroke="red" stroke-width="0.14" points="27.54,-123.72 24.04,-113.72 20.54,-123.72 27.54,-123.72"/>
</g>
<!-- &#45;2 -->
<g id="node2" class="node">
<title>&#45;2</title>
<polygon fill="lightgray" stroke="black" points="77.79,-167.57 54.29,-167.57 54.29,-149.07 77.79,-149.07 77.79,-167.57"/>
<text xml:space="preserve" text-anchor="middle" x="66.04" y="-155.02" font-family="Times New Roman,serif" font-size="9.00">&#45;2</text>
</g>
<!-- &#45;3 -->
<g id="node3" class="node">
<title>&#45;3</title>
<polygon fill="lightgray" stroke="black" points="119.79,-167.57 96.29,-167.57 96.29,-149.07 119.79,-149.07 119.79,-167.57"/>
<text xml:space="preserve" text-anchor="middle" x="108.04" y="-155.02" font-family="Times New Roman,serif" font-size="9.00">&#45;3</text>
</g>
<!-- 6625 -->
<g id="node12" class="node">
<title>6625</title>
<ellipse fill="white" stroke="black" cx="129.04" cy="-89.03" rx="24.04" ry="24.04"/>
<text xml:space="preserve" text-anchor="middle" x="129.04" y="-85.73" font-family="Times New Roman,serif" font-size="9.00">6625</text>
</g>
<!-- &#45;3&#45;&gt;6625 -->
<g id="edge4" class="edge">
<title>&#45;3&#45;&gt;6625</title>
<path fill="none" stroke="red" stroke-width="1.01" d="M110.7,-148.8C112.75,-142.24 115.72,-132.73 118.67,-123.26"/>
<polygon fill="red" stroke="red" stroke-width="1.01" points="121.99,-124.38 121.63,-113.79 115.31,-122.3 121.99,-124.38"/>
</g>
<!-- &#45;4 -->
<g id="node4" class="node">
<title>&#45;4</title>
<polygon fill="lightgray" stroke="black" points="231.79,-167.57 208.29,-167.57 208.29,-149.07 231.79,-149.07 231.79,-167.57"/>
<text xml:space="preserve" text-anchor="middle" x="220.04" y="-155.02" font-family="Times New Roman,serif" font-size="9.00">&#45;4</text>
</g>
<!-- 0 -->
<g id="node9" class="node">
<title>0</title>
<ellipse fill="lightblue" stroke="black" cx="227.04" cy="-89.03" rx="14.5" ry="14.5"/>
<text xml:space="preserve" text-anchor="middle" x="227.04" y="-85.73" font-family="Times New Roman,serif" font-size="9.00">0</text>
</g>
<!-- &#45;4&#45;&gt;0 -->
<g id="edge3" class="edge">
<title>&#45;4&#45;&gt;0</title>
<path fill="none" stroke="red" stroke-width="1.29" d="M220.93,-148.8C221.79,-140.49 223.15,-127.43 224.37,-115.73"/>
<polygon fill="red" stroke="red" stroke-width="1.29" points="227.85,-116.1 225.4,-105.79 220.89,-115.38 227.85,-116.1"/>
</g>
<!-- &#45;5 -->
<g id="node5" class="node">
<title>&#45;5</title>
<polygon fill="lightgray" stroke="black" points="194.79,-98.28 171.29,-98.28 171.29,-79.78 194.79,-79.78 194.79,-98.28"/>
<text xml:space="preserve" text-anchor="middle" x="183.04" y="-85.73" font-family="Times New Roman,serif" font-size="9.00">&#45;5</text>
</g>
<!-- 1 -->
<g id="node10" class="node">
<title>1</title>
<ellipse fill="lightblue" stroke="black" cx="156.04" cy="-14.5" rx="14.5" ry="14.5"/>
<text xml:space="preserve" text-anchor="middle" x="156.04" y="-11.2" font-family="Times New Roman,serif" font-size="9.00">1</text>
</g>
<!-- &#45;5&#45;&gt;1 -->
<g id="edge1" class="edge">
<title>&#45;5&#45;&gt;1</title>
<path fill="none" stroke="green" stroke-width="0.77" d="M179.84,-79.43C176.13,-69.48 169.89,-52.69 164.72,-38.81"/>
<polygon fill="green" stroke="green" stroke-width="0.77" points="168.05,-37.73 161.29,-29.58 161.49,-40.18 168.05,-37.73"/>
</g>
<!-- &#45;6 -->
<g id="node6" class="node">
<title>&#45;6</title>
<polygon fill="lightgray" stroke="black" points="161.79,-167.57 138.29,-167.57 138.29,-149.07 161.79,-149.07 161.79,-167.57"/>
<text xml:space="preserve" text-anchor="middle" x="150.04" y="-155.02" font-family="Times New Roman,serif" font-size="9.00">&#45;6</text>
</g>
<!-- &#45;6&#45;&gt;6625 -->
<g id="edge6" class="edge">
<title>&#45;6&#45;&gt;6625</title>
<path fill="none" stroke="green" stroke-width="1.18" d="M147.38,-148.8C145.36,-142.32 142.43,-132.93 139.51,-123.56"/>
<polygon fill="green" stroke="green" stroke-width="1.18" points="142.85,-122.54 136.53,-114.04 136.17,-124.63 142.85,-122.54"/>
</g>
<!-- &#45;7 -->
<g id="node7" class="node">
<title>&#45;7</title>
<polygon fill="lightgray" stroke="black" points="315.79,-167.57 292.29,-167.57 292.29,-149.07 315.79,-149.07 315.79,-167.57"/>
<text xml:space="preserve" text-anchor="middle" x="304.04" y="-155.02" font-family="Times New Roman,serif" font-size="9.00">&#45;7</text>
</g>
<!-- &#45;8 -->
<g id="node8" class="node">
<title>&#45;8</title>
<polygon fill="lightgray" stroke="black" points="273.79,-167.57 250.29,-167.57 250.29,-149.07 273.79,-149.07 273.79,-167.57"/>
<text xml:space="preserve" text-anchor="middle" x="262.04" y="-155.02" font-family="Times New Roman,serif" font-size="9.00">&#45;8</text>
</g>
<!-- &#45;8&#45;&gt;0 -->
<g id="edge7" class="edge">
<title>&#45;8&#45;&gt;0</title>
<path fill="none" stroke="green" stroke-width="0.32" d="M257.61,-148.8C252.74,-139.45 244.74,-124.07 238.15,-111.39"/>
<polygon fill="green" stroke="green" stroke-width="0.32" points="241.4,-110.04 233.68,-102.79 235.18,-113.27 241.4,-110.04"/>
</g>
<!-- 6625&#45;&gt;1 -->
<g id="edge5" class="edge">
<title>6625&#45;&gt;1</title>
<path fill="none" stroke="green" stroke-width="0.48" d="M137.14,-66.27C140.45,-57.39 144.27,-47.12 147.61,-38.16"/>
<polygon fill="green" stroke="green" stroke-width="0.48" points="150.78,-39.66 150.99,-29.07 144.22,-37.22 150.78,-39.66"/>
</g>
</g>
</svg>
