<?xml version="1.0" encoding="UTF-8" standalone="no"?>
<!DOCTYPE svg PUBLIC "-//W3C//DTD SVG 1.1//EN"
 "http://www.w3.org/Graphics/SVG/1.1/DTD/svg11.dtd">
<!-- Generated by graphviz version 14.0.2 (20251019.1705)
 -->
<!-- Pages: 1 -->
<svg width="250pt" height="272pt"
 viewBox="0.00 0.00 250.00 272.00" xmlns="http://www.w3.org/2000/svg" xmlns:xlink="http://www.w3.org/1999/xlink">
<g id="graph0" class="graph" transform="scale(1 1) rotate(0) translate(4 268.39)">
<polygon fill="white" stroke="none" points="-4,4 -4,-268.39 246.44,-268.39 246.44,4 -4,4"/>
<!-- &#45;1 -->
<g id="node1" class="node">
<title>&#45;1</title>
<polygon fill="lightgray" stroke="black" points="23.5,-264.39 0,-264.39 0,-245.89 23.5,-245.89 23.5,-264.39"/>
<text xml:space="preserve" text-anchor="middle" x="11.75" y="-251.84" font-family="Times New Roman,serif" font-size="9.00">&#45;1</text>
</g>
<!-- &#45;2 -->
<g id="node2" class="node">
<title>&#45;2</title>
<polygon fill="lightgray" stroke="black" points="68.5,-111.01 45,-111.01 45,-92.51 68.5,-92.51 68.5,-111.01"/>
<text xml:space="preserve" text-anchor="middle" x="56.75" y="-98.46" font-family="Times New Roman,serif" font-size="9.00">&#45;2</text>
</g>
<!-- 767 -->
<g id="node15" class="node">
<title>767</title>
<ellipse fill="white" stroke="black" cx="110.75" cy="-20.86" rx="20.86" ry="20.86"/>
<text xml:space="preserve" text-anchor="middle" x="110.75" y="-17.56" font-family="Times New Roman,serif" font-size="9.00">767</text>
</g>
<!-- &#45;2&#45;&gt;767 -->
<g id="edge6" class="edge">
<title>&#45;2&#45;&gt;767</title>
<path fill="none" stroke="green" stroke-width="0.2" d="M62.74,-92.02C70.15,-81.18 83.1,-62.27 93.68,-46.8"/>
<polygon fill="green" stroke="green" stroke-width="0.2" points="96.33,-49.12 99.09,-38.89 90.56,-45.17 96.33,-49.12"/>
</g>
<!-- &#45;3 -->
<g id="node3" class="node">
<title>&#45;3</title>
<polygon fill="lightgray" stroke="black" points="185.5,-195.09 162,-195.09 162,-176.59 185.5,-176.59 185.5,-195.09"/>
<text xml:space="preserve" text-anchor="middle" x="173.75" y="-182.54" font-family="Times New Roman,serif" font-size="9.00">&#45;3</text>
</g>
<!-- 2147 -->
<g id="node11" class="node">
<title>2147</title>
<ellipse fill="white" stroke="black" cx="110.75" cy="-101.76" rx="24.04" ry="24.04"/>
<text xml:space="preserve" text-anchor="middle" x="110.75" y="-98.46" font-family="Times New Roman,serif" font-size="9.00">2147</text>
</g>
<!-- &#45;3&#45;&gt;2147 -->
<g id="edge8" class="edge">
<title>&#45;3&#45;&gt;2147</title>
<path fill="none" stroke="red" stroke-width="0.19" stroke-dasharray="1,5" d="M167.25,-176.37C158.84,-165.42 143.8,-145.83 131.36,-129.61"/>
<polygon fill="red" stroke="red" stroke-width="0.19" points="134.17,-127.53 125.31,-121.73 128.62,-131.79 134.17,-127.53"/>
</g>
<!-- 766 -->
<g id="node14" class="node">
<title>766</title>
<ellipse fill="white" stroke="black" cx="215.75" cy="-101.76" rx="20.86" ry="20.86"/>
<text xml:space="preserve" text-anchor="middle" x="215.75" y="-98.46" font-family="Times New Roman,serif" font-size="9.00">766</text>
</g>
<!-- &#45;3&#45;&gt;766 -->
<g id="edge1" class="edge">
<title>&#45;3&#45;&gt;766</title>
<path fill="none" stroke="green" stroke-width="0.66" d="M178.09,-176.37C183.61,-165.58 193.41,-146.42 201.63,-130.35"/>
<polygon fill="green" stroke="green" stroke-width="0.66" points="204.6,-132.24 206.04,-121.74 198.37,-129.05 204.6,-132.24"/>
</g>
<!-- &#45;4 -->
<g id="node4" class="node">
<title>&#45;4</title>
<polygon fill="lightgray" stroke="black" points="176.5,-111.01 153,-111.01 153,-92.51 176.5,-92.51 176.5,-111.01"/>
<text xml:space="preserve" text-anchor="middle" x="164.75" y="-98.46" font-family="Times New Roman,serif" font-size="9.00">&#45;4</text>
</g>
<!-- 0 -->
<g id="node9" class="node">
<title>0</title>
<ellipse fill="lightblue" stroke="black" cx="164.75" cy="-20.86" rx="14.5" ry="14.5"/>
<text xml:space="preserve" text-anchor="middle" x="164.75" y="-17.56" font-family="Times New Roman,serif" font-size="9.00">0</text>
</g>
<!-- &#45;4&#45;&gt;0 -->
<g id="edge7" class="edge">
<title>&#45;4&#45;&gt;0</title>
<path fill="none" stroke="red" stroke-width="0.64" d="M164.75,-92.02C164.75,-81.04 164.75,-61.76 164.75,-46.19"/>
<polygon fill="red" stroke="red" stroke-width="0.64" points="168.25,-46.64 164.75,-36.64 161.25,-46.64 168.25,-46.64"/>
</g>
<!-- &#45;4&#45;&gt;767 -->
<g id="edge5" class="edge">
<title>&#45;4&#45;&gt;767</title>
<path fill="none" stroke="red" stroke-width="0.97" d="M158.76,-92.02C151.56,-81.48 139.12,-63.31 128.71,-48.1"/>
<polygon fill="red" stroke="red" stroke-width="0.97" points="131.6,-46.13 123.07,-39.86 125.83,-50.09 131.6,-46.13"/>
</g>
<!-- &#45;5 -->
<g id="node5" class="node">
<title>&#45;5</title>
<polygon fill="lightgray" stroke="black" points="241.5,-264.39 218,-264.39 218,-245.89 241.5,-245.89 241.5,-264.39"/>
<text xml:space="preserve" text-anchor="middle" x="229.75" y="-251.84" font-family="Times New Roman,serif" font-size="9.00">&#45;5</text>
</g>
<!-- &#45;6 -->
<g id="node6" class="node">
<title>&#45;6</title>
<polygon fill="lightgray" stroke="black" points="227.5,-195.09 204,-195.09 204,-176.59 227.5,-176.59 227.5,-195.09"/>
<text xml:space="preserve" text-anchor="middle" x="215.75" y="-182.54" font-family="Times New Roman,serif" font-size="9.00">&#45;6</text>
</g>
<!-- &#45;6&#45;&gt;766 -->
<g id="edge3" class="edge">
<title>&#45;6&#45;&gt;766</title>
<path fill="none" stroke="red" stroke-width="0.91" d="M215.75,-176.37C215.75,-166.38 215.75,-149.21 215.75,-133.97"/>
<polygon fill="red" stroke="red" stroke-width="0.91" points="219.25,-134.21 215.75,-124.21 212.25,-134.21 219.25,-134.21"/>
</g>
<!-- &#45;7 -->
<g id="node7" class="node">
<title>&#45;7</title>
<polygon fill="lightgray" stroke="black" points="199.5,-264.39 176,-264.39 176,-245.89 199.5,-245.89 199.5,-264.39"/>
<text xml:space="preserve" text-anchor="middle" x="187.75" y="-251.84" font-family="Times New Roman,serif" font-size="9.00">&#45;7</text>
</g>
<!-- 8026 -->
<g id="node13" class="node">
<title>8026</title>
<ellipse fill="white" stroke="black" cx="119.75" cy="-185.84" rx="24.04" ry="24.04"/>
<text xml:space="preserve" text-anchor="middle" x="119.75" y="-182.54" font-family="Times New Roman,serif" font-size="9.00">8026</text>
</g>
<!-- &#45;7&#45;&gt;8026 -->
<g id="edge11" class="edge">
<title>&#45;7&#45;&gt;8026</title>
<path fill="none" stroke="green" stroke-width="0.28" d="M179.14,-245.61C170.32,-236.89 156.2,-222.92 143.95,-210.79"/>
<polygon fill="green" stroke="green" stroke-width="0.28" points="146.49,-208.38 136.92,-203.84 141.57,-213.36 146.49,-208.38"/>
</g>
<!-- &#45;7&#45;&gt;766 -->
<g id="edge2" class="edge">
<title>&#45;7&#45;&gt;766</title>
<path fill="none" stroke="red" stroke-width="0.57" stroke-dasharray="1,5" d="M199.67,-247.48C211.59,-240.07 229.21,-226.85 236.75,-209.89 248.11,-184.32 239.39,-152.62 229.96,-130.36"/>
<polygon fill="red" stroke="red" stroke-width="0.57" points="233.19,-129 225.87,-121.34 226.82,-131.89 233.19,-129"/>
</g>
<!-- &#45;8 -->
<g id="node8" class="node">
<title>&#45;8</title>
<polygon fill="lightgray" stroke="black" points="65.5,-264.39 42,-264.39 42,-245.89 65.5,-245.89 65.5,-264.39"/>
<text xml:space="preserve" text-anchor="middle" x="53.75" y="-251.84" font-family="Times New Roman,serif" font-size="9.00">&#45;8</text>
</g>
<!-- 6057 -->
<g id="node12" class="node">
<title>6057</title>
<ellipse fill="white" stroke="black" cx="53.75" cy="-185.84" rx="24.04" ry="24.04"/>
<text xml:space="preserve" text-anchor="middle" x="53.75" y="-182.54" font-family="Times New Roman,serif" font-size="9.00">6057</text>
</g>
<!-- &#45;8&#45;&gt;6057 -->
<g id="edge13" class="edge">
<title>&#45;8&#45;&gt;6057</title>
<path fill="none" stroke="green" stroke-width="0.25" d="M53.75,-245.61C53.75,-239.19 53.75,-229.93 53.75,-220.65"/>
<polygon fill="green" stroke="green" stroke-width="0.25" points="57.25,-220.69 53.75,-210.69 50.25,-220.69 57.25,-220.69"/>
</g>
<!-- 1 -->
<g id="node10" class="node">
<title>1</title>
<ellipse fill="lightblue" stroke="black" cx="215.75" cy="-20.86" rx="14.5" ry="14.5"/>
<text xml:space="preserve" text-anchor="middle" x="215.75" y="-17.56" font-family="Times New Roman,serif" font-size="9.00">1</text>
</g>
<!-- 2147&#45;&gt;767 -->
<g id="edge9" class="edge">
<title>2147&#45;&gt;767</title>
<path fill="none" stroke="red" stroke-width="0.51" d="M110.75,-77.51C110.75,-69.76 110.75,-61 110.75,-52.77"/>
<polygon fill="red" stroke="red" stroke-width="0.51" points="114.25,-52.78 110.75,-42.78 107.25,-52.78 114.25,-52.78"/>
</g>
<!-- 6057&#45;&gt;2147 -->
<g id="edge10" class="edge">
<title>6057&#45;&gt;2147</title>
<path fill="none" stroke="green" stroke-width="0.62" d="M67.26,-165.39C74.43,-155.07 83.37,-142.19 91.27,-130.81"/>
<polygon fill="green" stroke="green" stroke-width="0.62" points="93.97,-133.06 96.8,-122.85 88.22,-129.07 93.97,-133.06"/>
</g>
<!-- 8026&#45;&gt;2147 -->
<g id="edge14" class="edge">
<title>8026&#45;&gt;2147</title>
<path fill="none" stroke="red" stroke-width="0.23" d="M117.2,-161.54C116.33,-153.66 115.35,-144.69 114.41,-136.18"/>
<polygon fill="red" stroke="red" stroke-width="0.23" points="117.92,-136.03 113.35,-126.47 110.96,-136.8 117.92,-136.03"/>
</g>
<!-- 8026&#45;&gt;766 -->
<g id="edge12" class="edge">
<title>8026&#45;&gt;766</title>
<path fill="none" stroke="red" stroke-width="0.25" stroke-dasharray="1,5" d="M137.81,-169.4C153.3,-156.15 175.73,-136.98 192.56,-122.59"/>
<polygon fill="red" stroke="red" stroke-width="0.25" points="194.7,-125.37 200.02,-116.21 190.15,-120.05 194.7,-125.37"/>
</g>
<!-- 766&#45;&gt;1 -->
<g id="edge4" class="edge">
<title>766&#45;&gt;1</title>
<path fill="none" stroke="red" stroke-width="0.67" d="M215.75,-80.44C215.75,-70.11 215.75,-57.48 215.75,-46.59"/>
<polygon fill="red" stroke="red" stroke-width="0.67" points="219.25,-46.66 215.75,-36.66 212.25,-46.66 219.25,-46.66"/>
</g>
</g>
</svg>
