<?xml version="1.0" encoding="utf-8" standalone="no"?>
<!DOCTYPE svg PUBLIC "-//W3C//DTD SVG 1.1//EN"
  "http://www.w3.org/Graphics/SVG/1.1/DTD/svg11.dtd">
<svg xmlns:xlink="http://www.w3.org/1999/xlink" width="460.8pt" height="345.6pt" viewBox="0 0 460.8 345.6" xmlns="http://www.w3.org/2000/svg" version="1.1">
 <metadata>
  <rdf:RDF xmlns:dc="http://purl.org/dc/elements/1.1/" xmlns:cc="http://creativecommons.org/ns#" xmlns:rdf="http://www.w3.org/1999/02/22-rdf-syntax-ns#">
   <cc:Work>
    <dc:type rdf:resource="http://purl.org/dc/dcmitype/StillImage"/>
    <dc:date>2025-10-23T13:35:08.824938</dc:date>
    <dc:format>image/svg+xml</dc:format>
    <dc:creator>
     <cc:Agent>
      <dc:title>Matplotlib v3.10.7, https://matplotlib.org/</dc:title>
     </cc:Agent>
    </dc:creator>
   </cc:Work>
  </rdf:RDF>
 </metadata>
 <defs>
  <style type="text/css">*{stroke-linejoin: round; stroke-linecap: butt}</style>
 </defs>
 <g id="figure_1">
  <g id="patch_1">
   <path d="M 0 345.6 
L 460.8 345.6 
L 460.8 0 
L 0 0 
z
" style="fill: #ffffff"/>
  </g>
  <g id="axes_1">
   <g id="patch_2">
    <path d="M 57.6 307.584 
L 414.72 307.584 
L 414.72 41.472 
L 57.6 41.472 
z
" style="fill: #ffffff"/>
   </g>
   <g id="matplotlib.axis_1">
    <g id="xtick_1">
     <g id="line2d_1">
      <path d="M 73.832727 307.584 
L 73.832727 41.472 
" clip-path="url(#p3a32895756)" style="fill: none; stroke: #b0b0b0; stroke-width: 0.8; stroke-linecap: square"/>
     </g>
     <g id="line2d_2">
      <defs>
       <path id="mc49c2cc7ce" d="M 0 0 
L 0 3.5 
" style="stroke: #000000; stroke-width: 0.8"/>
      </defs>
      <g>
       <use xlink:href="#mc49c2cc7ce" x="73.832727" y="307.584" style="stroke: #000000; stroke-width: 0.8"/>
      </g>
     </g>
     <g id="text_1">
      <!-- 0 -->
      <g transform="translate(70.651477 322.182437) scale(0.1 -0.1)">
       <defs>
        <path id="DejaVuSans-30" d="M 2034 4250 
Q 1547 4250 1301 3770 
Q 1056 3291 1056 2328 
Q 1056 1369 1301 889 
Q 1547 409 2034 409 
Q 2525 409 2770 889 
Q 3016 1369 3016 2328 
Q 3016 3291 2770 3770 
Q 2525 4250 2034 4250 
z
M 2034 4750 
Q 2819 4750 3233 4129 
Q 3647 3509 3647 2328 
Q 3647 1150 3233 529 
Q 2819 -91 2034 -91 
Q 1250 -91 836 529 
Q 422 1150 422 2328 
Q 422 3509 836 4129 
Q 1250 4750 2034 4750 
z
" transform="scale(0.015625)"/>
       </defs>
       <use xlink:href="#DejaVuSans-30"/>
      </g>
     </g>
    </g>
    <g id="xtick_2">
     <g id="line2d_3">
      <path d="M 119.55872 307.584 
L 119.55872 41.472 
" clip-path="url(#p3a32895756)" style="fill: none; stroke: #b0b0b0; stroke-width: 0.8; stroke-linecap: square"/>
     </g>
     <g id="line2d_4">
      <g>
       <use xlink:href="#mc49c2cc7ce" x="119.55872" y="307.584" style="stroke: #000000; stroke-width: 0.8"/>
      </g>
     </g>
     <g id="text_2">
      <!-- 20 -->
      <g transform="translate(113.19622 322.182437) scale(0.1 -0.1)">
       <defs>
        <path id="DejaVuSans-32" d="M 1228 531 
L 3431 531 
L 3431 0 
L 469 0 
L 469 531 
Q 828 903 1448 1529 
Q 2069 2156 2228 2338 
Q 2531 2678 2651 2914 
Q 2772 3150 2772 3378 
Q 2772 3750 2511 3984 
Q 2250 4219 1831 4219 
Q 1534 4219 1204 4116 
Q 875 4013 500 3803 
L 500 4441 
Q 881 4594 1212 4672 
Q 1544 4750 1819 4750 
Q 2544 4750 2975 4387 
Q 3406 4025 3406 3419 
Q 3406 3131 3298 2873 
Q 3191 2616 2906 2266 
Q 2828 2175 2409 1742 
Q 1991 1309 1228 531 
z
" transform="scale(0.015625)"/>
       </defs>
       <use xlink:href="#DejaVuSans-32"/>
       <use xlink:href="#DejaVuSans-30" transform="translate(63.623047 0)"/>
      </g>
     </g>
    </g>
    <g id="xtick_3">
     <g id="line2d_5">
      <path d="M 165.284712 307.584 
L 165.284712 41.472 
" clip-path="url(#p3a32895756)" style="fill: none; stroke: #b0b0b0; stroke-width: 0.8; stroke-linecap: square"/>
     </g>
     <g id="line2d_6">
      <g>
       <use xlink:href="#mc49c2cc7ce" x="165.284712" y="307.584" style="stroke: #000000; stroke-width: 0.8"/>
      </g>
     </g>
     <g id="text_3">
      <!-- 40 -->
      <g transform="translate(158.922212 322.182437) scale(0.1 -0.1)">
       <defs>
        <path id="DejaVuSans-34" d="M 2419 4116 
L 825 1625 
L 2419 1625 
L 2419 4116 
z
M 2253 4666 
L 3047 4666 
L 3047 1625 
L 3713 1625 
L 3713 1100 
L 3047 1100 
L 3047 0 
L 2419 0 
L 2419 1100 
L 313 1100 
L 313 1709 
L 2253 4666 
z
" transform="scale(0.015625)"/>
       </defs>
       <use xlink:href="#DejaVuSans-34"/>
       <use xlink:href="#DejaVuSans-30" transform="translate(63.623047 0)"/>
      </g>
     </g>
    </g>
    <g id="xtick_4">
     <g id="line2d_7">
      <path d="M 211.010704 307.584 
L 211.010704 41.472 
" clip-path="url(#p3a32895756)" style="fill: none; stroke: #b0b0b0; stroke-width: 0.8; stroke-linecap: square"/>
     </g>
     <g id="line2d_8">
      <g>
       <use xlink:href="#mc49c2cc7ce" x="211.010704" y="307.584" style="stroke: #000000; stroke-width: 0.8"/>
      </g>
     </g>
     <g id="text_4">
      <!-- 60 -->
      <g transform="translate(204.648204 322.182437) scale(0.1 -0.1)">
       <defs>
        <path id="DejaVuSans-36" d="M 2113 2584 
Q 1688 2584 1439 2293 
Q 1191 2003 1191 1497 
Q 1191 994 1439 701 
Q 1688 409 2113 409 
Q 2538 409 2786 701 
Q 3034 994 3034 1497 
Q 3034 2003 2786 2293 
Q 2538 2584 2113 2584 
z
M 3366 4563 
L 3366 3988 
Q 3128 4100 2886 4159 
Q 2644 4219 2406 4219 
Q 1781 4219 1451 3797 
Q 1122 3375 1075 2522 
Q 1259 2794 1537 2939 
Q 1816 3084 2150 3084 
Q 2853 3084 3261 2657 
Q 3669 2231 3669 1497 
Q 3669 778 3244 343 
Q 2819 -91 2113 -91 
Q 1303 -91 875 529 
Q 447 1150 447 2328 
Q 447 3434 972 4092 
Q 1497 4750 2381 4750 
Q 2619 4750 2861 4703 
Q 3103 4656 3366 4563 
z
" transform="scale(0.015625)"/>
       </defs>
       <use xlink:href="#DejaVuSans-36"/>
       <use xlink:href="#DejaVuSans-30" transform="translate(63.623047 0)"/>
      </g>
     </g>
    </g>
    <g id="xtick_5">
     <g id="line2d_9">
      <path d="M 256.736697 307.584 
L 256.736697 41.472 
" clip-path="url(#p3a32895756)" style="fill: none; stroke: #b0b0b0; stroke-width: 0.8; stroke-linecap: square"/>
     </g>
     <g id="line2d_10">
      <g>
       <use xlink:href="#mc49c2cc7ce" x="256.736697" y="307.584" style="stroke: #000000; stroke-width: 0.8"/>
      </g>
     </g>
     <g id="text_5">
      <!-- 80 -->
      <g transform="translate(250.374197 322.182437) scale(0.1 -0.1)">
       <defs>
        <path id="DejaVuSans-38" d="M 2034 2216 
Q 1584 2216 1326 1975 
Q 1069 1734 1069 1313 
Q 1069 891 1326 650 
Q 1584 409 2034 409 
Q 2484 409 2743 651 
Q 3003 894 3003 1313 
Q 3003 1734 2745 1975 
Q 2488 2216 2034 2216 
z
M 1403 2484 
Q 997 2584 770 2862 
Q 544 3141 544 3541 
Q 544 4100 942 4425 
Q 1341 4750 2034 4750 
Q 2731 4750 3128 4425 
Q 3525 4100 3525 3541 
Q 3525 3141 3298 2862 
Q 3072 2584 2669 2484 
Q 3125 2378 3379 2068 
Q 3634 1759 3634 1313 
Q 3634 634 3220 271 
Q 2806 -91 2034 -91 
Q 1263 -91 848 271 
Q 434 634 434 1313 
Q 434 1759 690 2068 
Q 947 2378 1403 2484 
z
M 1172 3481 
Q 1172 3119 1398 2916 
Q 1625 2713 2034 2713 
Q 2441 2713 2670 2916 
Q 2900 3119 2900 3481 
Q 2900 3844 2670 4047 
Q 2441 4250 2034 4250 
Q 1625 4250 1398 4047 
Q 1172 3844 1172 3481 
z
" transform="scale(0.015625)"/>
       </defs>
       <use xlink:href="#DejaVuSans-38"/>
       <use xlink:href="#DejaVuSans-30" transform="translate(63.623047 0)"/>
      </g>
     </g>
    </g>
    <g id="xtick_6">
     <g id="line2d_11">
      <path d="M 302.462689 307.584 
L 302.462689 41.472 
" clip-path="url(#p3a32895756)" style="fill: none; stroke: #b0b0b0; stroke-width: 0.8; stroke-linecap: square"/>
     </g>
     <g id="line2d_12">
      <g>
       <use xlink:href="#mc49c2cc7ce" x="302.462689" y="307.584" style="stroke: #000000; stroke-width: 0.8"/>
      </g>
     </g>
     <g id="text_6">
      <!-- 100 -->
      <g transform="translate(292.918939 322.182437) scale(0.1 -0.1)">
       <defs>
        <path id="DejaVuSans-31" d="M 794 531 
L 1825 531 
L 1825 4091 
L 703 3866 
L 703 4441 
L 1819 4666 
L 2450 4666 
L 2450 531 
L 3481 531 
L 3481 0 
L 794 0 
L 794 531 
z
" transform="scale(0.015625)"/>
       </defs>
       <use xlink:href="#DejaVuSans-31"/>
       <use xlink:href="#DejaVuSans-30" transform="translate(63.623047 0)"/>
       <use xlink:href="#DejaVuSans-30" transform="translate(127.246094 0)"/>
      </g>
     </g>
    </g>
    <g id="xtick_7">
     <g id="line2d_13">
      <path d="M 348.188681 307.584 
L 348.188681 41.472 
" clip-path="url(#p3a32895756)" style="fill: none; stroke: #b0b0b0; stroke-width: 0.8; stroke-linecap: square"/>
     </g>
     <g id="line2d_14">
      <g>
       <use xlink:href="#mc49c2cc7ce" x="348.188681" y="307.584" style="stroke: #000000; stroke-width: 0.8"/>
      </g>
     </g>
     <g id="text_7">
      <!-- 120 -->
      <g transform="translate(338.644931 322.182437) scale(0.1 -0.1)">
       <use xlink:href="#DejaVuSans-31"/>
       <use xlink:href="#DejaVuSans-32" transform="translate(63.623047 0)"/>
       <use xlink:href="#DejaVuSans-30" transform="translate(127.246094 0)"/>
      </g>
     </g>
    </g>
    <g id="xtick_8">
     <g id="line2d_15">
      <path d="M 393.914673 307.584 
L 393.914673 41.472 
" clip-path="url(#p3a32895756)" style="fill: none; stroke: #b0b0b0; stroke-width: 0.8; stroke-linecap: square"/>
     </g>
     <g id="line2d_16">
      <g>
       <use xlink:href="#mc49c2cc7ce" x="393.914673" y="307.584" style="stroke: #000000; stroke-width: 0.8"/>
      </g>
     </g>
     <g id="text_8">
      <!-- 140 -->
      <g transform="translate(384.370923 322.182437) scale(0.1 -0.1)">
       <use xlink:href="#DejaVuSans-31"/>
       <use xlink:href="#DejaVuSans-34" transform="translate(63.623047 0)"/>
       <use xlink:href="#DejaVuSans-30" transform="translate(127.246094 0)"/>
      </g>
     </g>
    </g>
    <g id="text_9">
     <!-- Generations -->
     <g transform="translate(205.662344 335.860562) scale(0.1 -0.1)">
      <defs>
       <path id="DejaVuSans-47" d="M 3809 666 
L 3809 1919 
L 2778 1919 
L 2778 2438 
L 4434 2438 
L 4434 434 
Q 4069 175 3628 42 
Q 3188 -91 2688 -91 
Q 1594 -91 976 548 
Q 359 1188 359 2328 
Q 359 3472 976 4111 
Q 1594 4750 2688 4750 
Q 3144 4750 3555 4637 
Q 3966 4525 4313 4306 
L 4313 3634 
Q 3963 3931 3569 4081 
Q 3175 4231 2741 4231 
Q 1884 4231 1454 3753 
Q 1025 3275 1025 2328 
Q 1025 1384 1454 906 
Q 1884 428 2741 428 
Q 3075 428 3337 486 
Q 3600 544 3809 666 
z
" transform="scale(0.015625)"/>
       <path id="DejaVuSans-65" d="M 3597 1894 
L 3597 1613 
L 953 1613 
Q 991 1019 1311 708 
Q 1631 397 2203 397 
Q 2534 397 2845 478 
Q 3156 559 3463 722 
L 3463 178 
Q 3153 47 2828 -22 
Q 2503 -91 2169 -91 
Q 1331 -91 842 396 
Q 353 884 353 1716 
Q 353 2575 817 3079 
Q 1281 3584 2069 3584 
Q 2775 3584 3186 3129 
Q 3597 2675 3597 1894 
z
M 3022 2063 
Q 3016 2534 2758 2815 
Q 2500 3097 2075 3097 
Q 1594 3097 1305 2825 
Q 1016 2553 972 2059 
L 3022 2063 
z
" transform="scale(0.015625)"/>
       <path id="DejaVuSans-6e" d="M 3513 2113 
L 3513 0 
L 2938 0 
L 2938 2094 
Q 2938 2591 2744 2837 
Q 2550 3084 2163 3084 
Q 1697 3084 1428 2787 
Q 1159 2491 1159 1978 
L 1159 0 
L 581 0 
L 581 3500 
L 1159 3500 
L 1159 2956 
Q 1366 3272 1645 3428 
Q 1925 3584 2291 3584 
Q 2894 3584 3203 3211 
Q 3513 2838 3513 2113 
z
" transform="scale(0.015625)"/>
       <path id="DejaVuSans-72" d="M 2631 2963 
Q 2534 3019 2420 3045 
Q 2306 3072 2169 3072 
Q 1681 3072 1420 2755 
Q 1159 2438 1159 1844 
L 1159 0 
L 581 0 
L 581 3500 
L 1159 3500 
L 1159 2956 
Q 1341 3275 1631 3429 
Q 1922 3584 2338 3584 
Q 2397 3584 2469 3576 
Q 2541 3569 2628 3553 
L 2631 2963 
z
" transform="scale(0.015625)"/>
       <path id="DejaVuSans-61" d="M 2194 1759 
Q 1497 1759 1228 1600 
Q 959 1441 959 1056 
Q 959 750 1161 570 
Q 1363 391 1709 391 
Q 2188 391 2477 730 
Q 2766 1069 2766 1631 
L 2766 1759 
L 2194 1759 
z
M 3341 1997 
L 3341 0 
L 2766 0 
L 2766 531 
Q 2569 213 2275 61 
Q 1981 -91 1556 -91 
Q 1019 -91 701 211 
Q 384 513 384 1019 
Q 384 1609 779 1909 
Q 1175 2209 1959 2209 
L 2766 2209 
L 2766 2266 
Q 2766 2663 2505 2880 
Q 2244 3097 1772 3097 
Q 1472 3097 1187 3025 
Q 903 2953 641 2809 
L 641 3341 
Q 956 3463 1253 3523 
Q 1550 3584 1831 3584 
Q 2591 3584 2966 3190 
Q 3341 2797 3341 1997 
z
" transform="scale(0.015625)"/>
       <path id="DejaVuSans-74" d="M 1172 4494 
L 1172 3500 
L 2356 3500 
L 2356 3053 
L 1172 3053 
L 1172 1153 
Q 1172 725 1289 603 
Q 1406 481 1766 481 
L 2356 481 
L 2356 0 
L 1766 0 
Q 1100 0 847 248 
Q 594 497 594 1153 
L 594 3053 
L 172 3053 
L 172 3500 
L 594 3500 
L 594 4494 
L 1172 4494 
z
" transform="scale(0.015625)"/>
       <path id="DejaVuSans-69" d="M 603 3500 
L 1178 3500 
L 1178 0 
L 603 0 
L 603 3500 
z
M 603 4863 
L 1178 4863 
L 1178 4134 
L 603 4134 
L 603 4863 
z
" transform="scale(0.015625)"/>
       <path id="DejaVuSans-6f" d="M 1959 3097 
Q 1497 3097 1228 2736 
Q 959 2375 959 1747 
Q 959 1119 1226 758 
Q 1494 397 1959 397 
Q 2419 397 2687 759 
Q 2956 1122 2956 1747 
Q 2956 2369 2687 2733 
Q 2419 3097 1959 3097 
z
M 1959 3584 
Q 2709 3584 3137 3096 
Q 3566 2609 3566 1747 
Q 3566 888 3137 398 
Q 2709 -91 1959 -91 
Q 1206 -91 779 398 
Q 353 888 353 1747 
Q 353 2609 779 3096 
Q 1206 3584 1959 3584 
z
" transform="scale(0.015625)"/>
       <path id="DejaVuSans-73" d="M 2834 3397 
L 2834 2853 
Q 2591 2978 2328 3040 
Q 2066 3103 1784 3103 
Q 1356 3103 1142 2972 
Q 928 2841 928 2578 
Q 928 2378 1081 2264 
Q 1234 2150 1697 2047 
L 1894 2003 
Q 2506 1872 2764 1633 
Q 3022 1394 3022 966 
Q 3022 478 2636 193 
Q 2250 -91 1575 -91 
Q 1294 -91 989 -36 
Q 684 19 347 128 
L 347 722 
Q 666 556 975 473 
Q 1284 391 1588 391 
Q 1994 391 2212 530 
Q 2431 669 2431 922 
Q 2431 1156 2273 1281 
Q 2116 1406 1581 1522 
L 1381 1569 
Q 847 1681 609 1914 
Q 372 2147 372 2553 
Q 372 3047 722 3315 
Q 1072 3584 1716 3584 
Q 2034 3584 2315 3537 
Q 2597 3491 2834 3397 
z
" transform="scale(0.015625)"/>
      </defs>
      <use xlink:href="#DejaVuSans-47"/>
      <use xlink:href="#DejaVuSans-65" transform="translate(77.490234 0)"/>
      <use xlink:href="#DejaVuSans-6e" transform="translate(139.013672 0)"/>
      <use xlink:href="#DejaVuSans-65" transform="translate(202.392578 0)"/>
      <use xlink:href="#DejaVuSans-72" transform="translate(263.916016 0)"/>
      <use xlink:href="#DejaVuSans-61" transform="translate(305.029297 0)"/>
      <use xlink:href="#DejaVuSans-74" transform="translate(366.308594 0)"/>
      <use xlink:href="#DejaVuSans-69" transform="translate(405.517578 0)"/>
      <use xlink:href="#DejaVuSans-6f" transform="translate(433.300781 0)"/>
      <use xlink:href="#DejaVuSans-6e" transform="translate(494.482422 0)"/>
      <use xlink:href="#DejaVuSans-73" transform="translate(557.861328 0)"/>
     </g>
    </g>
   </g>
   <g id="matplotlib.axis_2">
    <g id="ytick_1">
     <g id="line2d_17">
      <path d="M 57.6 289.220387 
L 414.72 289.220387 
" clip-path="url(#p3a32895756)" style="fill: none; stroke: #b0b0b0; stroke-width: 0.8; stroke-linecap: square"/>
     </g>
     <g id="line2d_18">
      <defs>
       <path id="m45ea12ac54" d="M 0 0 
L -3.5 0 
" style="stroke: #000000; stroke-width: 0.8"/>
      </defs>
      <g>
       <use xlink:href="#m45ea12ac54" x="57.6" y="289.220387" style="stroke: #000000; stroke-width: 0.8"/>
      </g>
     </g>
     <g id="text_10">
      <!-- −6000 -->
      <g transform="translate(16.770313 293.019606) scale(0.1 -0.1)">
       <defs>
        <path id="DejaVuSans-2212" d="M 678 2272 
L 4684 2272 
L 4684 1741 
L 678 1741 
L 678 2272 
z
" transform="scale(0.015625)"/>
       </defs>
       <use xlink:href="#DejaVuSans-2212"/>
       <use xlink:href="#DejaVuSans-36" transform="translate(83.789062 0)"/>
       <use xlink:href="#DejaVuSans-30" transform="translate(147.412109 0)"/>
       <use xlink:href="#DejaVuSans-30" transform="translate(211.035156 0)"/>
       <use xlink:href="#DejaVuSans-30" transform="translate(274.658203 0)"/>
      </g>
     </g>
    </g>
    <g id="ytick_2">
     <g id="line2d_19">
      <path d="M 57.6 248.0184 
L 414.72 248.0184 
" clip-path="url(#p3a32895756)" style="fill: none; stroke: #b0b0b0; stroke-width: 0.8; stroke-linecap: square"/>
     </g>
     <g id="line2d_20">
      <g>
       <use xlink:href="#m45ea12ac54" x="57.6" y="248.0184" style="stroke: #000000; stroke-width: 0.8"/>
      </g>
     </g>
     <g id="text_11">
      <!-- −4000 -->
      <g transform="translate(16.770313 251.817619) scale(0.1 -0.1)">
       <use xlink:href="#DejaVuSans-2212"/>
       <use xlink:href="#DejaVuSans-34" transform="translate(83.789062 0)"/>
       <use xlink:href="#DejaVuSans-30" transform="translate(147.412109 0)"/>
       <use xlink:href="#DejaVuSans-30" transform="translate(211.035156 0)"/>
       <use xlink:href="#DejaVuSans-30" transform="translate(274.658203 0)"/>
      </g>
     </g>
    </g>
    <g id="ytick_3">
     <g id="line2d_21">
      <path d="M 57.6 206.816413 
L 414.72 206.816413 
" clip-path="url(#p3a32895756)" style="fill: none; stroke: #b0b0b0; stroke-width: 0.8; stroke-linecap: square"/>
     </g>
     <g id="line2d_22">
      <g>
       <use xlink:href="#m45ea12ac54" x="57.6" y="206.816413" style="stroke: #000000; stroke-width: 0.8"/>
      </g>
     </g>
     <g id="text_12">
      <!-- −2000 -->
      <g transform="translate(16.770313 210.615632) scale(0.1 -0.1)">
       <use xlink:href="#DejaVuSans-2212"/>
       <use xlink:href="#DejaVuSans-32" transform="translate(83.789062 0)"/>
       <use xlink:href="#DejaVuSans-30" transform="translate(147.412109 0)"/>
       <use xlink:href="#DejaVuSans-30" transform="translate(211.035156 0)"/>
       <use xlink:href="#DejaVuSans-30" transform="translate(274.658203 0)"/>
      </g>
     </g>
    </g>
    <g id="ytick_4">
     <g id="line2d_23">
      <path d="M 57.6 165.614426 
L 414.72 165.614426 
" clip-path="url(#p3a32895756)" style="fill: none; stroke: #b0b0b0; stroke-width: 0.8; stroke-linecap: square"/>
     </g>
     <g id="line2d_24">
      <g>
       <use xlink:href="#m45ea12ac54" x="57.6" y="165.614426" style="stroke: #000000; stroke-width: 0.8"/>
      </g>
     </g>
     <g id="text_13">
      <!-- 0 -->
      <g transform="translate(44.2375 169.413645) scale(0.1 -0.1)">
       <use xlink:href="#DejaVuSans-30"/>
      </g>
     </g>
    </g>
    <g id="ytick_5">
     <g id="line2d_25">
      <path d="M 57.6 124.412439 
L 414.72 124.412439 
" clip-path="url(#p3a32895756)" style="fill: none; stroke: #b0b0b0; stroke-width: 0.8; stroke-linecap: square"/>
     </g>
     <g id="line2d_26">
      <g>
       <use xlink:href="#m45ea12ac54" x="57.6" y="124.412439" style="stroke: #000000; stroke-width: 0.8"/>
      </g>
     </g>
     <g id="text_14">
      <!-- 2000 -->
      <g transform="translate(25.15 128.211658) scale(0.1 -0.1)">
       <use xlink:href="#DejaVuSans-32"/>
       <use xlink:href="#DejaVuSans-30" transform="translate(63.623047 0)"/>
       <use xlink:href="#DejaVuSans-30" transform="translate(127.246094 0)"/>
       <use xlink:href="#DejaVuSans-30" transform="translate(190.869141 0)"/>
      </g>
     </g>
    </g>
    <g id="ytick_6">
     <g id="line2d_27">
      <path d="M 57.6 83.210452 
L 414.72 83.210452 
" clip-path="url(#p3a32895756)" style="fill: none; stroke: #b0b0b0; stroke-width: 0.8; stroke-linecap: square"/>
     </g>
     <g id="line2d_28">
      <g>
       <use xlink:href="#m45ea12ac54" x="57.6" y="83.210452" style="stroke: #000000; stroke-width: 0.8"/>
      </g>
     </g>
     <g id="text_15">
      <!-- 4000 -->
      <g transform="translate(25.15 87.009671) scale(0.1 -0.1)">
       <use xlink:href="#DejaVuSans-34"/>
       <use xlink:href="#DejaVuSans-30" transform="translate(63.623047 0)"/>
       <use xlink:href="#DejaVuSans-30" transform="translate(127.246094 0)"/>
       <use xlink:href="#DejaVuSans-30" transform="translate(190.869141 0)"/>
      </g>
     </g>
    </g>
    <g id="ytick_7">
     <g id="line2d_29">
      <path d="M 57.6 42.008465 
L 414.72 42.008465 
" clip-path="url(#p3a32895756)" style="fill: none; stroke: #b0b0b0; stroke-width: 0.8; stroke-linecap: square"/>
     </g>
     <g id="line2d_30">
      <g>
       <use xlink:href="#m45ea12ac54" x="57.6" y="42.008465" style="stroke: #000000; stroke-width: 0.8"/>
      </g>
     </g>
     <g id="text_16">
      <!-- 6000 -->
      <g transform="translate(25.15 45.807684) scale(0.1 -0.1)">
       <use xlink:href="#DejaVuSans-36"/>
       <use xlink:href="#DejaVuSans-30" transform="translate(63.623047 0)"/>
       <use xlink:href="#DejaVuSans-30" transform="translate(127.246094 0)"/>
       <use xlink:href="#DejaVuSans-30" transform="translate(190.869141 0)"/>
      </g>
     </g>
    </g>
    <g id="text_17">
     <!-- Fitness -->
     <g transform="translate(10.690625 191.845187) rotate(-90) scale(0.1 -0.1)">
      <defs>
       <path id="DejaVuSans-46" d="M 628 4666 
L 3309 4666 
L 3309 4134 
L 1259 4134 
L 1259 2759 
L 3109 2759 
L 3109 2228 
L 1259 2228 
L 1259 0 
L 628 0 
L 628 4666 
z
" transform="scale(0.015625)"/>
      </defs>
      <use xlink:href="#DejaVuSans-46"/>
      <use xlink:href="#DejaVuSans-69" transform="translate(50.269531 0)"/>
      <use xlink:href="#DejaVuSans-74" transform="translate(78.052734 0)"/>
      <use xlink:href="#DejaVuSans-6e" transform="translate(117.261719 0)"/>
      <use xlink:href="#DejaVuSans-65" transform="translate(180.640625 0)"/>
      <use xlink:href="#DejaVuSans-73" transform="translate(242.164062 0)"/>
      <use xlink:href="#DejaVuSans-73" transform="translate(294.263672 0)"/>
     </g>
    </g>
   </g>
   <g id="line2d_31">
    <path d="M 73.832727 177.955228 
L 76.119027 177.309775 
L 78.405327 177.496233 
L 80.691626 177.435177 
L 82.977926 177.698058 
L 85.264225 177.406706 
L 87.550525 177.503231 
L 89.836825 177.281038 
L 92.123124 177.550232 
L 94.409424 177.388296 
L 101.268323 177.345673 
L 103.554622 177.498495 
L 105.840922 177.44465 
L 108.127222 177.640216 
L 110.413521 177.436598 
L 112.699821 177.532923 
L 117.27242 177.434414 
L 119.55872 177.617018 
L 124.131319 177.709254 
L 126.417618 177.295236 
L 128.703918 177.767524 
L 130.990218 177.563641 
L 133.276517 178.008913 
L 135.562817 177.546593 
L 137.849117 178.208178 
L 140.135416 177.608118 
L 142.421716 177.777195 
L 144.708015 177.571409 
L 146.994315 177.524782 
L 149.280615 177.226264 
L 151.566914 177.904078 
L 153.853214 176.761127 
L 156.139513 176.580576 
L 158.425813 175.833716 
L 160.712113 175.862124 
L 162.998412 175.028234 
L 167.571012 174.234197 
L 172.143611 173.565499 
L 176.71621 172.264153 
L 183.575109 171.989983 
L 185.861408 171.262445 
L 188.147708 170.921537 
L 190.434008 171.116244 
L 192.720307 170.868908 
L 195.006607 170.20434 
L 199.579206 170.42008 
L 201.865506 169.919023 
L 204.151805 170.008879 
L 206.438105 169.771051 
L 208.724405 170.113168 
L 211.010704 170.051181 
L 213.297004 173.634696 
L 215.583303 169.753225 
L 217.869603 169.893544 
L 220.155903 169.78493 
L 222.442202 169.392306 
L 229.301101 169.904068 
L 231.587401 169.732063 
L 233.8737 169.733111 
L 236.16 169.465638 
L 238.4463 169.672085 
L 240.732599 170.741928 
L 243.018899 170.063222 
L 245.305198 170.596982 
L 247.591498 169.743379 
L 249.877798 169.397571 
L 252.164097 169.632675 
L 254.450397 169.518803 
L 259.022996 169.597671 
L 265.881895 169.230171 
L 268.168195 169.420643 
L 270.454494 171.685706 
L 272.740794 169.376579 
L 275.027093 169.592474 
L 277.313393 169.087006 
L 279.599693 169.290928 
L 281.885992 169.368083 
L 284.172292 174.528 
L 286.458592 169.194633 
L 288.744891 169.501266 
L 291.031191 169.516301 
L 293.31749 169.385127 
L 295.60379 173.93761 
L 297.89009 169.419077 
L 300.176389 169.924965 
L 302.462689 169.373633 
L 304.748988 169.629314 
L 307.035288 169.562036 
L 309.321588 169.869243 
L 311.607887 169.316408 
L 313.894187 169.244304 
L 318.466786 169.749717 
L 320.753086 170.093882 
L 325.325685 169.560035 
L 327.611985 169.841503 
L 332.184584 170.015557 
L 334.470883 169.643438 
L 336.757183 169.742104 
L 339.043483 169.669761 
L 341.329782 169.781638 
L 343.616082 169.646823 
L 345.902382 169.929076 
L 348.188681 169.764782 
L 350.474981 169.336505 
L 352.76128 169.410447 
L 355.04758 169.649137 
L 357.33388 170.322845 
L 359.620179 169.406342 
L 361.906479 169.746553 
L 364.192778 169.558757 
L 368.765378 169.43866 
L 371.051677 170.332636 
L 373.337977 169.639699 
L 375.624277 169.391013 
L 377.910576 169.624525 
L 384.769475 169.186555 
L 387.055775 169.442165 
L 389.342074 169.055995 
L 391.628374 168.961669 
L 393.914673 169.272766 
L 396.200973 169.092225 
L 398.487273 169.186157 
L 398.487273 169.186157 
" clip-path="url(#p3a32895756)" style="fill: none; stroke: #0000ff; stroke-width: 1.5; stroke-linecap: square"/>
   </g>
   <g id="line2d_32">
    <path d="M 73.832727 185.946827 
L 76.119027 184.529208 
L 78.405327 185.364612 
L 80.691626 184.566073 
L 82.977926 187.503857 
L 85.264225 184.622214 
L 87.550525 185.555546 
L 89.836825 184.41548 
L 92.123124 186.477429 
L 94.409424 184.705202 
L 96.695723 184.482516 
L 98.982023 184.814582 
L 101.268323 184.313992 
L 103.554622 185.915899 
L 105.840922 186.291372 
L 108.127222 187.849628 
L 110.413521 184.863725 
L 112.699821 187.49058 
L 114.98612 184.793403 
L 117.27242 185.275317 
L 119.55872 187.861604 
L 121.845019 191.187289 
L 124.131319 192.907286 
L 126.417618 184.639193 
L 128.703918 190.293175 
L 130.990218 185.25854 
L 133.276517 189.899779 
L 135.562817 185.12824 
L 137.849117 200.056496 
L 140.135416 185.562309 
L 142.421716 185.6434 
L 144.708015 185.12309 
L 146.994315 184.822632 
L 149.280615 186.291972 
L 151.566914 196.264504 
L 153.853214 183.643337 
L 156.139513 183.236235 
L 158.425813 182.705108 
L 160.712113 182.576753 
L 162.998412 181.385617 
L 167.571012 180.684694 
L 172.143611 180.216266 
L 174.42991 179.019765 
L 176.71621 177.983195 
L 179.00251 178.174075 
L 181.288809 178.085297 
L 183.575109 177.777291 
L 185.861408 176.696662 
L 188.147708 176.01429 
L 190.434008 178.474075 
L 192.720307 175.915592 
L 195.006607 174.568667 
L 197.292907 174.862321 
L 199.579206 175.683965 
L 201.865506 173.913673 
L 204.151805 173.943928 
L 206.438105 174.210869 
L 208.724405 173.993079 
L 211.010704 176.651353 
L 213.297004 254.27194 
L 215.583303 173.431355 
L 217.869603 175.185169 
L 220.155903 173.641244 
L 222.442202 172.390024 
L 224.728502 173.167808 
L 227.014802 173.346015 
L 229.301101 173.924016 
L 231.587401 173.52524 
L 233.8737 173.291415 
L 236.16 172.862034 
L 238.4463 173.503659 
L 240.732599 191.943739 
L 243.018899 174.199996 
L 245.305198 193.400654 
L 247.591498 173.74985 
L 249.877798 172.778646 
L 252.164097 173.549093 
L 254.450397 173.011226 
L 256.736697 173.917129 
L 259.022996 173.487796 
L 261.309296 173.391494 
L 263.595595 172.880563 
L 265.881895 172.649741 
L 268.168195 173.39175 
L 270.454494 211.699743 
L 272.740794 172.76094 
L 275.027093 173.315337 
L 277.313393 172.084501 
L 279.599693 172.604268 
L 281.885992 172.890807 
L 284.172292 295.488 
L 286.458592 172.344424 
L 288.744891 173.358639 
L 291.031191 174.573013 
L 293.31749 172.908363 
L 295.60379 277.102298 
L 297.89009 173.049408 
L 300.176389 176.294463 
L 302.462689 173.025734 
L 304.748988 173.532109 
L 307.035288 173.264021 
L 309.321588 179.019265 
L 311.607887 173.330022 
L 313.894187 172.431009 
L 316.180487 173.223054 
L 320.753086 176.037155 
L 323.039385 173.939699 
L 325.325685 173.272195 
L 327.611985 174.340103 
L 329.898284 175.64664 
L 332.184584 175.504632 
L 334.470883 173.189638 
L 336.757183 173.69049 
L 339.043483 173.593133 
L 341.329782 179.64491 
L 343.616082 173.50663 
L 345.902382 174.714505 
L 348.188681 174.177743 
L 350.474981 172.773793 
L 352.76128 173.487121 
L 355.04758 173.46478 
L 357.33388 181.315624 
L 359.620179 172.996042 
L 361.906479 174.513044 
L 364.192778 173.306799 
L 366.479078 173.336821 
L 368.765378 173.048254 
L 371.051677 182.057926 
L 373.337977 173.499963 
L 375.624277 172.936796 
L 377.910576 173.800084 
L 382.483175 172.697692 
L 384.769475 172.440127 
L 387.055775 172.934741 
L 389.342074 172.855379 
L 391.628374 171.860329 
L 393.914673 173.283945 
L 396.200973 172.910173 
L 398.487273 172.771947 
L 398.487273 172.771947 
" clip-path="url(#p3a32895756)" style="fill: none; stroke-dasharray: 9.6,2.4,1.5,2.4; stroke-dashoffset: 0; stroke: #008000; stroke-width: 1.5"/>
   </g>
   <g id="line2d_33">
    <path d="M 73.832727 169.963628 
L 76.119027 170.090342 
L 78.405327 169.627854 
L 80.691626 170.30428 
L 82.977926 167.892259 
L 85.264225 170.191198 
L 87.550525 169.450917 
L 89.836825 170.146595 
L 92.123124 168.623036 
L 94.409424 170.07139 
L 96.695723 170.239216 
L 98.982023 169.98921 
L 101.268323 170.377354 
L 103.554622 169.08109 
L 105.840922 168.597927 
L 108.127222 167.430803 
L 110.413521 170.009471 
L 112.699821 167.575266 
L 114.98612 170.241501 
L 117.27242 169.593511 
L 119.55872 167.372431 
L 121.845019 164.135519 
L 124.131319 162.511223 
L 126.417618 169.951279 
L 128.703918 165.241872 
L 130.990218 169.868743 
L 133.276517 166.118048 
L 135.562817 169.964945 
L 137.849117 156.359861 
L 140.135416 169.653926 
L 142.421716 169.91099 
L 146.994315 170.226933 
L 149.280615 168.160555 
L 151.566914 159.543651 
L 153.853214 169.878916 
L 156.139513 169.924917 
L 158.425813 168.962323 
L 160.712113 169.147494 
L 169.857311 167.30638 
L 172.143611 166.914731 
L 174.42991 166.897777 
L 179.00251 166.116276 
L 181.288809 165.978078 
L 183.575109 166.202676 
L 185.861408 165.828227 
L 188.147708 165.828784 
L 190.434008 163.758414 
L 192.720307 165.822224 
L 195.006607 165.840014 
L 197.292907 165.725292 
L 199.579206 165.156196 
L 201.865506 165.924374 
L 204.151805 166.073829 
L 206.438105 165.331233 
L 208.724405 166.233257 
L 211.010704 163.451009 
L 213.297004 92.997451 
L 215.583303 166.075096 
L 217.869603 164.601919 
L 220.155903 165.928617 
L 222.442202 166.394588 
L 224.728502 165.961213 
L 227.014802 166.069172 
L 229.301101 165.88412 
L 231.587401 165.938885 
L 233.8737 166.174807 
L 236.16 166.069243 
L 238.4463 165.840511 
L 240.732599 149.540117 
L 243.018899 165.926448 
L 245.305198 147.793309 
L 247.591498 165.736909 
L 249.877798 166.016496 
L 252.164097 165.716258 
L 254.450397 166.02638 
L 256.736697 165.280483 
L 259.022996 165.707545 
L 261.309296 165.616085 
L 263.595595 165.78743 
L 265.881895 165.810602 
L 268.168195 165.449537 
L 270.454494 131.671669 
L 272.740794 165.992219 
L 275.027093 165.869611 
L 277.313393 166.08951 
L 281.885992 165.84536 
L 284.172292 53.568 
L 286.458592 166.044843 
L 288.744891 165.643894 
L 291.031191 164.459589 
L 293.31749 165.861891 
L 295.60379 70.772922 
L 297.89009 165.788747 
L 300.176389 163.555468 
L 302.462689 165.721531 
L 304.748988 165.726519 
L 307.035288 165.860052 
L 309.321588 160.719221 
L 311.607887 165.302794 
L 313.894187 166.057599 
L 316.180487 165.699061 
L 320.753086 164.150608 
L 323.039385 165.793541 
L 325.325685 165.847875 
L 327.611985 165.342904 
L 329.898284 164.248043 
L 332.184584 164.526481 
L 334.470883 166.097238 
L 336.757183 165.793718 
L 339.043483 165.746388 
L 341.329782 159.918366 
L 343.616082 165.787016 
L 345.902382 165.143646 
L 348.188681 165.351822 
L 350.474981 165.899216 
L 352.76128 165.333773 
L 355.04758 165.833493 
L 357.33388 159.330066 
L 359.620179 165.816643 
L 361.906479 164.980063 
L 364.192778 165.810714 
L 366.479078 165.639847 
L 368.765378 165.829066 
L 371.051677 158.607346 
L 373.337977 165.779436 
L 375.624277 165.845229 
L 377.910576 165.448966 
L 382.483175 165.977091 
L 387.055775 165.949589 
L 389.342074 165.256611 
L 391.628374 166.063008 
L 393.914673 165.261586 
L 396.200973 165.274278 
L 398.487273 165.600366 
L 398.487273 165.600366 
" clip-path="url(#p3a32895756)" style="fill: none; stroke-dasharray: 9.6,2.4,1.5,2.4; stroke-dashoffset: 0; stroke: #008000; stroke-width: 1.5"/>
   </g>
   <g id="line2d_34">
    <path d="M 73.832727 167.629387 
L 78.405327 167.307395 
L 80.691626 167.331654 
L 85.264225 166.925448 
L 87.550525 167.423625 
L 92.123124 167.127789 
L 94.409424 167.540971 
L 96.695723 166.970171 
L 98.982023 167.223894 
L 101.268323 167.246696 
L 103.554622 167.096227 
L 108.127222 167.472343 
L 110.413521 167.179601 
L 112.699821 167.279339 
L 117.27242 167.077327 
L 119.55872 167.122411 
L 121.845019 167.623588 
L 124.131319 167.206085 
L 126.417618 167.047838 
L 128.703918 167.237444 
L 130.990218 167.255555 
L 133.276517 167.042688 
L 135.562817 167.312507 
L 137.849117 167.237306 
L 140.135416 167.030054 
L 142.421716 166.989844 
L 144.708015 167.424389 
L 146.994315 167.395696 
L 149.280615 167.237162 
L 153.853214 167.601498 
L 156.139513 167.341665 
L 158.425813 166.183236 
L 160.712113 166.138938 
L 162.998412 165.930246 
L 167.571012 165.81354 
L 172.143611 166.179977 
L 174.42991 166.068531 
L 176.71621 166.188852 
L 181.288809 165.879968 
L 183.575109 166.037201 
L 188.147708 166.021004 
L 190.434008 165.194906 
L 192.720307 165.030383 
L 195.006607 165.213801 
L 197.292907 165.07429 
L 199.579206 165.419932 
L 201.865506 165.195605 
L 204.151805 165.262886 
L 206.438105 165.035571 
L 211.010704 164.969102 
L 213.297004 165.273699 
L 215.583303 165.143611 
L 222.442202 165.293415 
L 224.728502 165.117679 
L 227.014802 165.101668 
L 229.301101 165.402148 
L 231.587401 164.833099 
L 233.8737 164.947517 
L 236.16 165.222164 
L 243.018899 165.283174 
L 245.305198 165.115092 
L 247.591498 165.320944 
L 249.877798 165.166675 
L 252.164097 164.871388 
L 254.450397 164.977433 
L 256.736697 165.432814 
L 259.022996 164.826266 
L 261.309296 164.959409 
L 263.595595 164.85316 
L 265.881895 165.038517 
L 268.168195 164.988067 
L 270.454494 164.570945 
L 275.027093 165.044801 
L 279.599693 165.084735 
L 281.885992 162.717317 
L 284.172292 163.414682 
L 286.458592 163.424922 
L 288.744891 164.150245 
L 291.031191 162.929919 
L 293.31749 163.808494 
L 295.60379 162.784672 
L 297.89009 162.575366 
L 300.176389 163.331604 
L 302.462689 162.919533 
L 307.035288 162.876369 
L 309.321588 162.612245 
L 311.607887 163.075702 
L 313.894187 163.284301 
L 316.180487 162.48444 
L 318.466786 162.130977 
L 320.753086 162.774752 
L 325.325685 161.932353 
L 327.611985 161.911565 
L 329.898284 163.316324 
L 332.184584 162.474559 
L 334.470883 162.941725 
L 336.757183 161.652383 
L 341.329782 163.549452 
L 343.616082 161.646965 
L 345.902382 161.872817 
L 348.188681 161.930524 
L 350.474981 162.348994 
L 352.76128 162.089662 
L 355.04758 162.248498 
L 357.33388 163.162067 
L 359.620179 161.472315 
L 361.906479 162.658606 
L 364.192778 163.237277 
L 366.479078 162.579019 
L 368.765378 162.282975 
L 371.051677 162.366234 
L 373.337977 162.133041 
L 375.624277 161.329991 
L 377.910576 162.281926 
L 380.196876 160.885784 
L 382.483175 160.679832 
L 384.769475 161.723333 
L 387.055775 161.420531 
L 389.342074 160.792203 
L 391.628374 162.15797 
L 393.914673 161.310695 
L 396.200973 160.93516 
L 398.487273 160.407963 
L 398.487273 160.407963 
" clip-path="url(#p3a32895756)" style="fill: none; stroke: #ff0000; stroke-width: 1.5; stroke-linecap: square"/>
   </g>
   <g id="patch_3">
    <path d="M 57.6 307.584 
L 57.6 41.472 
" style="fill: none; stroke: #000000; stroke-width: 0.8; stroke-linejoin: miter; stroke-linecap: square"/>
   </g>
   <g id="patch_4">
    <path d="M 414.72 307.584 
L 414.72 41.472 
" style="fill: none; stroke: #000000; stroke-width: 0.8; stroke-linejoin: miter; stroke-linecap: square"/>
   </g>
   <g id="patch_5">
    <path d="M 57.6 307.584 
L 414.72 307.584 
" style="fill: none; stroke: #000000; stroke-width: 0.8; stroke-linejoin: miter; stroke-linecap: square"/>
   </g>
   <g id="patch_6">
    <path d="M 57.6 41.472 
L 414.72 41.472 
" style="fill: none; stroke: #000000; stroke-width: 0.8; stroke-linejoin: miter; stroke-linecap: square"/>
   </g>
   <g id="text_18">
    <!-- Population's average and best fitness -->
    <g transform="translate(123.529687 35.472) scale(0.12 -0.12)">
     <defs>
      <path id="DejaVuSans-50" d="M 1259 4147 
L 1259 2394 
L 2053 2394 
Q 2494 2394 2734 2622 
Q 2975 2850 2975 3272 
Q 2975 3691 2734 3919 
Q 2494 4147 2053 4147 
L 1259 4147 
z
M 628 4666 
L 2053 4666 
Q 2838 4666 3239 4311 
Q 3641 3956 3641 3272 
Q 3641 2581 3239 2228 
Q 2838 1875 2053 1875 
L 1259 1875 
L 1259 0 
L 628 0 
L 628 4666 
z
" transform="scale(0.015625)"/>
      <path id="DejaVuSans-70" d="M 1159 525 
L 1159 -1331 
L 581 -1331 
L 581 3500 
L 1159 3500 
L 1159 2969 
Q 1341 3281 1617 3432 
Q 1894 3584 2278 3584 
Q 2916 3584 3314 3078 
Q 3713 2572 3713 1747 
Q 3713 922 3314 415 
Q 2916 -91 2278 -91 
Q 1894 -91 1617 61 
Q 1341 213 1159 525 
z
M 3116 1747 
Q 3116 2381 2855 2742 
Q 2594 3103 2138 3103 
Q 1681 3103 1420 2742 
Q 1159 2381 1159 1747 
Q 1159 1113 1420 752 
Q 1681 391 2138 391 
Q 2594 391 2855 752 
Q 3116 1113 3116 1747 
z
" transform="scale(0.015625)"/>
      <path id="DejaVuSans-75" d="M 544 1381 
L 544 3500 
L 1119 3500 
L 1119 1403 
Q 1119 906 1312 657 
Q 1506 409 1894 409 
Q 2359 409 2629 706 
Q 2900 1003 2900 1516 
L 2900 3500 
L 3475 3500 
L 3475 0 
L 2900 0 
L 2900 538 
Q 2691 219 2414 64 
Q 2138 -91 1772 -91 
Q 1169 -91 856 284 
Q 544 659 544 1381 
z
M 1991 3584 
L 1991 3584 
z
" transform="scale(0.015625)"/>
      <path id="DejaVuSans-6c" d="M 603 4863 
L 1178 4863 
L 1178 0 
L 603 0 
L 603 4863 
z
" transform="scale(0.015625)"/>
      <path id="DejaVuSans-27" d="M 1147 4666 
L 1147 2931 
L 616 2931 
L 616 4666 
L 1147 4666 
z
" transform="scale(0.015625)"/>
      <path id="DejaVuSans-20" transform="scale(0.015625)"/>
      <path id="DejaVuSans-76" d="M 191 3500 
L 800 3500 
L 1894 563 
L 2988 3500 
L 3597 3500 
L 2284 0 
L 1503 0 
L 191 3500 
z
" transform="scale(0.015625)"/>
      <path id="DejaVuSans-67" d="M 2906 1791 
Q 2906 2416 2648 2759 
Q 2391 3103 1925 3103 
Q 1463 3103 1205 2759 
Q 947 2416 947 1791 
Q 947 1169 1205 825 
Q 1463 481 1925 481 
Q 2391 481 2648 825 
Q 2906 1169 2906 1791 
z
M 3481 434 
Q 3481 -459 3084 -895 
Q 2688 -1331 1869 -1331 
Q 1566 -1331 1297 -1286 
Q 1028 -1241 775 -1147 
L 775 -588 
Q 1028 -725 1275 -790 
Q 1522 -856 1778 -856 
Q 2344 -856 2625 -561 
Q 2906 -266 2906 331 
L 2906 616 
Q 2728 306 2450 153 
Q 2172 0 1784 0 
Q 1141 0 747 490 
Q 353 981 353 1791 
Q 353 2603 747 3093 
Q 1141 3584 1784 3584 
Q 2172 3584 2450 3431 
Q 2728 3278 2906 2969 
L 2906 3500 
L 3481 3500 
L 3481 434 
z
" transform="scale(0.015625)"/>
      <path id="DejaVuSans-64" d="M 2906 2969 
L 2906 4863 
L 3481 4863 
L 3481 0 
L 2906 0 
L 2906 525 
Q 2725 213 2448 61 
Q 2172 -91 1784 -91 
Q 1150 -91 751 415 
Q 353 922 353 1747 
Q 353 2572 751 3078 
Q 1150 3584 1784 3584 
Q 2172 3584 2448 3432 
Q 2725 3281 2906 2969 
z
M 947 1747 
Q 947 1113 1208 752 
Q 1469 391 1925 391 
Q 2381 391 2643 752 
Q 2906 1113 2906 1747 
Q 2906 2381 2643 2742 
Q 2381 3103 1925 3103 
Q 1469 3103 1208 2742 
Q 947 2381 947 1747 
z
" transform="scale(0.015625)"/>
      <path id="DejaVuSans-62" d="M 3116 1747 
Q 3116 2381 2855 2742 
Q 2594 3103 2138 3103 
Q 1681 3103 1420 2742 
Q 1159 2381 1159 1747 
Q 1159 1113 1420 752 
Q 1681 391 2138 391 
Q 2594 391 2855 752 
Q 3116 1113 3116 1747 
z
M 1159 2969 
Q 1341 3281 1617 3432 
Q 1894 3584 2278 3584 
Q 2916 3584 3314 3078 
Q 3713 2572 3713 1747 
Q 3713 922 3314 415 
Q 2916 -91 2278 -91 
Q 1894 -91 1617 61 
Q 1341 213 1159 525 
L 1159 0 
L 581 0 
L 581 4863 
L 1159 4863 
L 1159 2969 
z
" transform="scale(0.015625)"/>
      <path id="DejaVuSans-66" d="M 2375 4863 
L 2375 4384 
L 1825 4384 
Q 1516 4384 1395 4259 
Q 1275 4134 1275 3809 
L 1275 3500 
L 2222 3500 
L 2222 3053 
L 1275 3053 
L 1275 0 
L 697 0 
L 697 3053 
L 147 3053 
L 147 3500 
L 697 3500 
L 697 3744 
Q 697 4328 969 4595 
Q 1241 4863 1831 4863 
L 2375 4863 
z
" transform="scale(0.015625)"/>
     </defs>
     <use xlink:href="#DejaVuSans-50"/>
     <use xlink:href="#DejaVuSans-6f" transform="translate(56.677734 0)"/>
     <use xlink:href="#DejaVuSans-70" transform="translate(117.859375 0)"/>
     <use xlink:href="#DejaVuSans-75" transform="translate(181.335938 0)"/>
     <use xlink:href="#DejaVuSans-6c" transform="translate(244.714844 0)"/>
     <use xlink:href="#DejaVuSans-61" transform="translate(272.498047 0)"/>
     <use xlink:href="#DejaVuSans-74" transform="translate(333.777344 0)"/>
     <use xlink:href="#DejaVuSans-69" transform="translate(372.986328 0)"/>
     <use xlink:href="#DejaVuSans-6f" transform="translate(400.769531 0)"/>
     <use xlink:href="#DejaVuSans-6e" transform="translate(461.951172 0)"/>
     <use xlink:href="#DejaVuSans-27" transform="translate(525.330078 0)"/>
     <use xlink:href="#DejaVuSans-73" transform="translate(552.820312 0)"/>
     <use xlink:href="#DejaVuSans-20" transform="translate(604.919922 0)"/>
     <use xlink:href="#DejaVuSans-61" transform="translate(636.707031 0)"/>
     <use xlink:href="#DejaVuSans-76" transform="translate(697.986328 0)"/>
     <use xlink:href="#DejaVuSans-65" transform="translate(757.166016 0)"/>
     <use xlink:href="#DejaVuSans-72" transform="translate(818.689453 0)"/>
     <use xlink:href="#DejaVuSans-61" transform="translate(859.802734 0)"/>
     <use xlink:href="#DejaVuSans-67" transform="translate(921.082031 0)"/>
     <use xlink:href="#DejaVuSans-65" transform="translate(984.558594 0)"/>
     <use xlink:href="#DejaVuSans-20" transform="translate(1046.082031 0)"/>
     <use xlink:href="#DejaVuSans-61" transform="translate(1077.869141 0)"/>
     <use xlink:href="#DejaVuSans-6e" transform="translate(1139.148438 0)"/>
     <use xlink:href="#DejaVuSans-64" transform="translate(1202.527344 0)"/>
     <use xlink:href="#DejaVuSans-20" transform="translate(1266.003906 0)"/>
     <use xlink:href="#DejaVuSans-62" transform="translate(1297.791016 0)"/>
     <use xlink:href="#DejaVuSans-65" transform="translate(1361.267578 0)"/>
     <use xlink:href="#DejaVuSans-73" transform="translate(1422.791016 0)"/>
     <use xlink:href="#DejaVuSans-74" transform="translate(1474.890625 0)"/>
     <use xlink:href="#DejaVuSans-20" transform="translate(1514.099609 0)"/>
     <use xlink:href="#DejaVuSans-66" transform="translate(1545.886719 0)"/>
     <use xlink:href="#DejaVuSans-69" transform="translate(1581.091797 0)"/>
     <use xlink:href="#DejaVuSans-74" transform="translate(1608.875 0)"/>
     <use xlink:href="#DejaVuSans-6e" transform="translate(1648.083984 0)"/>
     <use xlink:href="#DejaVuSans-65" transform="translate(1711.462891 0)"/>
     <use xlink:href="#DejaVuSans-73" transform="translate(1772.986328 0)"/>
     <use xlink:href="#DejaVuSans-73" transform="translate(1825.085938 0)"/>
    </g>
   </g>
   <g id="legend_1">
    <g id="patch_7">
     <path d="M 334.779375 108.1845 
L 407.72 108.1845 
Q 409.72 108.1845 409.72 106.1845 
L 409.72 48.472 
Q 409.72 46.472 407.72 46.472 
L 334.779375 46.472 
Q 332.779375 46.472 332.779375 48.472 
L 332.779375 106.1845 
Q 332.779375 108.1845 334.779375 108.1845 
z
" style="fill: #ffffff; opacity: 0.8; stroke: #cccccc; stroke-linejoin: miter"/>
    </g>
    <g id="line2d_35">
     <path d="M 336.779375 54.570438 
L 346.779375 54.570438 
L 356.779375 54.570438 
" style="fill: none; stroke: #0000ff; stroke-width: 1.5; stroke-linecap: square"/>
    </g>
    <g id="text_19">
     <!-- average -->
     <g transform="translate(364.779375 58.070438) scale(0.1 -0.1)">
      <use xlink:href="#DejaVuSans-61"/>
      <use xlink:href="#DejaVuSans-76" transform="translate(61.279297 0)"/>
      <use xlink:href="#DejaVuSans-65" transform="translate(120.458984 0)"/>
      <use xlink:href="#DejaVuSans-72" transform="translate(181.982422 0)"/>
      <use xlink:href="#DejaVuSans-61" transform="translate(223.095703 0)"/>
      <use xlink:href="#DejaVuSans-67" transform="translate(284.375 0)"/>
      <use xlink:href="#DejaVuSans-65" transform="translate(347.851562 0)"/>
     </g>
    </g>
    <g id="line2d_36">
     <path d="M 336.779375 69.248563 
L 346.779375 69.248563 
L 356.779375 69.248563 
" style="fill: none; stroke-dasharray: 9.6,2.4,1.5,2.4; stroke-dashoffset: 0; stroke: #008000; stroke-width: 1.5"/>
    </g>
    <g id="text_20">
     <!-- -1 sd -->
     <g transform="translate(364.779375 72.748563) scale(0.1 -0.1)">
      <defs>
       <path id="DejaVuSans-2d" d="M 313 2009 
L 1997 2009 
L 1997 1497 
L 313 1497 
L 313 2009 
z
" transform="scale(0.015625)"/>
      </defs>
      <use xlink:href="#DejaVuSans-2d"/>
      <use xlink:href="#DejaVuSans-31" transform="translate(36.083984 0)"/>
      <use xlink:href="#DejaVuSans-20" transform="translate(99.707031 0)"/>
      <use xlink:href="#DejaVuSans-73" transform="translate(131.494141 0)"/>
      <use xlink:href="#DejaVuSans-64" transform="translate(183.59375 0)"/>
     </g>
    </g>
    <g id="line2d_37">
     <path d="M 336.779375 83.926688 
L 346.779375 83.926688 
L 356.779375 83.926688 
" style="fill: none; stroke-dasharray: 9.6,2.4,1.5,2.4; stroke-dashoffset: 0; stroke: #008000; stroke-width: 1.5"/>
    </g>
    <g id="text_21">
     <!-- +1 sd -->
     <g transform="translate(364.779375 87.426688) scale(0.1 -0.1)">
      <defs>
       <path id="DejaVuSans-2b" d="M 2944 4013 
L 2944 2272 
L 4684 2272 
L 4684 1741 
L 2944 1741 
L 2944 0 
L 2419 0 
L 2419 1741 
L 678 1741 
L 678 2272 
L 2419 2272 
L 2419 4013 
L 2944 4013 
z
" transform="scale(0.015625)"/>
      </defs>
      <use xlink:href="#DejaVuSans-2b"/>
      <use xlink:href="#DejaVuSans-31" transform="translate(83.789062 0)"/>
      <use xlink:href="#DejaVuSans-20" transform="translate(147.412109 0)"/>
      <use xlink:href="#DejaVuSans-73" transform="translate(179.199219 0)"/>
      <use xlink:href="#DejaVuSans-64" transform="translate(231.298828 0)"/>
     </g>
    </g>
    <g id="line2d_38">
     <path d="M 336.779375 98.604813 
L 346.779375 98.604813 
L 356.779375 98.604813 
" style="fill: none; stroke: #ff0000; stroke-width: 1.5; stroke-linecap: square"/>
    </g>
    <g id="text_22">
     <!-- best -->
     <g transform="translate(364.779375 102.104813) scale(0.1 -0.1)">
      <use xlink:href="#DejaVuSans-62"/>
      <use xlink:href="#DejaVuSans-65" transform="translate(63.476562 0)"/>
      <use xlink:href="#DejaVuSans-73" transform="translate(125 0)"/>
      <use xlink:href="#DejaVuSans-74" transform="translate(177.099609 0)"/>
     </g>
    </g>
   </g>
  </g>
 </g>
 <defs>
  <clipPath id="p3a32895756">
   <rect x="57.6" y="41.472" width="357.12" height="266.112"/>
  </clipPath>
 </defs>
</svg>
