<?xml version="1.0" encoding="UTF-8" standalone="no"?>
<!DOCTYPE svg PUBLIC "-//W3C//DTD SVG 1.1//EN"
 "http://www.w3.org/Graphics/SVG/1.1/DTD/svg11.dtd">
<!-- Generated by graphviz version 14.0.2 (20251019.1705)
 -->
<!-- Pages: 1 -->
<svg width="394pt" height="195pt"
 viewBox="0.00 0.00 394.00 195.00" xmlns="http://www.w3.org/2000/svg" xmlns:xlink="http://www.w3.org/1999/xlink">
<g id="graph0" class="graph" transform="scale(1 1) rotate(0) translate(4 190.67)">
<polygon fill="white" stroke="none" points="-4,4 -4,-190.67 390.35,-190.67 390.35,4 -4,4"/>
<!-- &#45;1 -->
<g id="node1" class="node">
<title>&#45;1</title>
<polygon fill="lightgray" stroke="black" points="125.06,-117.37 101.56,-117.37 101.56,-98.87 125.06,-98.87 125.06,-117.37"/>
<text xml:space="preserve" text-anchor="middle" x="113.31" y="-104.82" font-family="Times New Roman,serif" font-size="9.00">&#45;1</text>
</g>
<!-- 0 -->
<g id="node9" class="node">
<title>0</title>
<ellipse fill="lightblue" stroke="black" cx="236.31" cy="-24.04" rx="14.5" ry="14.5"/>
<text xml:space="preserve" text-anchor="middle" x="236.31" y="-20.74" font-family="Times New Roman,serif" font-size="9.00">0</text>
</g>
<!-- &#45;1&#45;&gt;0 -->
<g id="edge1" class="edge">
<title>&#45;1&#45;&gt;0</title>
<path fill="none" stroke="red" stroke-width="0.41" d="M119.71,-98.8C123.6,-94.1 128.85,-88.34 134.31,-84.08 160.97,-63.29 172.28,-65.39 201.31,-48.08 206.11,-45.22 211.18,-42.01 215.92,-38.9"/>
<polygon fill="red" stroke="red" stroke-width="0.41" points="217.59,-42 223.97,-33.55 213.71,-36.17 217.59,-42"/>
</g>
<!-- 1 -->
<g id="node10" class="node">
<title>1</title>
<ellipse fill="lightblue" stroke="black" cx="178.31" cy="-24.04" rx="14.5" ry="14.5"/>
<text xml:space="preserve" text-anchor="middle" x="178.31" y="-20.74" font-family="Times New Roman,serif" font-size="9.00">1</text>
</g>
<!-- &#45;1&#45;&gt;1 -->
<g id="edge2" class="edge">
<title>&#45;1&#45;&gt;1</title>
<path fill="none" stroke="green" stroke-width="0.45" d="M120.02,-98.65C130.13,-85.88 149.53,-61.38 163.17,-44.17"/>
<polygon fill="green" stroke="green" stroke-width="0.45" points="165.8,-46.48 169.27,-36.46 160.31,-42.13 165.8,-46.48"/>
</g>
<!-- 3 -->
<g id="node12" class="node">
<title>3</title>
<ellipse fill="lightblue" stroke="black" cx="71.31" cy="-24.04" rx="14.5" ry="14.5"/>
<text xml:space="preserve" text-anchor="middle" x="71.31" y="-20.74" font-family="Times New Roman,serif" font-size="9.00">3</text>
</g>
<!-- &#45;1&#45;&gt;3 -->
<g id="edge3" class="edge">
<title>&#45;1&#45;&gt;3</title>
<path fill="none" stroke="red" stroke-width="1.2" d="M108.97,-98.65C102.85,-86.69 91.46,-64.42 82.8,-47.5"/>
<polygon fill="red" stroke="red" stroke-width="1.2" points="86.09,-46.24 78.42,-38.93 79.86,-49.42 86.09,-46.24"/>
</g>
<!-- &#45;2 -->
<g id="node2" class="node">
<title>&#45;2</title>
<polygon fill="lightgray" stroke="black" points="179.06,-186.67 155.56,-186.67 155.56,-168.17 179.06,-168.17 179.06,-186.67"/>
<text xml:space="preserve" text-anchor="middle" x="167.31" y="-174.12" font-family="Times New Roman,serif" font-size="9.00">&#45;2</text>
</g>
<!-- 2 -->
<g id="node11" class="node">
<title>2</title>
<ellipse fill="lightblue" stroke="black" cx="305.31" cy="-24.04" rx="14.5" ry="14.5"/>
<text xml:space="preserve" text-anchor="middle" x="305.31" y="-20.74" font-family="Times New Roman,serif" font-size="9.00">2</text>
</g>
<!-- &#45;2&#45;&gt;2 -->
<g id="edge4" class="edge">
<title>&#45;2&#45;&gt;2</title>
<path fill="none" stroke="red" stroke-width="0.88" d="M179.55,-175.66C219.41,-172.92 344.3,-162.04 368.31,-132.17 381.7,-115.51 376.88,-103.66 368.31,-84.08 358.85,-62.47 346.49,-64.25 329.31,-48.08 327.47,-46.35 325.55,-44.53 323.64,-42.71"/>
<polygon fill="red" stroke="red" stroke-width="0.88" points="326.15,-40.27 316.51,-35.87 321.31,-45.32 326.15,-40.27"/>
</g>
<!-- &#45;2&#45;&gt;3 -->
<g id="edge18" class="edge">
<title>&#45;2&#45;&gt;3</title>
<path fill="none" stroke="red" stroke-width="0.27" d="M155.52,-174.96C121.84,-170.55 26.51,-156.12 8.31,-132.17 -4.62,-115.15 -0.19,-103.69 8.31,-84.08 16.85,-64.38 35.56,-48.24 50.39,-37.84"/>
<polygon fill="red" stroke="red" stroke-width="0.27" points="52.26,-40.8 58.65,-32.36 48.39,-34.97 52.26,-40.8"/>
</g>
<!-- 2892 -->
<g id="node13" class="node">
<title>2892</title>
<ellipse fill="white" stroke="black" cx="167.31" cy="-108.12" rx="24.04" ry="24.04"/>
<text xml:space="preserve" text-anchor="middle" x="167.31" y="-104.82" font-family="Times New Roman,serif" font-size="9.00">2892</text>
</g>
<!-- &#45;2&#45;&gt;2892 -->
<g id="edge19" class="edge">
<title>&#45;2&#45;&gt;2892</title>
<path fill="none" stroke="green" stroke-width="0.68" d="M167.31,-167.89C167.31,-161.61 167.31,-152.6 167.31,-143.53"/>
<polygon fill="green" stroke="green" stroke-width="0.68" points="170.81,-143.63 167.31,-133.63 163.81,-143.63 170.81,-143.63"/>
</g>
<!-- &#45;3 -->
<g id="node3" class="node">
<title>&#45;3</title>
<polygon fill="lightgray" stroke="black" points="317.06,-117.37 293.56,-117.37 293.56,-98.87 317.06,-98.87 317.06,-117.37"/>
<text xml:space="preserve" text-anchor="middle" x="305.31" y="-104.82" font-family="Times New Roman,serif" font-size="9.00">&#45;3</text>
</g>
<!-- &#45;3&#45;&gt;1 -->
<g id="edge5" class="edge">
<title>&#45;3&#45;&gt;1</title>
<path fill="none" stroke="green" stroke-width="1.15" d="M298.95,-98.75C295.07,-94.04 289.82,-88.28 284.31,-84.08 256.16,-62.66 243.91,-65.84 213.31,-48.08 208.85,-45.5 204.18,-42.57 199.75,-39.7"/>
<polygon fill="green" stroke="green" stroke-width="1.15" points="201.8,-36.86 191.53,-34.23 197.92,-42.69 201.8,-36.86"/>
</g>
<!-- &#45;3&#45;&gt;2 -->
<g id="edge6" class="edge">
<title>&#45;3&#45;&gt;2</title>
<path fill="none" stroke="red" stroke-width="0.14" d="M305.31,-98.65C305.31,-87.02 305.31,-65.67 305.31,-48.94"/>
<polygon fill="red" stroke="red" stroke-width="0.14" points="308.81,-48.98 305.31,-38.98 301.81,-48.98 308.81,-48.98"/>
</g>
<!-- &#45;4 -->
<g id="node4" class="node">
<title>&#45;4</title>
<polygon fill="lightgray" stroke="black" points="359.06,-117.37 335.56,-117.37 335.56,-98.87 359.06,-98.87 359.06,-117.37"/>
<text xml:space="preserve" text-anchor="middle" x="347.31" y="-104.82" font-family="Times New Roman,serif" font-size="9.00">&#45;4</text>
</g>
<!-- &#45;4&#45;&gt;0 -->
<g id="edge7" class="edge">
<title>&#45;4&#45;&gt;0</title>
<path fill="none" stroke="green" stroke-width="0.34" stroke-dasharray="1,5" d="M340.39,-98.54C336.5,-93.98 331.42,-88.44 326.31,-84.08 304.64,-65.6 276.87,-48.19 257.94,-37.14"/>
<polygon fill="green" stroke="green" stroke-width="0.34" points="259.79,-34.16 249.38,-32.22 256.31,-40.23 259.79,-34.16"/>
</g>
<!-- &#45;4&#45;&gt;2 -->
<g id="edge8" class="edge">
<title>&#45;4&#45;&gt;2</title>
<path fill="none" stroke="red" stroke-width="1.12" d="M342.97,-98.65C336.85,-86.69 325.46,-64.42 316.8,-47.5"/>
<polygon fill="red" stroke="red" stroke-width="1.12" points="320.03,-46.13 312.36,-38.82 313.8,-49.32 320.03,-46.13"/>
</g>
<!-- 2995 -->
<g id="node14" class="node">
<title>2995</title>
<ellipse fill="white" stroke="black" cx="362.31" cy="-24.04" rx="24.04" ry="24.04"/>
<text xml:space="preserve" text-anchor="middle" x="362.31" y="-20.74" font-family="Times New Roman,serif" font-size="9.00">2995</text>
</g>
<!-- &#45;4&#45;&gt;2995 -->
<g id="edge21" class="edge">
<title>&#45;4&#45;&gt;2995</title>
<path fill="none" stroke="green" stroke-width="0.16" d="M348.86,-98.65C350.61,-89.06 353.57,-72.87 356.27,-58.1"/>
<polygon fill="green" stroke="green" stroke-width="0.16" points="359.68,-58.92 358.03,-48.45 352.79,-57.66 359.68,-58.92"/>
</g>
<!-- &#45;5 -->
<g id="node5" class="node">
<title>&#45;5</title>
<polygon fill="lightgray" stroke="black" points="233.06,-117.37 209.56,-117.37 209.56,-98.87 233.06,-98.87 233.06,-117.37"/>
<text xml:space="preserve" text-anchor="middle" x="221.31" y="-104.82" font-family="Times New Roman,serif" font-size="9.00">&#45;5</text>
</g>
<!-- &#45;5&#45;&gt;1 -->
<g id="edge9" class="edge">
<title>&#45;5&#45;&gt;1</title>
<path fill="none" stroke="red" stroke-width="1.47" d="M216.87,-98.65C210.66,-86.8 199.16,-64.85 190.33,-47.99"/>
<polygon fill="red" stroke="red" stroke-width="1.47" points="193.52,-46.52 185.78,-39.29 187.32,-49.77 193.52,-46.52"/>
</g>
<!-- &#45;5&#45;&gt;2 -->
<g id="edge10" class="edge">
<title>&#45;5&#45;&gt;2</title>
<path fill="none" stroke="red" stroke-width="1.18" stroke-dasharray="1,5" d="M228.93,-98.44C232.85,-94.06 237.75,-88.71 242.31,-84.08 256.71,-69.48 273.71,-53.63 286.42,-42.03"/>
<polygon fill="red" stroke="red" stroke-width="1.18" points="288.44,-44.92 293.5,-35.61 283.74,-39.73 288.44,-44.92"/>
</g>
<!-- &#45;5&#45;&gt;3 -->
<g id="edge11" class="edge">
<title>&#45;5&#45;&gt;3</title>
<path fill="none" stroke="green" stroke-width="1.44" d="M215.01,-98.67C211.16,-93.93 205.91,-88.17 200.31,-84.08 167.53,-60.16 123.51,-42.57 96.3,-33.08"/>
<polygon fill="green" stroke="green" stroke-width="1.44" points="97.74,-29.87 87.14,-29.99 95.5,-36.5 97.74,-29.87"/>
</g>
<!-- &#45;6 -->
<g id="node6" class="node">
<title>&#45;6</title>
<polygon fill="lightgray" stroke="black" points="41.06,-117.37 17.56,-117.37 17.56,-98.87 41.06,-98.87 41.06,-117.37"/>
<text xml:space="preserve" text-anchor="middle" x="29.31" y="-104.82" font-family="Times New Roman,serif" font-size="9.00">&#45;6</text>
</g>
<!-- &#45;6&#45;&gt;1 -->
<g id="edge12" class="edge">
<title>&#45;6&#45;&gt;1</title>
<path fill="none" stroke="red" stroke-width="0.31" d="M35.62,-98.67C39.47,-93.94 44.72,-88.18 50.31,-84.08 83.43,-59.84 128.1,-42.02 154.97,-32.61"/>
<polygon fill="red" stroke="red" stroke-width="0.31" points="155.87,-36 164.21,-29.46 153.62,-29.37 155.87,-36"/>
</g>
<!-- &#45;6&#45;&gt;3 -->
<g id="edge13" class="edge">
<title>&#45;6&#45;&gt;3</title>
<path fill="none" stroke="green" stroke-width="0.45" d="M33.65,-98.65C39.88,-86.46 51.6,-63.57 60.31,-46.54"/>
<polygon fill="green" stroke="green" stroke-width="0.45" points="63.28,-48.41 64.72,-37.92 57.05,-45.23 63.28,-48.41"/>
</g>
<!-- &#45;7 -->
<g id="node7" class="node">
<title>&#45;7</title>
<polygon fill="lightgray" stroke="black" points="83.06,-117.37 59.56,-117.37 59.56,-98.87 83.06,-98.87 83.06,-117.37"/>
<text xml:space="preserve" text-anchor="middle" x="71.31" y="-104.82" font-family="Times New Roman,serif" font-size="9.00">&#45;7</text>
</g>
<!-- &#45;7&#45;&gt;0 -->
<g id="edge14" class="edge">
<title>&#45;7&#45;&gt;0</title>
<path fill="none" stroke="green" stroke-width="0.46" d="M77.45,-98.43C81.25,-93.61 86.5,-87.85 92.31,-84.08 135.12,-56.32 155.39,-70.3 201.31,-48.08 206.42,-45.61 211.66,-42.51 216.49,-39.39"/>
<polygon fill="green" stroke="green" stroke-width="0.46" points="218.23,-42.43 224.52,-33.91 214.29,-36.65 218.23,-42.43"/>
</g>
<!-- &#45;7&#45;&gt;3 -->
<g id="edge17" class="edge">
<title>&#45;7&#45;&gt;3</title>
<path fill="none" stroke="red" stroke-width="0.45" d="M71.31,-98.65C71.31,-87.13 71.31,-66.07 71.31,-49.42"/>
<polygon fill="red" stroke="red" stroke-width="0.45" points="74.81,-49.45 71.31,-39.45 67.81,-49.45 74.81,-49.45"/>
</g>
<!-- &#45;8 -->
<g id="node8" class="node">
<title>&#45;8</title>
<polygon fill="lightgray" stroke="black" points="275.06,-117.37 251.56,-117.37 251.56,-98.87 275.06,-98.87 275.06,-117.37"/>
<text xml:space="preserve" text-anchor="middle" x="263.31" y="-104.82" font-family="Times New Roman,serif" font-size="9.00">&#45;8</text>
</g>
<!-- &#45;8&#45;&gt;0 -->
<g id="edge15" class="edge">
<title>&#45;8&#45;&gt;0</title>
<path fill="none" stroke="green" stroke-width="0.12" d="M260.52,-98.65C256.58,-86.67 249.24,-64.34 243.67,-47.41"/>
<polygon fill="green" stroke="green" stroke-width="0.12" points="247.14,-46.76 240.69,-38.35 240.49,-48.95 247.14,-46.76"/>
</g>
<!-- &#45;8&#45;&gt;1 -->
<g id="edge16" class="edge">
<title>&#45;8&#45;&gt;1</title>
<path fill="none" stroke="red" stroke-width="0.78" d="M255.7,-98.43C251.79,-94.04 246.89,-88.69 242.31,-84.08 227.59,-69.27 210.12,-53.26 197.16,-41.65"/>
<polygon fill="red" stroke="red" stroke-width="0.78" points="199.67,-39.2 189.87,-35.17 195.02,-44.43 199.67,-39.2"/>
</g>
<!-- 2892&#45;&gt;1 -->
<g id="edge20" class="edge">
<title>2892&#45;&gt;1</title>
<path fill="none" stroke="green" stroke-width="0.26" d="M170.43,-83.82C171.9,-72.87 173.65,-59.84 175.12,-48.83"/>
<polygon fill="green" stroke="green" stroke-width="0.26" points="178.58,-49.41 176.44,-39.03 171.64,-48.48 178.58,-49.41"/>
</g>
</g>
</svg>
