<?xml version="1.0" encoding="UTF-8" standalone="no"?>
<!DOCTYPE svg PUBLIC "-//W3C//DTD SVG 1.1//EN"
 "http://www.w3.org/Graphics/SVG/1.1/DTD/svg11.dtd">
<!-- Generated by graphviz version 14.0.2 (20251019.1705)
 -->
<!-- Pages: 1 -->
<svg width="552pt" height="169pt"
 viewBox="0.00 0.00 552.00 169.00" xmlns="http://www.w3.org/2000/svg" xmlns:xlink="http://www.w3.org/1999/xlink">
<g id="graph0" class="graph" transform="scale(1 1) rotate(0) translate(4 165.21)">
<polygon fill="white" stroke="none" points="-4,4 -4,-165.21 547.72,-165.21 547.72,4 -4,4"/>
<!-- &#45;1 -->
<g id="node1" class="node">
<title>&#45;1</title>
<polygon fill="lightgray" stroke="black" points="285.61,-95.1 262.11,-95.1 262.11,-76.6 285.61,-76.6 285.61,-95.1"/>
<text xml:space="preserve" text-anchor="middle" x="273.86" y="-82.55" font-family="Times New Roman,serif" font-size="9.00">&#45;1</text>
</g>
<!-- 0 -->
<g id="node9" class="node">
<title>0</title>
<ellipse fill="lightblue" stroke="black" cx="151.86" cy="-14.5" rx="14.5" ry="14.5"/>
<text xml:space="preserve" text-anchor="middle" x="151.86" y="-11.2" font-family="Times New Roman,serif" font-size="9.00">0</text>
</g>
<!-- &#45;1&#45;&gt;0 -->
<g id="edge1" class="edge">
<title>&#45;1&#45;&gt;0</title>
<path fill="none" stroke="red" stroke-width="0.32" d="M265.78,-76.11C262.07,-72.4 257.48,-68.2 252.86,-64.99 227.9,-47.68 195.99,-33.13 174.78,-24.38"/>
<polygon fill="red" stroke="red" stroke-width="0.32" points="176.34,-21.23 165.76,-20.74 173.72,-27.73 176.34,-21.23"/>
</g>
<!-- 1 -->
<g id="node10" class="node">
<title>1</title>
<ellipse fill="lightblue" stroke="black" cx="357.86" cy="-14.5" rx="14.5" ry="14.5"/>
<text xml:space="preserve" text-anchor="middle" x="357.86" y="-11.2" font-family="Times New Roman,serif" font-size="9.00">1</text>
</g>
<!-- &#45;1&#45;&gt;1 -->
<g id="edge2" class="edge">
<title>&#45;1&#45;&gt;1</title>
<path fill="none" stroke="red" stroke-width="0.36" stroke-dasharray="1,5" d="M282.69,-76.16C286.38,-72.62 290.76,-68.53 294.86,-64.99 308.93,-52.86 325.47,-39.91 338.07,-30.3"/>
<polygon fill="red" stroke="red" stroke-width="0.36" points="340.16,-33.11 346.02,-24.28 335.94,-27.53 340.16,-33.11"/>
</g>
<!-- 2 -->
<g id="node11" class="node">
<title>2</title>
<ellipse fill="lightblue" stroke="black" cx="231.86" cy="-14.5" rx="14.5" ry="14.5"/>
<text xml:space="preserve" text-anchor="middle" x="231.86" y="-11.2" font-family="Times New Roman,serif" font-size="9.00">2</text>
</g>
<!-- &#45;1&#45;&gt;2 -->
<g id="edge3" class="edge">
<title>&#45;1&#45;&gt;2</title>
<path fill="none" stroke="green" stroke-width="0.37" stroke-dasharray="1,5" d="M268.71,-76.35C262.72,-66.45 252.61,-49.75 244.49,-36.35"/>
<polygon fill="green" stroke="green" stroke-width="0.37" points="247.48,-34.54 239.31,-27.8 241.5,-38.17 247.48,-34.54"/>
</g>
<!-- 3 -->
<g id="node12" class="node">
<title>3</title>
<ellipse fill="lightblue" stroke="black" cx="310.86" cy="-14.5" rx="14.5" ry="14.5"/>
<text xml:space="preserve" text-anchor="middle" x="310.86" y="-11.2" font-family="Times New Roman,serif" font-size="9.00">3</text>
</g>
<!-- &#45;1&#45;&gt;3 -->
<g id="edge4" class="edge">
<title>&#45;1&#45;&gt;3</title>
<path fill="none" stroke="green" stroke-width="0.22" d="M278.4,-76.35C283.61,-66.57 292.37,-50.15 299.48,-36.83"/>
<polygon fill="green" stroke="green" stroke-width="0.22" points="302.52,-38.57 304.13,-28.1 296.34,-35.28 302.52,-38.57"/>
</g>
<!-- &#45;2 -->
<g id="node2" class="node">
<title>&#45;2</title>
<polygon fill="lightgray" stroke="black" points="163.61,-95.1 140.11,-95.1 140.11,-76.6 163.61,-76.6 163.61,-95.1"/>
<text xml:space="preserve" text-anchor="middle" x="151.86" y="-82.55" font-family="Times New Roman,serif" font-size="9.00">&#45;2</text>
</g>
<!-- &#45;2&#45;&gt;0 -->
<g id="edge5" class="edge">
<title>&#45;2&#45;&gt;0</title>
<path fill="none" stroke="green" stroke-width="0.24" stroke-dasharray="1,5" d="M151.86,-76.35C151.86,-67.19 151.86,-52.21 151.86,-39.41"/>
<polygon fill="green" stroke="green" stroke-width="0.24" points="155.36,-39.7 151.86,-29.7 148.36,-39.7 155.36,-39.7"/>
</g>
<!-- &#45;2&#45;&gt;2 -->
<g id="edge6" class="edge">
<title>&#45;2&#45;&gt;2</title>
<path fill="none" stroke="red" stroke-width="0.47" d="M161.67,-76.35C174.53,-65.2 197.35,-45.41 213.47,-31.44"/>
<polygon fill="red" stroke="red" stroke-width="0.47" points="215.41,-34.39 220.67,-25.2 210.82,-29.1 215.41,-34.39"/>
</g>
<!-- &#45;3 -->
<g id="node3" class="node">
<title>&#45;3</title>
<polygon fill="lightgray" stroke="black" points="466.61,-161.21 443.11,-161.21 443.11,-142.71 466.61,-142.71 466.61,-161.21"/>
<text xml:space="preserve" text-anchor="middle" x="454.86" y="-148.66" font-family="Times New Roman,serif" font-size="9.00">&#45;3</text>
</g>
<!-- &#45;3&#45;&gt;1 -->
<g id="edge7" class="edge">
<title>&#45;3&#45;&gt;1</title>
<path fill="none" stroke="green" stroke-width="0.57" stroke-dasharray="1,5" d="M456.87,-142.58C460.28,-126.21 465.45,-89.45 449.86,-64.99 434.75,-41.29 404.21,-28.15 382.47,-21.46"/>
<polygon fill="green" stroke="green" stroke-width="0.57" points="383.43,-18.1 372.85,-18.77 381.54,-24.84 383.43,-18.1"/>
</g>
<!-- &#45;3&#45;&gt;2 -->
<g id="edge8" class="edge">
<title>&#45;3&#45;&gt;2</title>
<path fill="none" stroke="red" stroke-width="0.16" d="M442.63,-150.71C397.44,-149.52 241,-142.81 210.86,-106.71 194.14,-86.68 206.65,-55.89 218.31,-35.72"/>
<polygon fill="red" stroke="red" stroke-width="0.16" points="221.27,-37.58 223.53,-27.23 215.31,-33.92 221.27,-37.58"/>
</g>
<!-- &#45;3&#45;&gt;3 -->
<g id="edge9" class="edge">
<title>&#45;3&#45;&gt;3</title>
<path fill="none" stroke="red" stroke-width="1.6" d="M452.6,-142.25C447.79,-125.3 435.05,-87.58 411.86,-64.99 384.8,-38.63 368.46,-46.26 334.86,-28.99 334.49,-28.8 334.12,-28.61 333.75,-28.42"/>
<polygon fill="red" stroke="red" stroke-width="1.6" points="335.56,-25.42 325.1,-23.7 332.2,-31.56 335.56,-25.42"/>
</g>
<!-- 558 -->
<g id="node14" class="node">
<title>558</title>
<ellipse fill="white" stroke="black" cx="522.86" cy="-85.85" rx="20.86" ry="20.86"/>
<text xml:space="preserve" text-anchor="middle" x="522.86" y="-82.55" font-family="Times New Roman,serif" font-size="9.00">558</text>
</g>
<!-- &#45;3&#45;&gt;558 -->
<g id="edge26" class="edge">
<title>&#45;3&#45;&gt;558</title>
<path fill="none" stroke="green" stroke-width="0.39" d="M464.03,-142.31C473.25,-133.62 487.82,-119.88 500.16,-108.25"/>
<polygon fill="green" stroke="green" stroke-width="0.39" points="502.55,-110.81 507.43,-101.4 497.75,-105.71 502.55,-110.81"/>
</g>
<!-- &#45;4 -->
<g id="node4" class="node">
<title>&#45;4</title>
<polygon fill="lightgray" stroke="black" points="369.61,-95.1 346.11,-95.1 346.11,-76.6 369.61,-76.6 369.61,-95.1"/>
<text xml:space="preserve" text-anchor="middle" x="357.86" y="-82.55" font-family="Times New Roman,serif" font-size="9.00">&#45;4</text>
</g>
<!-- &#45;4&#45;&gt;1 -->
<g id="edge10" class="edge">
<title>&#45;4&#45;&gt;1</title>
<path fill="none" stroke="red" stroke-width="0.4" d="M357.86,-76.35C357.86,-67.28 357.86,-52.51 357.86,-39.8"/>
<polygon fill="red" stroke="red" stroke-width="0.4" points="361.36,-39.94 357.86,-29.94 354.36,-39.94 361.36,-39.94"/>
</g>
<!-- &#45;4&#45;&gt;2 -->
<g id="edge11" class="edge">
<title>&#45;4&#45;&gt;2</title>
<path fill="none" stroke="red" stroke-width="1.05" d="M350.2,-76.47C346.43,-72.66 341.67,-68.27 336.86,-64.99 311.18,-47.46 278.32,-33.09 256.26,-24.43"/>
<polygon fill="red" stroke="red" stroke-width="1.05" points="257.59,-21.19 247,-20.89 255.09,-27.73 257.59,-21.19"/>
</g>
<!-- &#45;5 -->
<g id="node5" class="node">
<title>&#45;5</title>
<polygon fill="lightgray" stroke="black" points="327.61,-95.1 304.11,-95.1 304.11,-76.6 327.61,-76.6 327.61,-95.1"/>
<text xml:space="preserve" text-anchor="middle" x="315.86" y="-82.55" font-family="Times New Roman,serif" font-size="9.00">&#45;5</text>
</g>
<!-- &#45;5&#45;&gt;0 -->
<g id="edge12" class="edge">
<title>&#45;5&#45;&gt;0</title>
<path fill="none" stroke="green" stroke-width="0.54" d="M308.35,-76.24C304.61,-72.37 299.84,-68.01 294.86,-64.99 256.62,-41.79 206,-27.56 176.37,-20.63"/>
<polygon fill="green" stroke="green" stroke-width="0.54" points="177.44,-17.28 166.92,-18.5 175.91,-24.11 177.44,-17.28"/>
</g>
<!-- &#45;5&#45;&gt;1 -->
<g id="edge13" class="edge">
<title>&#45;5&#45;&gt;1</title>
<path fill="none" stroke="red" stroke-width="1.08" d="M321.01,-76.35C326.89,-66.64 336.72,-50.4 344.75,-37.14"/>
<polygon fill="red" stroke="red" stroke-width="1.08" points="347.67,-39.08 349.85,-28.71 341.68,-35.46 347.67,-39.08"/>
</g>
<!-- &#45;5&#45;&gt;2 -->
<g id="edge14" class="edge">
<title>&#45;5&#45;&gt;2</title>
<path fill="none" stroke="green" stroke-width="0.24" d="M307.03,-76.16C303.34,-72.62 298.96,-68.53 294.86,-64.99 280.65,-52.74 263.93,-39.66 251.28,-30.02"/>
<polygon fill="green" stroke="green" stroke-width="0.24" points="253.64,-27.41 243.55,-24.17 249.42,-33 253.64,-27.41"/>
</g>
<!-- &#45;5&#45;&gt;3 -->
<g id="edge15" class="edge">
<title>&#45;5&#45;&gt;3</title>
<path fill="none" stroke="green" stroke-width="0.84" d="M315.25,-76.35C314.61,-67.47 313.57,-53.11 312.67,-40.57"/>
<polygon fill="green" stroke="green" stroke-width="0.84" points="316.16,-40.33 311.95,-30.6 309.18,-40.83 316.16,-40.33"/>
</g>
<!-- &#45;6 -->
<g id="node6" class="node">
<title>&#45;6</title>
<polygon fill="lightgray" stroke="black" points="81.61,-161.21 58.11,-161.21 58.11,-142.71 81.61,-142.71 81.61,-161.21"/>
<text xml:space="preserve" text-anchor="middle" x="69.86" y="-148.66" font-family="Times New Roman,serif" font-size="9.00">&#45;6</text>
</g>
<!-- &#45;6&#45;&gt;0 -->
<g id="edge16" class="edge">
<title>&#45;6&#45;&gt;0</title>
<path fill="none" stroke="red" stroke-width="0.29" d="M69.89,-142.69C70.3,-126.52 73.08,-90.1 88.86,-64.99 98.96,-48.92 116.2,-35.91 130.1,-27.27"/>
<polygon fill="red" stroke="red" stroke-width="0.29" points="131.83,-30.32 138.67,-22.23 128.28,-24.29 131.83,-30.32"/>
</g>
<!-- &#45;6&#45;&gt;3 -->
<g id="edge17" class="edge">
<title>&#45;6&#45;&gt;3</title>
<path fill="none" stroke="green" stroke-width="0.63" d="M81.97,-151.22C134.18,-152.06 339.28,-152.37 378.86,-106.71 391.01,-92.7 387.27,-81.52 378.86,-64.99 373.77,-55 350.32,-39.19 332.37,-28.13"/>
<polygon fill="green" stroke="green" stroke-width="0.63" points="334.3,-25.21 323.93,-23.04 330.68,-31.2 334.3,-25.21"/>
</g>
<!-- 390 -->
<g id="node13" class="node">
<title>390</title>
<ellipse fill="white" stroke="black" cx="20.86" cy="-85.85" rx="20.86" ry="20.86"/>
<text xml:space="preserve" text-anchor="middle" x="20.86" y="-82.55" font-family="Times New Roman,serif" font-size="9.00">390</text>
</g>
<!-- &#45;6&#45;&gt;390 -->
<g id="edge24" class="edge">
<title>&#45;6&#45;&gt;390</title>
<path fill="none" stroke="red" stroke-width="0.29" d="M63.25,-142.31C57.13,-134.31 47.74,-122.01 39.34,-111.04"/>
<polygon fill="red" stroke="red" stroke-width="0.29" points="42.32,-109.16 33.46,-103.34 36.75,-113.41 42.32,-109.16"/>
</g>
<!-- &#45;7 -->
<g id="node7" class="node">
<title>&#45;7</title>
<polygon fill="lightgray" stroke="black" points="243.61,-95.1 220.11,-95.1 220.11,-76.6 243.61,-76.6 243.61,-95.1"/>
<text xml:space="preserve" text-anchor="middle" x="231.86" y="-82.55" font-family="Times New Roman,serif" font-size="9.00">&#45;7</text>
</g>
<!-- &#45;7&#45;&gt;0 -->
<g id="edge18" class="edge">
<title>&#45;7&#45;&gt;0</title>
<path fill="none" stroke="green" stroke-width="0.59" d="M222.05,-76.35C209.31,-65.3 186.79,-45.78 170.69,-31.82"/>
<polygon fill="green" stroke="green" stroke-width="0.59" points="173.04,-29.22 163.19,-25.32 168.45,-34.51 173.04,-29.22"/>
</g>
<!-- &#45;7&#45;&gt;1 -->
<g id="edge19" class="edge">
<title>&#45;7&#45;&gt;1</title>
<path fill="none" stroke="green" stroke-width="0.3" d="M239.49,-76.43C243.25,-72.6 248.02,-68.22 252.86,-64.99 285.64,-43.14 298.65,-46.67 333.86,-28.99 334.84,-28.5 335.84,-27.98 336.85,-27.46"/>
<polygon fill="green" stroke="green" stroke-width="0.3" points="338.27,-30.67 345.37,-22.8 334.92,-24.52 338.27,-30.67"/>
</g>
<!-- &#45;7&#45;&gt;2 -->
<g id="edge20" class="edge">
<title>&#45;7&#45;&gt;2</title>
<path fill="none" stroke="green" stroke-width="0.41" d="M231.86,-76.35C231.86,-67.28 231.86,-52.51 231.86,-39.8"/>
<polygon fill="green" stroke="green" stroke-width="0.41" points="235.36,-39.97 231.86,-29.97 228.36,-39.97 235.36,-39.97"/>
</g>
<!-- &#45;7&#45;&gt;3 -->
<g id="edge21" class="edge">
<title>&#45;7&#45;&gt;3</title>
<path fill="none" stroke="red" stroke-width="0.39" d="M240.76,-76.24C244.46,-72.71 248.83,-68.61 252.86,-64.99 265.73,-53.43 280.57,-40.77 292.02,-31.15"/>
<polygon fill="red" stroke="red" stroke-width="0.39" points="294.15,-33.94 299.58,-24.83 289.66,-28.57 294.15,-33.94"/>
</g>
<!-- &#45;8 -->
<g id="node8" class="node">
<title>&#45;8</title>
<polygon fill="lightgray" stroke="black" points="121.61,-95.1 98.11,-95.1 98.11,-76.6 121.61,-76.6 121.61,-95.1"/>
<text xml:space="preserve" text-anchor="middle" x="109.86" y="-82.55" font-family="Times New Roman,serif" font-size="9.00">&#45;8</text>
</g>
<!-- &#45;8&#45;&gt;0 -->
<g id="edge22" class="edge">
<title>&#45;8&#45;&gt;0</title>
<path fill="none" stroke="red" stroke-width="0.17" stroke-dasharray="1,5" d="M115.01,-76.35C121.06,-66.35 131.31,-49.43 139.47,-35.96"/>
<polygon fill="red" stroke="red" stroke-width="0.17" points="142.38,-37.9 144.57,-27.53 136.4,-34.27 142.38,-37.9"/>
</g>
<!-- &#45;8&#45;&gt;2 -->
<g id="edge23" class="edge">
<title>&#45;8&#45;&gt;2</title>
<path fill="none" stroke="green" stroke-width="0.2" d="M117.94,-76.11C121.65,-72.4 126.24,-68.2 130.86,-64.99 155.81,-47.68 187.73,-33.13 208.94,-24.38"/>
<polygon fill="green" stroke="green" stroke-width="0.2" points="210.16,-27.66 218.13,-20.68 207.55,-21.17 210.16,-27.66"/>
</g>
<!-- 390&#45;&gt;0 -->
<g id="edge25" class="edge">
<title>390&#45;&gt;0</title>
<path fill="none" stroke="red" stroke-width="1.02" d="M38.59,-74.61C44.1,-71.48 50.21,-68.05 55.86,-64.99 80.65,-51.57 109.43,-36.85 128.97,-26.97"/>
<polygon fill="red" stroke="red" stroke-width="1.02" points="130.3,-30.22 137.66,-22.59 127.16,-23.97 130.3,-30.22"/>
</g>
<!-- 558&#45;&gt;1 -->
<g id="edge27" class="edge">
<title>558&#45;&gt;1</title>
<path fill="none" stroke="red" stroke-width="0.15" d="M505.33,-74.21C499.83,-71.06 493.68,-67.73 487.86,-64.99 451.4,-47.83 407.24,-32.01 380.91,-23.08"/>
<polygon fill="red" stroke="red" stroke-width="0.15" points="382.24,-19.83 371.65,-19.97 380.01,-26.47 382.24,-19.83"/>
</g>
</g>
</svg>
